<mxfile host="app.diagrams.net" modified="2022-07-06T07:19:15.038Z" agent="5.0 (X11; Linux x86_64) AppleWebKit/537.36 (KHTML, like Gecko) Chrome/97.0.4692.71 Safari/537.36" etag="9z8ajIozZZdI0FQ251rv" version="20.0.3" type="github">
  <diagram id="-IXHtl1DASo9XywtbTkU" name="Page-1">
    <mxGraphModel dx="2138" dy="906" grid="0" gridSize="10" guides="1" tooltips="1" connect="1" arrows="1" fold="1" page="0" pageScale="1" pageWidth="827" pageHeight="1169" math="0" shadow="0">
      <root>
        <mxCell id="0" />
        <mxCell id="1" parent="0" />
        <mxCell id="7GYGhVI0r9KvUz8mul4n-1" value="ReID-Net" style="swimlane;fontSize=18;" parent="1" vertex="1">
          <mxGeometry x="-241" y="137" width="1210" height="341" as="geometry" />
        </mxCell>
        <mxCell id="7GYGhVI0r9KvUz8mul4n-11" value="" style="shape=image;verticalLabelPosition=bottom;labelBackgroundColor=default;verticalAlign=top;aspect=fixed;imageAspect=0;image=data:image/png,iVBORw0KGgoAAAANSUhEUgAAAIAAAAEACAIAAAD0m+nwAADCrUlEQVR4nFz925IdSbIsiKmamXvEWpkJoKq6e19mhmeGFFKEj/w2fgT5c/wAUoTD4Tnct97dVQAyc62IcDdTPsRKVM2kQCAoAJWJ9ItdVNXU+X/9v/3fVQfKmqaJFnO9zO4IqKzgA0pNVtpQlIx0kAWTvOirj8ZX7T7ZjyeZ7n13NB0C1J9tf0k7bP33A1+f+jqmjZdP/W/Xt6P0p68/PevN4/tGjILVXDmWJtSciQN1n7YNG5wCvcJhpBEBAEKlMJOYBhAkQ2iSkYSLJhKGCRYsZJawKpREpVjmaQ666GVOgCjDDCsTjGBK0ARSLBgJIww0TKLS7XAvViGN4mDdpvac1QtmBF3wciszmeAlmsBMs+xe6o3DKHuKdSzGG5Erb090x+Q2oQatySgURKIpvKFEmRejDFD6RPO6r/tR9z9tyxJt83y/3qwHR6/h9y+37frKe9d/fvlb9/l0PM+RS/8PfV1Kajbevk7cJlBls3ygfdvrqOHaokYIywwbtmfcxHSzqGj31hRRbpBZmSt6eZc1DXEbyB05kW40Q0ll7Y6W3tXcLJ0lDXEmJkoo4TAlVQ4QRoBOM9AgU6VjurIJmDjEce49kJI4nXkVjIvVEtPGUJnKWQ3V0zyDDLjBij4UNr3atKxo7lvN+JPfeOyxuO/NErO3nI0HmWYuGriTCflETEw6zAMw5h5pwbX7puXb2p6X+6h2xPXduse+DK2756v/5zVWxmd/+j6uv8bXY5vb3y9oPX56a8nFxw177VOVwzSYDByyQ33g0wVPX2y5rFraBGqapsNAY/NYbekZNjxlu8VhNhc9xag551FZ5PTaU8fUrAT2nt6ssS1anugqZFXljnmvOgaO5CETij4N6kAgDGLuqFlDlHf4BS4qHbN5tUsuKsIUF7fn8NIlbR3TqyZrwGAGZ3XCg+bRNmCutd+nWi89xTwyXk11TexjRO5k7bqLO6sck3F4ywVBj4NiMBA1e6lCinj2toe9rXZfx2tiXjEsaLJW196v7N99e816Xm5Pn/V16T1d//Dyr7dY2r2w/Sp/3RcH+yI6XC+un9Z5fX5bVz61ZeGL7s/j/Wmyje7WK2JY3bEfVpVzjPkO6tnQrMSw3nTB0Wwgbhm36lMzsUMb86778T5yjmAZZ5g6FDSjL+ZuvVtIYAAGOGlpUc1k1qscEktt0msBFsEndIyRlnsSLLEMaRy9WRAkVDXnPGxuNgcoWy4rWwHM474t8iP03Y63i+UVJR70nHJgNM7FFIS5h7XFutg316gxC4Q4WXdOFNexIJe05lxca0NzaHJ3wefVeVQJb/uhaXXLmXX92+eXfOZv8fLlJ/98XZ+i5WyYIFF+LBfH9WC8HXmbt+N98rdc94nsgdXR6DZDo+VcJTi3Vbu3w5dkqyLHjKhe7dK1HPTp3D0OBK0jckbxItHg3hesLS/0PumzoZbpOEIZmUoVMWwO86IbO4dn2RiZdjuwJYdTffFFSMexozaOTJfTN4KJtoXNqIrdMTlKh89DM5CiA26O57D3dvzt8E8XerVjei3VihHsizkVJdBhYUmCow5j0hnppkZZFH2NFmt4GVK+oC9hYFDvDVx9+an6E/i3y7gudX+uL731lrrR3p/qhv39oLJ1vcRYnbbvB5ZbXe7vV761mseRbzvf2O8t3u8omo9gIUpz2mUul2D3fLVv3zkOufXr9XqJpYUR0WYGjzmHsfWo+klcYBqoAyN1TOZ71Y1yJiXurjvDolnzMDlyGdNKZa6VbdGVqWx5RO41Mu/HvFcVlbHXl0OqYxc3+hTJCd4NmSDL1rLuXju4anjR81LXFrcW6IdzKT/MI7qzT4WADTjSMskJPwhYksfhNq1Fm0UKqpyjGDVomBjDjkB0sngvbdo23Nhte2q/Xfdm+8vywmtecy/LmO1Q3BfXkrqCqy7Y1uOet1lv3N5Hm16DlZen6i+HTer7Ou8LKuTdGqOzTfht56G2x9KWuaaWd9mmeO54Djw1pystD2YNP9L2EhwVvaPpuIxdY2gcuY/DcfiSsWCEipGwRgs1uyOTWxlTQzVyAoqwxWmVMTl3zgEo05Tm9CcmoTRTXNLNXc7qlR7eFdGXsR3Vor/hEtfPgcMDua9SrxToR1lWJVBilaE4WOalUtJ8WcIWA8syOXL2g8dIiyKTTLpIQMVMR7YmKLKe7YDe57y/4xa1+X2f32a+P+VrHJp3zvvhx1EzDfbEWHtZ9zF5r/lqNfI66mnOwN78bk6BMdi1ZLd82dTeY2Pb0feGu+ftzfo+G/NyyW7lue4790QW99ij7WhRSl/aUpc2Evf9UnvPY97GpmPH/s6EuQkkAKLSJSfNzWnI1NHKMcPMn/qi3mFXoaRypZnM4DTKNIMyy8IBFUejwodEXKxiWcaMyjbSjr2OSKdnQvACYHQFQFWBc9qsANvF0STKUvT0lmwJRxoHkaRIyCgjvWiJOg777Q6l2WuMJ8HKO5pygrK6lW9jGTMmIxfz5+hPd/159mVb5chl98v+rG1JuWmVlqJE2ZIL71n3d6/vT3jLJdORObeNRubEOFAY67cn3Jc0bZsmDj8qCljSK8R9gFku8vChUnJJC/ThSDAThFcHr0ayW3MgTdPTNFvhApnBAYXNaAUvIDWQmx9pOzSpQbAleNB2ZFP1jK20qjHuewqUTfQJyDIdOFsbCICrkA1gqhRqoXBBY9eoOjIC3WgMiKIkCAAlUSJlGFmMd9bbuj7Fdb/2xP0fVL94bA5fcXzjfveBJdcel2rXNz69+5LDltc9Ihqvw/r+sowv/c1sC2RNjRpzwmfkZiqjZMe9vW1muF3qsDGPQPadhvF0s+nudvg29Kaaegs/LGyd7SnXixZHp5vaMrsmy4PWlorcueM249Z5rOVRrSY19z52ZZYTjEo/kkiXuQzyykY64R3NE6osKH3Acl5mtjnckAkoPGyJmhgsI5xAQyXkTCdIF1DGQgzAShDcmK0KuStvVTtwcZKEmyyKIUcJBUoGuryXU3oJ+xR11f73J/jPlv/x+du3n74+//nb21ro2+dbXTbGmzuer3pZ2pMaUZz3+/51fB+VY/HqGpblaaFI+EhZVs0BJ1vn8gKshaNiuJWK75CIvY7B357W9tOnv7y8XN5xbHPZJkTyYil730vbuFRdHE8Aam7QfmQe7ljS2vFEPO2FOceS72tOJ6e3A7F7yEQqg+kGwpkLZmQFPFjoCctU5QQOwxF9eqDmCnoshIWJXmgFTHMWnbDzFAMgDJaywwiJqmzEtabSbntlcQGFkh3mcHO6zCQClIAqjtkwUYv7T6R1/zLu17K9RaON8sPCfmF9auh7zmO57f31Yu/gUrnN4/Wmu7dsjbakocxEEgEF4oJwt+BElSlpmT7G1ZZPunO9py5P8qY6DB62htp7W/UJpdfjcrT3XHQw5z6Rw+pbifdcLZ9XX9xVbZbRZvTkUixgvyJ9XjW5JdMlz0BSpVSLKmZBRYnMhFAHJEBwj2AjL6CyLhzkzFmg5qoAYBQrNVJMT9Jg5BmESKKYg15mtnpeu8WR99Kkgljg8CrLhW7pkqWkokCJKmYFS9Iu3zEHa5d+Nb4fE9vt+pucvsXzFhgvrfp1u7WbNO/fRo50jD+ttjyR6xE96ZBDbkJUmeRGkwEuGCZsp4bfL9X7cf16a9sb4qDf1vl95Pb2/tat5/o0mDtsQX+6ZoZeL74vKw3PVbrjPo/fqlJh4xrOdKrN2UTL4NH2FARLcE+YJpFEKaso0dRmFbJOMIPhCCOIAl1mNO/tmUTWTQcgjCVgDqcsU8msmWiggwShSjHLalRJV7usaI5R8y1ru8zndPelIr3B4QJVJ0xHA0iBZSoEa+T8jcbyWy1vme249an9CIy4HE9hjDZs3/TWD80tLga+xHXt/bmWVVyolmUoc4XLnCKKEGoiFXOmYK2ZQvDt5ZJLb7/1+XbUfLps/uSv8+WGdbtxI9rrtL/31cGfjvlUhtC91W+LxgtwTOqVlbv8TZUCbi1mRPNaeW8qS5aW8J7sEyxHP0YMZfPRwsysRNIajEax6mw4EpIZUTBBiCqwqCiGrFW0rKiiowhzM8qZdSQgK8johsVD8I26WxkAUeKOos2JEDHLskCAICiaginRh2zL2dXYNjZrTx1Yv1yeyKfPY9E8/Ns+NiSv7PO58drjkn1JLlPGiRhT0zWlEkSoBAGSwALkrEJV4ZjF43Ar9+vzhdq/v39XLajI4W92senP89NP+dbHm+u32r+r2e2Sm80c7DNtKbvK5qJ9taEabbaqJ6QDxkaPxREmZ2O4tSnMY9yPOZHQMDqDlT5uQB4mOdKdvWgKQD4SNsRjetjsDAgOOQE3iawsOWhuXuIhmsk4rQK1ijkBcSBwDB1thmZNn2IYAMqooiAINJYbCEG9x7Ory3e0p3W2p7Bj8b3m/et9e/bN3o5F9fS0Yu22onwelhOcsw3OA5qeVTiBaAEQIT3+mwAFCgKlUCmr7EDbGE3pq37iXO011W/Bqx9+7D/t6B21NF4an8nB+Rq1e3Xn1frzmmx3WE36YnH0yECpvhdT6TVQZhrBu022CmbzNLDpiEIakjOtQBjDC9rDYGbUCgujkgHAwHCWq9asZCVLZrSw5uAokghvFo0cPg4AU7HDjOkT/XBe8kBBdZQ1VBjiXPGzHp2c6a5EmK41K7Jrdg/TQduieukC9mTNBGX13mIM2EENoWS7IT0nCwKKkmAEzGQAxR9boAJMBGigiZAaatawpqOq1sqnuEy/Lpf25cpe36L7PuP7MY9B6HlvL5y733dsG+I2VxyLoej0xWyY7+6bcYBVk3kImx/ZjqXj2dDcp/luqmCSPmkpwKku2hQnq1Dm8F40t+Nc+8YoCpWWCduSpWhojgB5iD2Itct8SkxRNRabwZDZzYssWJZp+lQtkKtcMNWEwAIleELOciPT06TcTdkGbWbOGuvY97HYvsIuqXlTOS2MkQoaRYoCjKDJiCL4WHade0DTo2gjEIBCqGndyrv5Qp+378v6/lPc9nrF2xK29Mv2/JzKvsi/Hvv7O3i77HM5OvJCqlxQDeMehgozBMuQlzYasjc8oVdyK9Y27s0qQEzLe58GLbOkOY5EBJ3sWQ2aZC1hw8zFUWU5fWQkvUqHSAIQWR5TWcLmaY0RSMstE7uX+7yW9Wlpck5PL7NjZX+ys+zHMBopquCAyeBpSUsgkVYUMy3LY0ptt+WyH3PbFrRGh5hy9UmfqLSUiygEIaeMMpxHX4TAIovSuf7ER2wCRC+vSbHQZ+vj2l9yvdz8+LYfVRnzxv/sl4NL4k/V+vXLvD7v22scN9tkhckybJ1iRJkP6PAybzDWMaNmU7bqvdYcvCeGHVJaBtVmDwa4Wmi2Sc4AQoS7lVuDjMU8wkinIg3UyMMYnQaYQapxcM8+i1GqUYcyqbXo8HvExozdYrdIYtIXNhGHcdoZ+2k0SzuZQRhBkZWSLxYCyoJRLUIODYbmbHelweecEyyEhZmVu2SSoZwyyE1GOWUoAgSMH5Ho/KAACKCZrNVgQjm5v7f706fbde77++W2zbewp8rrjtvf2rgsfPLWnjrG1VAX1Do2HuJ9tiGNMTU2HMNMuRzFV1W5uuezo6268OmKZRbAHFZcEGHtrGSAQ0hkKkkihM0LlDU4Sj6DQWHGJMM8uEc72uCkl3E0mGXK92B2D1mOeUfeG736Oi8O39NvilHwSeUZmOnMQpHpyAgb1T0WHCW/Nm9W8hbRvVtjyeeMqnWg/IA8gFGYnAUTrWAqBwIyKshgiXLAIBPEMxmfORgG6LwNlGA0Q/MV7fN71vf59qmrenpUG+sxrrrd8rjzfVa2+3W7m1ILK1rv1nH1VLodx8zDc7tEmsmykd22FcNzlydaf4resNbEHMgarhRmOWaBMke5EpplVgK6kVMZLAxHWGT5QKg1i44ZnK3Ignu60wEKFT4bDwPq2GcM6zNW9vWaiVJGTboXqkSbZJmKAAooucGrWa0DrHmZjuSkFQGhbBx2H91nd6S1ItNEzmZ4pBhZ0WUTCqpOpA8F1QOwIgQQIo08f1eQWEUWWRDM43L0/Dorbr8FRKXbd7Y2dWv+qtT2byu6cWlcSt4rA2I074jOT3Lf+zH5VtoSVpdeL+1S5FYYx35/PZDsbN0CKjIKLctYwzDlons3BOFBz1BnGQ0SW4ZqaE7CGjszDem4KzefL/IApwlejehMDTCJdKeiJXvlriPVpgHBARSsZDPDKxKu4RNhZKlHYfcGtIk8fMiPYTZNswvdI90rfIaXGM465QvMCRWVEAmdJScpQA5AokzGokQUeVZCEGCiiZIV/IDtnLfhVCwuNOuwYyzv/pKXT/Mp5y9bzupb7uPomZn7MgXP6519MzPSx3rFi9eeetsrixuWxKeDogbmLBqrzNAoTqHMA4GigQnUmRZH+PQsj3WWhiEiYx5pN3M4ltJRJOBg0fde3VCKssiQiExYFQGjo6EYO4ZBamZ0Vwz2NBg84TJaOFbLhUM2wOte1oYvwlHYDs0hL6MFTGYMKhmlssxEnZHfMMmkTSRQxYJOQrSKDW5isM72AzCezdmjSiJgJSvY9H0LfX+J+pR+9LgTtl1NX57/jvb19v78msst++73o82baVOFVeldUzZt9WusFxwGWnup9bn2Cc7aB70Wa90vh/tRbDxMeRjpyChAnhMJwAsiM4OVgzyYuR9cmAoNi3ePaLbWnKREC5OEFW7GsuMMCyIKEmhyTLAGMotzmrJ5BufKnVnVsunwKfrBEnT4KDuqBxermBMjlRgoIYusZmSpBFSpBC85ilXOaZjGaT5pyUrUR8gXyILDDOKZeCCg9MARWXBDoc7IZN2eXmzPO2vkfYOPzVhvr6Mu3H9+G9eLHS+xf/b6IoRWm33C3rRv+3sd+7vevl2ivfSL3vpAc49+qavfj3o71HJ4TisRNuXlSEOlUMQMJkosB1phh5vjxr2Y1lSjwgs2nLYYkgob6eZezra4yUhOCi6XQhRJpPMgQJUnKsCwJdRGVaZnmSWFIwv7wSOFYBOMiSXLPH3QSuY1Q4efzQLTC5KYkpVMcpTJne6kC2b0ElWASJmDEwXUR9Vznn1R4KnFgqosBBLBYOuX8vf7eB3f3mId+Mz6NCd4ez22W8Tw+K0v7/YEW0Nctv0579fic7+knras4/h2/P370Sj40+Lh72Sj2i4WM0kLq3IXAGQ9TkkZDGdDTNF9zjMm7Ud7aqy7IRwoteICu5PggILM5t3dppAQzggByuTlKjMRGZW2jYzEeu+tIm/5tHVMQ5m5H5PIYIFXtd7cfWslH0dBPCkLWExJs0AVJQgmGEhIkkEqnagSDTIaYSakOFSAAycyRIFG2YkEAiUUxdKptNLFFDVuedCbrp+Xy32N3Hihhl0Qz9X7Bt/eDvttd0xcB9fvi/Y4Voe5fdrI9+e7fCtR3N/nvTX35RrGGiaa+zCqVMl51gY6q4GzVj7hEpoXkmbem5op7WkGpEQkz5XNlCCDNUc6jsxU+QkAmGAweSJAF3KyJo5Lmc8R1NJGT1FKQcWotERXAE9ukXNGCkdhOnZbVIaDbiVRUAklFiCiYIVHAwxJKMCKIJGggRM6C07AIJceuxEFFABLM4FShTFINxzHa96/l2dburP1hsv3yGFfW0uP96NtlPo6EHVU+3W3eOP1FriHrYUt0eP2s5Y/4enYL9+n3vX+vsx340W2+tnhU8A0QULRANAeNYOEs0KLIP1YgttxeK9QxJSVtQqCokpVBM0iTNKsWVUhA1nOE3m3cFgr4+57erE8rfaY1Q4n0authgiCpXAtYKtR2OZyFNOZlTPzbGPNveWZXlhgwc7is0SBBZUKOAGIAg1UESme1+S8KYKfDCgqQ6A8ySKkci2ePu/bja+/1m8Hrc8v7mQud79at5eea9SRfMv2Png35rXG1ahPB1+yDmx/G/pafb31v8/2ecFlhbd48s8N43XOW243jWa6GMKaFQoUBVIATQJEUiBr4iKfqIyw96xmbpGM8kQkbUICaWYMk0OoKk3BLQ2kKooCXQAS2sXJgPc0f48xcLCp0BaPaJcB7Qml6ai8ad5blTqaGRUDNY0JmUsn+SPKzq7ZeOILJx9kZ59LE0uwU57GhE7U28iqszAlQcIAGwJZSZZd2biRX8Pfnl/G3i7tKduN/A2X5zROmRC2+EXWMC+q+732w2/u6M5mtvz31v935q8vc8S9+r5FOT9DoaPaewqm3EOkUS0NBmPiQY3XmaDOn8xQhfDKXUVVyH0LQ7Dt1pI4zlCKcDUpJE2lIJCys/SbmHQdLGVNMFt6Q9fBgXkceYzhR3Kvw+1uGgkRnsa6yiGrjClEQHGYTdVMPxE1nSUkKJl4HhoaDORjh/BAOT++IVahgCyIqJPmKC+SsgkYKg0Kv3juypGtsGrNcdHcBfnMebTj8Dh0nTIt6Gu7GD8dWDcqcc+5YZvzbSnHteflqph4Hfn1ve5Is+Qiv06PXECkkKYyzkcrCJwoyQOhogDzPbEspa1ysp4mjghCUYxZGBJgwSBcwNQUC+c6ANJUDSalorJQHrlwWUHV4NjjyH43ZK58D4w+5jFUM8KDcddqJTHpI5hewyvNhPOf+TjllIEnHQrpBPn5gDf4sUFnuWM6yT8YWDKSsiICxmJSMqic0B176m0d7ZqX75/eNwuVo29m99m2w006uq6YgbvdzXcueUUr9HLr3qnj3vdtrbS0pT3vS39aD/Nxn0px2pp5lQlUWgEolZ041YkL2gdGJfNlahrbWm+jLQQV4eKoTIzEUeqgB8Mo00BOK55qeQqaPgtFK4NPc3TLlmkzOVQbLduyySt7wo3L1Cx4uS1yH1Z9TmyzatSclOyBGhE//rUUzuQJ1e/YWlk9NoUEi5Yq5smKVZ27evbA5Sg9EHb5hIfaPuy+jN02x2W8LTxQT2p23Y80Ls/oVQoNs8EaKqp4KP091APPsp6t2+xP39+9mUYe2tTeRTZ4p88Zo8WrgamA0QAjz4rhcXMffBFQzDRrrlzbtQzLdLOwYo7MrEq4Qmghmgo5eRRnAGTplJqABjNYQYQZYBZbM6ZNygIrY6no8pLSdtRUgp6eVumVqeEJG/7RsvKsIe2E9h8drIoynLTaB7LG84bACwWBopSQySQ70wNAsARlBRDmmJxtDG55u1cer2hv9/cauC6usQnu7BFPNqOioLQ6XOnoVtTAsmcSU+tefgyTykfX4JhWCbdAb1p3s1ygqEDltAdFCvyvjtUZNKOUTWSy+Bz+roOWwak5S4c7l0AXmlUqqyY0Wyngfh5KPgJsISpVoNSmelpk2DSj2djW2LuXO8mTYcv9mHsqNcCJEEQroEwlQLQHzA8jKZ1VKeqM9g+c2fSDb1E9VDMSeBJv5496sBmiJhJwxix/a8fU+3QoPt1tFS5PGrnd62/caXlv7WLTQcWRVsV2ZFYmEipVIyNdsl24yp7mUq2Xh5sIWDeZ65iZVRJ60QW5/oCH/GDtQIHFsLQ5dW9ss2wSHswJyWdYv5o5AWSlEkmiy4IOszQWeH7ilFUBJNJr2mEQmBVIjl05R2WZuJq3bChnroxReWwmqGjWSUyheF4sADhHcc6uRcYST12FcAos7JEWIKoeADT1SAwoCPVoiGWkS2U2i0dy7k9tzlrWy4sll6uttV3245fbtGOX3uDuKSvIg2bGXpNbzZu0d8vWluq22pS/yWhVzRjAUT6TsyHDIOjIA/UQgjzIrbNKhgmQjEDJA1FmZTMmU0aGWEFvRakVZxVY84QZSTcjTacKpE4WmRBURsKKSvmNc3obzWV2aHIePobpnnGrjjQalrG0GU1j+mBpUiYL+HlyJT5wBJadVRce4i4SxpP+kviAsM9jpYds6fzfcTJiKijJmJBU7UDeLmb+3NDRvLI8U/f+fHM7ADQswFIHLGejSNCrRS6xs4vjkver7StldanZJJzN7Ix0zkQx4Ok6TO4lUGUwU+FD03t2Yj9YPJPCoLIEzJyOKDKsU8hU1pxFKAnjqS2yopVYkyVBp6oFkJkoiYS7aMUoE7IjQdCJmXkTduZSinmYNzFtUQc0s2Qc1FlefZxsnWK8DzztcXN1Jgd+FKqP8ugMTOei6axVH5VSEY8uoB3N39FZ/sILyvQ0D8map1kfYZOkaG6NuBRY0LznPBSSaTqqOz1Hzdq+V/mscgeiUUuoMEqHI2HzJCpMccYfURTPIvoBSphkBXOEIQ85p5nBKwBr1uqsxP3RAIkhGuI8njOhOsknk06hCbI0CzJiEQ1hWVQO1V1ts+Vw0+ru0TVyH00zvQhHkGE2p51b+SFjlCCdOA7O28aTZSkz6dSbPpa+7HGy8OOCwD6klARoNbtladpMaAQO2y84jPnbMq/WOvjM2sRkYcphbIlpAnNJ1DtqhqkA23u1i7CW6iC2lqxd20FLczZeoro7M9KqjHWeEYIP7cCpETxv9HkDWGEqTmAQIbcIEcFqVb1ctF40SkwD7EHtUSiw3ETCIaBqQDQqAogqTCpQbIpSU4Wi0sBKTbd04+Z55CyyVyPZzgLnQ059Ypwn68JH7VyPBhnn6Xi0u0bYeVHsnOQ6z9dDGHQmBxRB7piH01OEzQNHjltGvtMm/a4krVe1dEfHoaOKYiNRF9SeOOogVcHBnrgugWVtTT6Yd+VkTsydVaAR5o/LWKgTkzVA/IHSPvpHssx88oF+iUTQUJ1HT7RpEiZETZzyujKKshNRsrPGKBNRXnR1WI+jNI47SkbHKC9jAzrKgFMLKpmiNbMAOB0TMk2ycIp77AeqAxTrQ4MCs/MfXyURKpM/NoAlnAqJeuzPeYMogCk4CwdsRLl7y7K5e5GebsP9zewY9awjYIPc51yGXJzGpDV68yfmdXarbfrXvWFmq2qZ9JLMwtoC28c+lTMVMN/p5qDR9GCtCJjIBzd3BllaycKMp4jNSYZM6Zih8EQJAcU5oQyygDx7apBmZQlWyZAumgeCDG23+T5yGrodnVOUojEu5IqJHCPJdO9VSiVCDjYPjMVms+FSpQ3ZlMuqYRCQIvMyKiYMLqlOCOqs+VlCGWAnEAoVJBREGVKQJbzaPAdbJrqaX9VzrknaNXlVfVEuWbfA/Yi3PeI9lpqNA4XJokVerDol8/l8ubN8Hj4mDI28utaXWDWZprI59YAXnWd9IPHsbnCmKDpFwWUtraQ4S1QykqpTuMN81NyGRxV1EpmPb1uycsqqUMV0wLN8N7uH3T8lJ+1M0WwO86mqks8WWmBN0uzDbDSia19qt/qe9yMH5vCEU3QW7TDMAgd6Wk1f08MGzUSfaGYy+BlkjTLliTQWKXp9SIWKYMhAo7zz2Q7hNm2T5dvFbkxtPb8t/m3N7dMR6x7Qc8WOT+Jn917zckBb3VHvT775ddjSfMrfkDceu1XlzGEAF7pjpY2qQVedTOq5ePhoLx+ZgGQxRmVWLJSKZ/Ein7AhzoKTOu8zyDz7/zqRuHmesazChJXRfE7tjbmYXd3pT1Z93mvejypVYDZI09TcE9eKPGJ+v/jXXt+P27y9Q9PdVl/ZmlmlWQEqxOSS+FS+lBv9cD/MkHCjrIoZgJ/g4KMKPQl7PODQR7xUWg3VUXUYqiPDj9R9m9/7qMrfWl9+ul5vP4didbNlZOSo/Y3HOm3f+DTy6rX47dAbt3WYzYXFpfuFs+K2G+ekqk2521lUSjolISe/JJYehZAIwCQwaYfFhSywFAqxgZE01Ek+Wn1Qq5TkVUgiKYWhBEJN4UVUVdznMstWt4tnWPlCPyJvg++zNbYXxbqXb+342uPufDve7fuvxPzU4k/Pl2vvc9W7DozsN+OxYn9qIy539tfMvWa1smXG0tbyPkp3cBjgoJQgz3uDj06ABFGCJpSsYXnAE+ecrc0BDLf98za651qO+affqrWxXfstXl7bi8psjEVvfb4Wn9La/kw7sB1derqHnEfzDMtoJiEHb93h6QY63E4KyYAq4uyNwUeIpD0azM00HRNIBCGcjCNMJlVJZSc7VScV5mDAA7CCxBwiLKtntrGMuqQvxyxsW3JvPrspVqmNve9jP2rffols/X6r+vr6hfd/Wv3n58Wutbfvt3vO13i/P7/dX2at6JIPjMPnwIG5f1r0tF6ul6dc+/1JW3CCU8JAnFNVp80GCFNVQHbWq5qZ1SubxNYteKor73GfF9kXg5sD1spzrHhrb3uwzU+fsn9+n+3bkPrhvl136u7DLq2twiWrpYcT5dV6sk8XyIOTCRUCeTZJdc7H1ZkAUGchB5uqNNcg84R8GCalHnJmKh/mIEUTyCaamaVxekyTUAZ5ypTDp2Jmm+MIHGXvR78Pb9r6osv13r8c7biRbxfs89X//ve++//xyf90jXw+fsv7377Ft+36t9efb2OZlrbO5advvOxSs1+f+/bi69N1efFrf1nqgrq89+tWFph9zKaBKZxAIYkqVkkTNgPzAyOd66xeib3mgYO7isJiPUovSy4/zdnn+/o0P6+dVjfVd7y+3++XsR6Xz3f+vJvndTy93K4jj3EMkve9Dk8t3pZOGScsXcNSUyZgQmko1jnD4EaQeeoEQHGn7e6pgjdvxzYiVOKUEVR5yRPN3OgVXm4DmtBElTJrwm311pt77l1H1SyOaftui80rjvJtM7HWVD/qqY9f8nrclrH/6Xr85ZfdDv3brf3nf/Xfjp9++/YPmzdeXnH5fvmZy9Kbv+j9l/txOX5bxs7G1e3lmmxbbjer7+/cbX0hLeSgVTnMzGBn/1WpARtModSromYwgcQhm5VVA2XNCpbHZ9Nqu5bx+fK++083/Ont6XprhmXU9v2O+wb7ZrXc8st3u65dInPeFR2WyrEdsc0lonWHdXgMq8IoN5A1RNSpVaL00aWYKe6uHZn0WsLx9nYgbBCTYeZaGkhD+dypaXWcUsCSS8bRLR285rG2rD5ryzHsrjgGstwjWl8t/yF36u0rOV/W8VzYff587U/X397/Y/77f/3y3/795eu3f/y1XrbrW/zD/ZdfWtSiX4PVhsW+9H1t/Ml7stcl1lbNtrtsidltvod6Rts7UsTkQM3HGJAAN1gySsTRM22vs2JoOacylYftcpmiJy/v8Pen1MuxeY5N81f+9J/98vqpz5efCS3jfX+///ar//p2+eV9/oxhdae4FWLOho7l2DOGEFM2zBeUK4WiYKgs0E+k/ewoDSZYcdwYXX63I2RJxJoN9FAr1N2PRJ5o8DkOYC5arsWV5bZHTRteasN5VNu1DKNCTQhpalaMDOPl+Xqt/PPb6q/8630s/+3//f/wr3//8/9y/8v3/DzCn/9x+y9frk/q9sa27vrLxDNyNWvE1RUeMCSs3UG+vxn/Vpf/aJd6rzjKD1My3DiGqsyCPkyTHGF3q0FRO2vIpcg5a+yVm+0ZR6CuVZ+21+U4XBqIiV7jk75d+/6TPX31y6/W3vJ6PD3h5dp/uutXfPvP9f7WPm39qQ6zOa5bSltxdaw19hrytuhkhERl2YPVgHmJ0x5wXMtqS03ZhT429WsmIkZw9jm8joJgSoQjDM3QbVocnXubE2Q6X9FmdmSzqGISuVjEGosppmrDxq/pKL68/cXs5+f5xrf793/9f325/8sv/7P+qX96/vQl/vd/iScbNM2l3j8f+Xm3zwq7LaNio//NDklph3s+d60tv8b47SXfr6fWZDG4Cqi02vwEAmqruiN3jqF5GPoy2VHkOGxsfQwrU2fDZ+5P21i2NXYV3ssx8z64KHzPlr/+qbdP7O9db3X5mz3ty4v/Y/Bl7n/lX399frrVn3C/ds7rlrXut8FjolORO6NlNz/o4qnzoCTRBEPSIL/WFB3mm9tx29Y/655L/NpdR1zksOGytWFtc7HhfjzUyN439jyM93lM5T5O/4RWs4EW8oWt4fTEaFV51P36VveGb8f/89//5b/+6+L7//QfT9d//Onz//n69PPnMUpvT/puv76+fIMPHpNf7+Gj1eFH4/hpb73MIqLVuozPX9RZy/ClNV5iNlPV/RjH3XBjFrLEURM2SdmKtqAWGzPnfc73dY6lgL4IK2utXLS4LSCJUfXr4TZGcGtoy+bLrNW3n1U/LfufdP/1bf52/XT/1PTE+nm+/T32t/X5bs/v9hJV7dhoIfnUjCF2rwalMc8u90y9NKcR7tThiFz0VrrP7elY84gwOO1ovS/2fi2stvc2wJjlWTGLNVmj6lBM+iyVfHpHu5xq/EpmTc6MZIwgQstP98ttzv/v+1+//ls9b+39p/3/8s8v/wehXW5/Z/3Ll79ucbPPSTdbjxj7OpPvVvefcl4Oe75Pg7KjrFvQ+7iGL9atwUaRB4u8l70Sg1Ya7OlXhoWCijGR26v2o835VLnC/bKWPe1by3R0Yklb0EOAAhYVtkOzxj5mpDfD08FPm/7k78+X/eW4/ef85as950u0S/G349vf2v3+2fD2S+asz5lPxWPafUZeZsnPYR66nUrVc6w4QMBi2fntabm113fkn/c/e2Vcl8Pm/WmV87XtnuSepnJIObfaSjJDQ4ZpMTN3X1oQM7UXagKlVGXc54LsXn4s43r869j+wyxua/vH9n960f9w3Pta/8t6/29fvrrbkz8N3pf31/h1HneNw8go99mpLrsyppgZOsLuR3v+jbkbzN/9Vqt7BKfNIxJGBn31djkS4z3rttn9vY9tcYT37FG5arvMalBTN7VSK7YjkEDFSS2dEAZMEzXhmZHD9mjPiT/nb8/9/hu//O34/Lqu9Zfl6TrbXzm/L3/HwXv7NFr0xoGM77JJzIeAQHKrOrFak6jq8bKPr3ff1rHVnNt6WbbQdWg3xDo1EuVyO0bNjTN1yEZYhUfz6NG6hbGDlpXH3Mc4cuccJjEutfbhNtxG/b0f//bpLf+Wz/zlS18+x1v1f/mf+/Kv/2Vr9sIt12/fv7zNecP77pMXu4R3w8rWjVHdii4Zi7hJR81vNrcorRXy9biuXbHILL1N+NhR30Ydm/a9575Mc65C7O2C6kQTLeEKQxAhRgIFpQNmp3CwTvGO5ADHgVHwe2rb/Wm0zvlP/W9f1m9/1ct/xqeMp/ZLj8/3+M/l2942ti+2NbvFHuTgwzZRQJ0MkZ2xyLR3LK/q22wX2Zttd3z62WO9R91aDNWctWPUdIjzyowoGsIj3C1UsQ/tNadGr7RZQdIbDNQ0Zrdju8zJMfTavq23ry/zJ3OHf93iP/99T/9n+6nI+xHvz3zV7T3ej/XwjjYRk54WZJTjMdFH0Jxwqk1U1kIw6t1qd/PhVM48tnnLcaQKT8iEIS+GFa3vrVjAkB1KOVdXl/oEE0hX2mOeTKKkAoWTCZJDrmmZuBdiHLior9MuNf47/eez7q/z8xhf5vK8/A8vny77/Fr7++WY96Udfh+sifVjhvlszFViyetG7cHnvH1r27Udr+9v/+gM/1rz3+b+pVOLjdblNIO6GVuTecGqlHuNXVNSJTRnnVocD7o1mrskHDHe73yPMeL1si1txl+XrPj2L9Kfn99fUvHW5+T27fj+9nLPy+HUUt4OtaOsotynASHJ0oIwiDwMd7ZY2JKWFn7x3dbbwP4652hzXlRSn/40bMmIk5a0w7JsZKuIDNNSWKY4UcMKZh9THB+M6Ek9kSf5Vzp7vaxxBwZqq+Vp43X6535bY1S94+0vWL8cn58qjvdIvl1tTEOtOKDUSSgJdsKEJUElvWvHPu7c/Ol4ff/bf4c/x/vGY3IdK3r13le3FinMegxZ1dAYOIoTkFeYyHN2joSjDGQZpDBFvqvm/OqJaz79bV1/fTr2sF9s/6K3L6/41ur1+6fX+9POdTozVH1UVD910KU8cELLIcxAIENbkwy1+LpZ3LzNScxdyxHKZCvQfDy3beWQ2Y44IqcnFqJFo9qsZR99iFNZofKTSoPEE1skpMeEx4n+QqU8jWMIm4dyYlT1OqIPR7Dz67Up3vx9uWxm20U5nfvFciu4nWx5kQU8BqgAYPYx2hG/SYshr/NpvEZFW7uv/lKqMS8YVVZW1ZgO8UQVp2oUEyBcKHKy0g1uZRiCpVuyWXYYcn3fm/HVj+9P9r7erzaWtlvFN82/35/f6nqEV1Y5EGUuOtLMkWIpWRCY0xRgQVZpqZbwmooQ7CiDvASFYS0lCCBjNHqkt9GbvFFI5mxj9DFtAtOqAjCSJhD1GCl+UMn8ETROiQwBJmCoOOcx51450XstrXQtt3lf6jsuGmRYk4Eyl/Ek5s/wloaH7pUPbaKTGp8vpq/r6/VtPTLsWhZlgSHdx14yKSupoDsbk0pHI/o5Go0qJavapJvAmSwzAFF1FDI92+Dx7lLb+nE8G1Dr93Zkfbr3NogaEyDpapCRRjqqyKTK8+TKoQRKkBhKmxuAOvsPnJi7C1Zu4ZWciXtZzWZsEKvliNzbkRysaSgr+kOH96E34qkZf6hN8TCb0IdE9eSpExTxmIlFcu6yg4Yxl/kUOLDv61ILnpBBHpSLTQ9tOlQPOcRjg5P5It5r7frU6tdL+RYx2LReXlubPbDtdr/3Sh2u0Qd8mNEtmjuh1JxK2WCd09hOnh14SRqQqvNI2oFmPsP4qdicsvvdmsWCRvTJMJTL/DQm+hCHnpNJJtqHikMTEJiUm6wSCSMdCqCBB12N2aMCE0urNBXz7jn6UZ6o8iwv2ge7rw+91EP/8pBZEyDtsQePCwHYhwgYSqoEU3nRSsb7Ovvx2i3Mln635dDIstnAJoSQkFigWA/LPTNiFe59/nzh/LosF3D5ery9xVLHLmXONFVbuJu0aVTyoIdFN7QcQVMy1TOzEnFqL5KlcyZowg0WYe59TGg/wL5L4p7N/TnKU24C24Aacbo+GFQm+jlMD9NDhXiKjU/lCUqyAjBdBZmpWkEwajrN9ylPcgSOVmUqlU7lU8F0bvAPx4nHKPc5OHTegIcq6UHo2I+5ovoQmDxUkg+JiaGMCj8s57yv9Yp8ahMmFVTusgDz1M4/pmrPHxKKB5eKHX/F7b88N4vvbcaRt5FlNXlzetfap1+yZo4d8x4jvZ253JGBMAbDS+c3JysqkQy5GcPoxTZyzqxphTmawlK2WdEnnW5Q6CECPZekCDl06uANOLXm4kdxAkHKlCrzLBxHAWhJS0/H4WNaTT9Fdh+K+vNy2eO7f2iGVA/i46GF+VA44gxPeIiN+NieR8j6/bacdC0x6ekzOZUHajmlwQnUibs93EMenLyJLJBUqg1uuK5v9ts+nttl72vciT2y6bA8woKnrCUir15qc0yOiXEMc2FdfQ1QqDznEVxgZlfCB9wo+LHFbZ+ZyNbwvEh+jH4osjxPe0daohKWD8mqwHwIz2HnLM8p17KPGM18SPvsvDWnKi9VmHKmkBSKgD24AYLnHJvD6S5HqmoO1RQkGugfyq6PpRfrA735gxHRQ1d7Uuv4sOERkOTAaeqhQlWZzvrWSTMkCub4nZqH1OdEKYEv0X/d9z991r8cEUSzrtxtpmtMZsmQzbG6te72hItKG+edx9uo21BrOj+z9qhCTpM8qyyKlcfuOMzMnMYG3LNqJNChrFZUmXkxaUkAeS7XGaXPSvDxvfKHMOvjqkA/VKLCaa4NnHwf7BEpQDq0SstoZFOsSlYdqF3jXUhGkF08qTR8yN4NxI80UI/0fJ76x5jLmSxO4W2ZCqxSntoYLzhAlOn0lAXP+WX/0GWR0FrHSOrF7zfFfncpD4aE8nb0AEI1bdybjsi9NlPa3d0tamFdVyiVh99vx0AaGe7WDU1wK4tSKTM8uVDUUGUdnNtQGtwmXDXTCwygJVAGis4PReEj8T0iwflNn5Or5wmshxrlob8ysWQqPHRPJ/4SxZjh2U0+S7rvs2rHVv5K39np/HAzeIhNzxwNnXa/H1Lfj6Gdh+i3+JGif8xdgNCpGSt5MXAqIIynjSlpplPUDUCPcU448qobs467//a0rBkRlQ7ktkfdYDKErUZQw7TXGGUGX4ydbPI2Ph0xDt4ntsJ+gNFP4z/kMLguPDNzjAzIRSPRsyGip45Z2avEgxZnzW+ws0wrPHw3HovwoTd5GBk9UqkeIw+W5xI4cWZkylCL5WJlqrHlsWeVMhNoh8eEw8PMTil8nhn5QwP5ozBiSQbWIz5SH3LPx97wQxusxyQsLMUkYSZa0UDyLL1wDnM+aisj1qfX7f26TL/f533u/yNe3uLoMzXJ0a0N6SjbTjrfluhhy1xHtinWXq0dMtFLC3qg5UB5DdMEaQGjB9wqw2ey5CP63jhuxaOsys2BTEkssg1Lsk5bm4/L/xgCeyz4QzANPIpVPRYIH+MzKtFgBU+zCpXzcE3MEqcWsrrxBfkchqWPCthgG8V8GPvyYyjwvBTA4xae7cGp+KofDdvZYJ0rX+f7JoCjgPnYkEefcYZR0zlYfs4IiLv3z7ft/k68/L3e3vfvy/OnLaDKVgCIvsg7WGV1aKQKnOBmMY2OwZnTZoaVLfKOoDXBRB2Wb12zjZwzQNtDWYBlUUvX3O0+6piBJYKbVfl0LRMKOx9hKT3i/0eo/Vj2j7P5EYceNQw+lKAyPnSKmZpzqg7EzEvd20DvFqvGwtvOcTzvqRk7e4adZotmH7LqM75VnQnghAAeuUBn2NePmPQALgpIaJ7E1zn+8vCrOOOmmdHO/SyeJd6M2rcl37P9si1l3+5//bMzWu6ZJ74whwzstO69QmMaZ8VRGll0M083dSZqK6DoOG1/oGTfoUIlNYFSmOhCTChodGOm5Tngbp4dVKbqIeI43a8+Yu8Zas9yCI/1OSd8zmBtOKXFdcqop8WE5KfUOmMe65wxVt/YkNVuX3m79Tmi9W35dMdadFP1c9CEMkKUn9HlYQD1GPUq6WMukw/h3aN504/EoHp4jABgIU81rvSj/fNzdIrKsR7bNtq3/e2/tJfjL3/9/P7p8hLMI46WRTNNH4eplCAdcKmVIFWWUBqYULqZs4HrAKHZkHCi01dYMpCgyjSSjsWOKltcnbYb2M0h8zS45qkBe/ju/ajK8TG6B+IUyP8I0ADLft8mP9s0E5g+5WUWzoWtAVoPxfctqBqsO1qlWOg6qGOqqeg4we4f04G/46M6nRMec4l8TOScN4+ncpOAijWZUA6OeXY4FIsoh7zcAFa6MxdkzDyOadqwzxj+gpev7be2IUocmC2BNErNs/IouCoET9CKTHo5y6RzIkYHS5bnoxlmkItgsDtrTW2HbaxMAd4zwYxsgk93sgU2s5KdraXzR7n9+x7wo6p5ILofQxjgDwsJPoxSaMWWxtHAbt6DWc3HyhlwH2HvMXaAMTebmtd+s7BYrIPtMWPwiGs/jHDO4Rv93go8OmeB9lGanTmgjEyOg3taOOhOJHezktcEMavGRdNpTbRBW6FLmfPSp102KwtU99qt0lSX6saeRpkV2zA/zsmX4GmYBAgYwKRmVpaGdJRmVkGJUFwUCwpRB5ljg1pHRdYGVs6qsEf96ToHPfToUz5GO398148+EvgYljzH+B8cyjm3dzpITLkMilxCUeTwykgf5BtHXo6e1XevO3zWOtS62TRvMAN/+JBAwOmE/nvKPSMSH+2vHvfjR0IWP2Z3AkxT2t4FO7ZRvGfN5kUrf6I91wjHq9dr31/aHl9/pqou0vwWKFhbvfuhXjJmCgsA1aEHoZMTSCvxMQ8qZUJIAMzs6Zdz/qwxOzRd7o4Cc+tjvyD3HlFxeiU4zUnH1CmJ/Bik+v0S/GHJP7ok/V6Q/16OCH+wTNS0TX5H8Bwd4SSOlfcuunprqPCItfn+5NVxAK0ydGJrJ4V4TnFRiSypSsWSHhOPjy95joWckn3qnOg60apMIsExFaBTF1mfEntd/FdriRo8pL099UX117j/MnaLXEeM5ZjVRtnULjvmGfrSUY1wuNENLekwP7GaU8crTiHFyQLlRdGz8xAmD49Zs1wN6veae8qMRvhefm7W2U9p4vfSk3h0/fpojvFRkf5YgscFeaTps7omUGYSPT2OiFFk+vMWscccOHo7Oo4m8HAcqMoqVaLMTjd20mAn8JzCcdY9Utmj7zhnCT+6Aj6OPs4ErUQO2++tULGUXbbry+LeDzzpt3HZfm33b9uNxxz/UDWwtnbp9R3f6tdI35nxhrlhmpbOZ2NrF4VXUZYwFV1Unrg9yHIWqh69tRlZZlUcE7PqNmbmBClnAc7YQUclxpHSaIhCJ8oVGNScUuY59vFxuj+U9MRHHv6oOwH8XglCOIXH/vFeSsHSsYMyuJpNMeNS3u497i1Ve+yHdu4py45oZq2f6vGzwxBBA/NM7I83E+2BcpxuFY+v/gD8JJ1ICjPtIHTNsGPulWgeRzsWf/2s+bS312O7jHnpfvF+w2v8QvsX5ad1ZY+46tI5ok3qTSLloRNsQqbVdJ2v950enPaYKTUSJ/sPK8ErqUk/0g7Jskd2Y5VqssaFWdnzaBrFsanDUcEd1mfNYvto/B8GET/oQf0IS/wIAfyAix/hWR9jJOpAlGVxl83G6kaUvILH5bT6i9WWrrPzAE5n+cqzhrSz8aOd/TFpYJy9GFn2GLcDUB+9uOXDztnKvZ7MTL74+vxiP1uP9y9/Pz7d7z/5923lu4UFeL/wcqyaqqGrP41Lt5eKxYZxMrTL5lgwgtmaeclxUJXMUUrlMB7WjH7qRXKq0pmMo2yWrNCrGjrZCj7Bmlu89XUuYdpDp6McjiqPfIAUCaR+9zk8m1B94DQfcPRHEPhDLNLHaGWdCVmVGOKwsLMCLEGm4VNKTNikTVkCOD11IZy2vmQZPxxyzlE6/KBmzCTVWe9DJwx8tmG00gJd7Hgxe7bF/dn4BfVl3GNe0OztOefP9/k+8j1sPfrnaj2M3p/mHbXF3LIm4DH8qMHtbbFcjRKPiLImC0GNu5NVxoSNlHYDgDTOpiLgaTZIQI1yRFMPWaYRAjv7NjmUwExLGhvZEMfpBFgegGhK4MeYyx/C/aMY/SgOf6TqjyD0GEvV6Zo1kyWVzVHMmmSGPmAPO7tBe8xTFgg7Pfs/sCaABpiqpECdUHnV4xN7PZBYldGEi/DF8xf0z/kp+Kewv2B/OY487q/z/nqrY2dv7fqsf7/gmPqW9y+7T6f2bau3bNUvufYxeUNcx3I7cj0G9j6wlGG3VOQ0jKNqd1YsVCPPjgCU0xShQndr7tUor2YMo3FgaIg0FNJsGtNQbrWyJjgNWjSbWiEosaYJdZqs6cMZk78f9x8rrt87pY8CCagPwOLBAJ4Iv85ImXCdsE4azun/+p0meXRY5ziQ/IxyUz5BlJmJlfKZQKHObqShVvLZ7Auun+bPS/6JcxXm+9u3v/37r2PbAjct43rZr4ze/rz9+Z/qZ+b9unzrHdpyx+0V3540PfbVbTf0+HZvpQJSy7ihKsPUHQtdfU30SYvV2+rWPOx8p9MGoarkrJ7TcuRRuTNLW8uJkZlBR/U5Z+U0y1plNi91vO/7vM258EAaJzFhmawTy+KZVlj4HQbSj6T7SIN/QOd/DxdifQDEcIEPgvlBpaAgB0znmPlHgqceuJmdoA+QxXIKVT7oMz0FN8Ma+FT8qZ7W+tT5pxjPx6xfX9/1L/++v4/XbUl9eiI/P9WL72y/fWrjQnzD5V9rr0n5c1zdFvj3qdFQzbxbZu0eXOT0z70sAt6zPOcT3BAslJSsNNuNsyr33eZukWoyAxJj5sg6K2OicV6YLWzqrI1zCCNbsR0tow9bZMyax5ies7VpIdjpDXPG/AdNYo8Vf1Q7v6/+71n6B3KP39PyYw9OhxIA+PELQlXnBXhcr7P/K5jOe/SgB5TIATVpQT7ZfIJf0df6subPbXwaw9727fXXv9//etTfO/HTyzL/bNv48v8ZL3+vtfwlL5bb+PK3ev7m+p493pfYwM+HLWUKRHCQjxngir7eakQ9d+4eRkqpA7fpc/isCY7I9CHPaWNPDXOmd0ZY2JChRZAhKE+zEx/GWic53JFm2plpY+UlCVXMaeNm03JYgUw4kKcRxHkQ+WHQ96Bp/hhz9BGOfrA2j9r84XigP/z80S3wA6FUnWztA6IET0TvfIFRySpTmaeC+sT5mVhxbfwL8k+1X+9f5+3r9/319vY1x/vTkV9+afPp+e/2y/+v/8N/xKdt4k/7/ed/0eett3XrdftHJp4uv/ZtgNUQh29F1UJBs8+MCTAgbdje3o7L4ZnBfWEs7uR6siRFyciqZnPtkkPycb43eRD51jusA2GoIe0AS+miwWlKsMBRVkY2bwt7zl7BiVJNlYqin93fedLzZGE+KMoPmPSBAH1gd/q9Y+bD6wOn48F5OUoPMOEhiUCJ/ihvcVLn5xeQVYXkM61cskXhdv0Me0rDzefNj+/fb9++br/VuPVrLeHbp0+3S/9rff5t+/nXny5px+f5/Z//Wj+N9+Aal31s+zv463wPewuMxcq27w12u9/4UgWfFXW+vR7b4QdGleTl3RI+hpmsZbnEcvLxMgmL03zAUus0ocml4fleNdMusl5wpXyMNqedddpZZ3MOZzcrcKQ4x+RiNguNMGIGkDi1BT+i/v/24/R/efzxDwRTwCmjOmUheFio48eW1EPyTJwC9NMY6vTn/UGhGBAGIqSe6Jn7/vZXzNex349vS37/mePTRfqH59frp9d2/T7X1xXbvHxqt3/+7bXy/crdsI9Rt8NiXjD8e+0+3//83FvjpV1f7NMa7he/e4ePTTU8q5wRVn4L3xsVWCyqkPuomAhmIxQ2WwioFTK1U2tjTjYa/GoY5/SxYmQdIqZAFl3leSAOkg2Hcz1VbDySY8R0E0Qr88mHJbr4x5U/cbDHOv/ee/1IzA/9CPVgrx7N2zlyi9QHU6KyM+Cf2oRzdvFR4sLS+rCl3GVS34D7PvJ468f7fM8rrs3aen3vT19tvbfr26XVtff5/vPt/c/fX19+9e3++n3/en9K34/jDUy2b/tLe/7nJ/X1c63rttyWNWu2Qh5tRovZc0sdKJkYYHHZkqaD1lZWUwQxsminpJdZyJFKgcrigB2u6fcLcB1mcpxvuVBeo2E6ypt1NWc74vq2eDy/x7Ficd3Rf8Wya9shs9ltlpfyNCrD75n1DB36OO6PO3CKaR946UkQfnRqFHG+7n4aDwmos5iSFevDwbZOb5aHOO58awKmGUBUWk3Od/ptXbQ+tdvL89+XpxFdxxKuS7//ebt/3r7z8t0017fnt3+9/JttWX/9vD29X3+2zv+x7HMseWWlkNxlQrbk2nJyT85LNHkr43R5QeEtGxHH8Go2p7cB+hRamVGoqZyVPisOBUWv1qgV7Cj4IfgEveIEMMpLVllzqqy6SR5AHpaKyR05bE9k2SymoQInNnf2UqQ+bLPwA4w+L8ODHcejbf5BTH1ckbOLOOma+oBIz31SPRA0lrFOixU8NHgUkFZg2izfEEfvE/G8+fo3xK+zF+Ki+/Ocl02X93vvbzNHZroK87dRr8vt1l7++ad/+Md/frnQ9qd96LXKDzVA6/tzv3m1tdaw5KGc7KeWJcvAogXpnF6avpQur6XAsTBNeT5d4aIDRkR72NkXEFWaBWSwzFKV3CZGoqwQScvibk7XvrTKYehmF00/5sEi4PSPN5DOUoc/is6T/+Pvdc4PwuZRQP5eFX3I1h7p+UHd80QaHg4NFOzsX08fKhQLPB/gOD/VLphNd4slL+smpLQDUf4ZRzuOto82tmXoWvuI+7H+yrytb0/4/o+XP63/veLTlza/3P+l57yt+3tDRMRoBa312qpwRAVzVo1ZNlOJU7FOAAiVZ/c0jlKPbnvpaHOegmA8dAnmpNGqKlV1SHOer7OcLtmFVtVRZDnY4Q0B0oy7U7QDFKyUrY7Z1KO62VSlVGKmUJJYD5z9Byfzsbx8rP7ZIv9ATn8wBGcP9rEbj1h/dhM6R2DOWrU+mrJ6XBmCQpmm291j6a2z7Njn0WL7c8s53I7LMda73eG/+e2uw2N5/vxPn37+x+fll3779Xv8ur//ts79n/fPn27L+Prky5t+3rXmBs7Vhi582S7ObniThRRZGie6ZVA0HGnkPOw9vK0Y3bbmMBkSyKpTH+Csh5iQ1VxcYH8Uv5LuFnY+BMCUzbkec5WOgRuRaS7UIUtVVpZOS5GSlZBCFuCP8/8h/rOPUPPYlfPMf5A0P6KQfmTpHzt1ihYguR5vLZnqTNjiR7X0CG0GNJHTt0AhGBp9bpp3n/x+ia3dDuztjquui/30/Kf16dPuT/fC7f0tt+1S96fB9bfP69+XPa7DZ2W7uGy519yiP1PheTyr7BDSvSKGxvxxxGJsVl4qa2H0e2UrCAgamqFJkD1M0WBZNeWJ0y5YdhYlevgqTiMbLAAZ4ZE21Tluq9mz1ev58AnmkaqZo9BV0aaacPyofD7oGX28VfIo/n8HIB4ahQc/91CX/vh9+1CWnLCDHgnZUm4nyoA8G7GzFhKNwTrJ4dHQmoJ82iT6uCrHWC75Oa5Pny+6tvScY9j4G+Xc7pdXZ7vcsONbn6NFeGGh5c334OHZK2o7DpLblGbOBoQbhCoqCQJRaIbsMdm2YBMdKFMaT9UgwYSf6fLEynQKryfCYJTZKUKuUkHD5mSyhkamhmi79d1WKjU3jDk4VgJ1+s49BDd/iPmPddWDifnhPPtBDD+w+/pjvXquJR47c26YfaTyKRY8kV5mJyCNDwjpwXJFeWQsPXsgsjwj5oua7tflboumYioPvb+HRlRG0uZ1DM7De++x7HXRtFo8215H1sAt+a4VW24bLr07bc4uefcInK+SlGCABZY7WrVZPNaD17R+WBPLWI1gAP54Gw8KS+sp+XmOBPC0JVIy5aWqKlUN8kg/slsNTbMpcw61rHlMlPfo4HaGN0IG2kNucjK9Zw/wowJ6CFX0YYAKUaaHZlnAA/p5pPIPvEInvgwCJSt46mElBvtI5fbY66m6N3mOgC6kmcu4zrLj2Gtukcc6qgsHdDBlZjRvHDho8zlqxN4xIkuqrTCHLUAB1kAQzcdZvjCmQo8JsvMCh7okvisus6VxTpQkF135eDW4OM+XLUrpWSd6lToniKTSaWtsp3epUQ0N7GVLOBah0Wiw9dYwcXNmORWY5m7mRj68ME9dH3QO7n7U6mctL8A++i0+RCTnz6cH5CME4SxDoQd650R++Lyej3ScZNj55R6adxmcBeUi0JdJy7pn3jmAYpR1GXbbydFqDzM1YQU0fJPU5XQB86Cx10nzpzdTIHfU2KuFk2HlZ4lg5ZYnD4rA3skDc0yhkiUk6rR4qoIg5OMpshJOeQRM5mmU0czMzM9HuR3nRDgkm/RlQpIfmlaDNleY6EbmbqNsqHdaUCZmnSXjR74911m/D6+A5IkhfLgV88f1QALGKv7ByPgDA7Uf+4bHs3xQmYEo6IMBIo1wK0Rm1eiR0w7fa5aJIbgOV4KRljJzhE9OTKsZ74qL2CKPHCq/uMJtqp02exc0QHdEIk/+XshpOpwTlqxkDLHStMcYPu1c/3Kgyoz+Qw9D0sybhdOM5z/rjEwnhnB+6FTJCzR6a1UyAtNRg26WR0+UanIkJ9AhMqX6MQ70YP4eCfKhjqoPDA2/FzwfEsZT2486zTHskTMe6AQEnFLnD9OGj+k7O70VSzKdO0GiWINpFukos1SPKcwJh0+Yi+BBVSayD4UBdlQbVMO+H+sN051tRzu6709UoTDKfBLM1CgPYsoyDRlMohDlA0y7RPTFLFyB9DO7Qo+nG0zSORD8MVVk0unjxwcZAFF8iN2kWlIx4TaVezEyuPRhUzjI9HPTvMo4mcZTR/+YCXpAmvrIwB8d8EeVdKpRHvrAD86Yjw3hByxxNtZnsyCjTu74tLF6WIt+ZIIzpwCQmwoJyZJVhFFhNEt4umDDTGIcxgNzxGGtzYGkfNnz9rpnP6AW5N5qW7vmVCCtzaKNUpLpHIaiJYIlpeLZluqzFTG6Zqdc8h/k4BkETu39w6MfVajEh3iJH3f4fMn68R3bHJaHY+5Pw/voreW7tszbnqcLeBU8zZFUuspdPxTID+Hbj3mJPyB0PzhJfuBzj1j+6BB+VKz4QaPJHuXp+b40q1hFsw/w+tF22PlldM4p2KkkdE+Fh8rEMcrGcI2VaGRaMHnVNvKwtpb6Za632Wd0NGmOveQmqKo4YK1MGUjTDCkwzM4LGAsiy6myROKYQta5Lo/6+lGNmj6A9VP32z7wxVMe+NHxTxQAxmlurzYTiOl28cH5XvM4iItE0ANry25VfPgpnMf541g/lCAfrPyZjn+s7Q9A6Eer8GDFfseR+EHp6MfPp9oWsscvz370PDOCsQwyK9ANNk2DWSjRqAYsdA9UzJtbkk8LiNZqYhZb+FibMIXK0mYzYZAfZUcVKDNTo4LJ9FbpKCvR4p6D6ZXqmuVMNjwQGuikro3AaUpwWiKfVMcH/8cTZbCsU2HiNZupR2uXUGtzWmWfr13HGHW4AnQ0ZETYEungaTt+8lwnjPM4yx8l+x/Ov/BBF+gPv/tIpR8Zgr+n8vOe8GHdBpzH4pHMyRO5rg9fB+NHJ64iZySyMuFyBxqG+6g0n0L6KJSnxeY47NjlVf0u+pJPfW1j2lHVTAUMVlJix2JyZQ1GIpRe8orcwX60RFMbFe2kovzH9N95NlWmMpYJeDwu9dDq/15vkBTb1OXQOGo00wSwONsFU3rbj++bydijusojVKzDUQ8r4nNSC/gAmPUBzn2MCfwxE5/HFr/vlfRDQPcgjH8HUHk6aBNpDzwCdVqwn23FCVbQRaOoOndHrFQF0zzTEmk2Ww0vpFsD/N5lUm6lgbQJbv0wi+Ht8nNb7sf1Hcplt6Fmylh3s+LMYhGj5aSMiqWk2prXzGpaApfJyA7A6sy9pxcqylCmKp4kNoDTrPNkcSGgwFNXHyvauus2x+ZHPV0/3WmH9tscnye02oBaLE5oTpRMZR+aywIeYpOPo/4HPPRDrMgf55+/r/7DHeBMA78f/gdJyY+OAmd+r1NVQQImWdU5o/EQplfJBGYZaN2MbocnhNMfVq5Y94too2+V823vm3lfXq9TelW+T2/zi6NN+14GmpWtFWrcrPLobln2QARja8OE5r3m0w3e08Kap8zEwEJlzRzEfHQDTpz42ZTVaZf1IPxwwjBCH1qnp7fbGse4vdyBY7/NuzVU+DRtYPBiiqwZOkIPv+3CRxH6sfh/AJwfl+B3OuAPqeBH/v2YqvvxsvmpqD9fQaQMD7XtI3x+gE4fk69lJM82W0WrZtWbwg00gpreOGdVTUFo2Xm93meh2KtBz1t7t+mtvN9wxJb90g9ljX0SKp/T4yhwRVXl2b4HzbQ9TW8Lm0xHHscxF7ozJi0b5SpqunS66v5QcMJkDgszBMxhRnNWyktWxzIRtqgvFfP2ds/fflvvQq1wqDmWILzl6EqH7H8d8f83Af4DCn2QYPrDX/4xxocHEnT+2UM8y9+haT2ikHgO2T1eP6fAOjfgVEMXmZKg6fnAbGYcwuGISgIHaNnArqZ9TVvm2vzvWiL4pccnK1ezynC0w+etf9+3eU1fgbzDgaW3dgijOlUcYc59QW5bBogni3lT3sfm4Mre5nJYzE628m5EfsD1JHjOa5/vapyVqhshL+OhNzv2yov/5ThKb7ftXs/ZzNrmfbmsewfniJqN1U6zc/whif6Q5X986IdG8aPw1B8kK/rYtMeF4B928pFEpAcdqY8O7mMDPmqjx+2ghCpkaoCAHGnCySGcSOtOl2IZsqO25GAsvebeWvWaI3y4v6tLmc7xvBy93r++rjUXWM0vp5mc4PIsMQZA3miWb2stU76sNdFtSHuhOBboaTRMrxZ0mRfBSqs8H18tSYUqHoksoR2GaDX34FjVcuzv+/b9fZt84nNvnX61JZpRY66V3c655hPd04+F/jj2v5c5H5HmA5d+tMf6+Cu//72PvPT755FOKvKEpx/9BAki+ZgTtgc/QwGVmKn8/5P1dz2WHEmWIHiOiKjZve7BIJkfVTONnt0F9mX//98Z7C56gRlsd1VnkhHufs1MReTsg14PsmqZQGYy6AwEzNRUVc4nHMDK50lGWlzq9OwNFmXinO/H+/fkOem33Ovbvhd8RbAFHsHcLKBb9X85XjP23/jv385vSxk7XmdcLY/rHINmO8N7eeXz/OKX3bep/RLyqHnmOSpGbzI7OKWq7qba9Fn5LKw8Csc+brCyPbDFGYqv+dv/+fvxUT4ptgV2ww1OoHowDU/I4QckLf1pT//zR/DHg9Yfn8Kfzmv+6Z0tyG0dB+s0fq76zxvSuoWSTWt+spkyQetcK3jRomTpKpZ7AlBrJO/s+wXMOH6j/7PMd3wJwP8SrRGKbd43Gz/FNvr07bf6q1OzYv/gFrjEMqNXteCMV0YFNu1tg4MD7fc8p8/imPu2BbY8tvM9D83v1tgjvGIuxZDRvJ2LVbdA3DiGvZyv18GjxkT3t+/vH98uHWa5k+EDrwEfSoW1m/xzRfJJkvzn5/3n9f/p1fhxM3ou5fXz+rOe9Me/pCdCAXyyNnyKIG0R9faZj/LH3oZGwyB6w4uAy9FUodtWBgG6gT2Kf4v9tj9ebt9eYo7L5T5ldXbVfLzhHO+H3d+vUI6/P/72LuY97ymfYB0TiJdRFzLO7Pp69HhYm31wr+josvMY7LhZxN7zPqdqZprxTprZCm2KkHldUBf75JvyurLodr9/nG+P9+9Sm74cwzvqdcftpe4WuBzN+uykWsAyP8e7P20h+HyAz9vW8x39R3jiPx0Y67f88Wb555/rlYVDyNC+3p5xTcILmWh1Q+0komSyDLajl2o94MMhZ1le2A/sx3jhPnah32Wn4wT7wTiGBa+6T795x/n9d7y/f73+5W1oADU/QmcCkRUBKSbtwzBw3iZGbz7GdR/tPbu3TOMjdvP9ftjLbGS2rAd7tHZPaWLBwecs6FL4eLm1fz9f/i2//ds89o6Xx27DT4+0aysSp9UVXWv67M/dF58Pej2ZH7uKPj+OzxvoH9b1H7ei52P/D9sQ/tMbWCTMoo3X8LGIERHrWrTAeFGgl9gQXM42FarYHhrbxMn+aLyXSjnqHVfM7ZZ86TF805CiiJkq80c2wa/7y0/fXn86vtzielxv5VmPm33pOGC34rY8dM2NOKESZ718Z5s9zN46vHczKdr3cwuiyQtKTV6XVW8I5x4iofnatfc0Pe5v3643M8vr53fdHm4/jVPjuA6/0MpbarSIFWiEp5Bz0b0/Ht4na/jjwvPHFPAcGfhDtP589n9sQ3+6Sf34mc/J+k8tZMSP2RLdrdUjJ3mJzQKLnKxEKdh7ExiZH3POLTPk6Tx31bgkeV5j5jYv7yybNnK3fSM22f5xiy8hM6nzdKa8uiN5PkYRtvXdsG1BpJ3iLHRx2s283adZAi72ZTZkltqVXj7LklXNceWDOW7a6qYjvt95/A9tpz1+//Xh+7nX/vM3/PqoL6J7P3hiL4WtctwnVib7HKd+WAF+rGN+ahI/V/QPv9iPa9AfO5DWe/kPh/gnkEfwibAaYct6zR9AH1sreX55CiSm+WV1MYuym+MeiVk83pXvUdvQbe4m5aj0nJo+rhG627Dxxe2VdtN+GJp1vMx8P5F5RF6j0TYswiILfcpFyLsRRmyStRKXz7Ic8p80RqMrr+PRHypzY+2YMSH5SauEdpZ1fM2ttnhkenfl1751v9zvOvPXQ1/y5uPVNnoAd9MLgGYTxcWafN7G8UPy9seH8J/+4o/d5vO4+GPD/+Mg5tqi1tT5fJmff2NLvG5c6cLkYnaeTj2tIC5Px4y+0BjyW8pa51GTF2UO577Fy2Y+yNFj0/C4DciXRUKVuzFarePj7Qhdr3ufalV3tb10xJBh6cP7moYqqNyhnfNlFDa0dOW80j7KJ2820jvdtW/pe09a43Xj4L33/eOWHaclEvPfyDd//3Lxff+X97sO+9fJl/jL8bId4+RX0z0R6lILZv18+k/jy4995f/vLvTHOv9xLf0DmPg8K/TjX/3xedhz73mmKGn9Gs1ghH8e7gJUNLWZmg2RGXWxRI0dtjX68tlHbTF4d9yu27heYpLU1rAAuqZ0ajW/lE2z/giXHcBk/eXlxL1vE+Mtb6wZ6GCVJgG0Z6agtvBri1KMaWy6eGMO1JWOcLzwtteNsTXUzKkrz57lUXY0pyoe8/q365+Y/ZP9C+7xjxfqtlls2+vDz9rmOWahLMVaWT/+uUc8qck/TVH6gTT/sZN8Tld/fCV/sDL/8TN5rvYfpznxKSd7ahn1dIuJkLocDSOIclBpPZGF9s3iDnHGY+Z3nrPsVQNu2kpbI8Y8p6V1CrUua21yyXNeKeE8cmRd8/x6hkC+oCBLRlLtCYg9bNjmIGlGNDKjpnuGmbl3jLyNSUln8hA0HubTkXw42qUr/UqLygf/Yaf6+/1jH5fXLzh/9XqZr+ON52k49yhnWI6SA04sLqS0OtCeN6LPV/EJU//Zo/TjePgPd6UflM76tU98+s/AxJMd/vGWn+oVglQVK8kWrGGtJiaqK801NoPB5qU3Pz+UW4XaTo9s9jHobp2Rhe6udZ3oMitt5CTHZWwYaxz7fjsfdpg9ep+VISNoEXppt+Hi1jPm9L7MikRpHB00RGuz1f7WFKrYF5RtqkgV7bDz0qEBHz6vfOkeZx81P/Cet7t+/Q7F1NtW191xqxA2dLDg3erlxVnZRotctx/7O/kfH+Kf9qEfAPV/Oho+NUL/GVJaYWR/hCDaCusgVkYNaiXdttiQFSoZvYdFoPLk2de7n2oMbbIbzFKsVOZE10rTAp2y4uiwGoO3DeeXlyOi+p3zffD2S+V7GTAyEV8E4+7QHhtsHDnm4T3Z2WL5fm2LtupGdTXL4GqXnNghloomY/erxdW3D8tzk3/b4rr32e/7P9Mete0+fqljwD94K2hRfWdV5XRNoFZwBtUtrjLVz62Df4BA+DHaPuH+T2zo81E/P5Q/jbUC/pB5feosnsMXsAKbFjEmwlF0cNVYX8VLwHAftxJa+Xb9vn887HzN3SoUKMuKTWSQ3mHNZ/rLGlGdtrl2m/9wXq4Pwz+y/y/7GD3Tx+EteDgTYTr1flj3Vp0fOhoKM7+J3sinqbzQzcaKmZJcNHMLlrXEztYEHNjq+xW/efz+cpxn3kp1UpkH6+S4Gs2Eiwb29E6LdlfaU9HZi3ruFRjMH5vGH8tfn8v8T5T8J/v1n7ep5zfx/FR+aCaeHNuiKp+z+I8a0EVRyroqx3DuFWTmb/mw411HtN3PLXy0WcUgJa+oIVq7VwFVSrKKNITwyuy3G9TV2+9VV5ftitvAAOAx5zznlR/W2YH28DEImgF0jqWcaxaMkJGl7ta1NmaTkbDRsLJW9W7YUse099DbNsotkdV8sOrNlj6GumqYbTW2aWMS3OTl0caiz6WgWvmUWD3y+FTsrucqfKIW9h+f9OeNlX/IFBfCqT9tR5/zAfkU6X5+KFKLQlNsZDG5cdxgG8B3XOfHb18OjXx9ew3bfPByB3Z1oVGTUINJsdkkOzijkkkZ93HG5tvLedzP/v6+6+YcmOcj9riOO7ibwyDg8t33UPRQYiYpNFrW2SsCgKuS4/lQ1pbd7V4WGazRchl5yQF/8TY4s+MhXBk9I5KepTq7L1MaZXSA1tbYDGFUueQL8GYv+eZqe/6xVfyx3z//5/OXPmmFH7A2//zzfwxyP1T18mcZMYqYi9kztc1M7NuwW5qX5/f3f3p+2Plrjg0vW4yEnXBVmTdEeqNZeoZVkhqSulEzz4FuOzqux/ZN1zFxHyPwyK6PQPQlul721t5lQG8ftVU72jYzqlVLoahPpk8ADWsHqIYk5gqgLKG8pl2d6LGBuNsNzrDDbqEv+bjTPN47ukYuFYtnb/CdEQBkFSxHP2thDb1yWxaQrD/Qoj9hEuuB/wCCFgnMz7XO50eDBYLaCtsCTZ9n9eLMWPA2MWBXVhW1cWvejee3vJjtvW9xf79vcWOMQ4EQt7lZRa5S5/hjMO9SV1BuwK3TzjnGOIedd/ze/Nfhry89BuZmsf/9TQRr0/FT99YwBFQotPN8aVlblk24O/Hs5kYtRYc+WcJGmcGWDfpK24f2L+6I8Rq3163uqyS5bnPborWnGS0Xq5AGwqydwla6FTwBoYCErXnVWFhdsE9i8cez/4+fA//8Kz+Aa65z/U9zmdSAPXFpLB+Tm0UmL+aUdsbo7bDzHI/52wePGvj5ccftq3M7dW+0MQfcmg12DcDiU87WHgwaBZsE7cbbX173bYsP/fPbfP9X+zq83fjRHY/Lwd5iDj+oqXkLWngDE1NHCe3EMxLpU8OpZ9zs8jUYTfQoYxvSVLeMe90qDPayo175eE0/pmUN+Ys2Xp5VVyitS1dTlxNORgMt2+FO2jIjiQYKbktZpUY1Pm//f8bc9AnS/ae38oen8nkNkhq2soTNyQAoYw7KwU62zKgXM2I7/nl+v96/b+dPc9j+VWN/75fMW9qxew3zJeKqYQJaRshpRpEmqyYLfVnTH46N2+C5fdfj71/qTn8cV4Vq9IyH8LabrGjnlsOm1gZMpzZbRVjOWlYBhDEcpFpIeItarTcwmWEczoQONXPedN2sX7R1j8mtY5/QGY4k27wmlVY1VIMNyZtd1h7uMG9gqflZsh8gHT9dTH/+S39e/s9Hbn+CGBbzRqKNHMCwlZps7GYK1zpiruZlwYG9tustPx5vv823G+2lXvrrS263h3YbPgJBuGRUhfvCBRfEXc9dwXotHzvC4MeFiCvtfcfHP+ft175nta6QXN6YLtyKbd0zCQTcMGiu4TXYTtDM2vVZw/KUaoRYRC1jdKP6uvBm883rAnc9DDQfDfcaGwbk5iAqI2AtER0qVRV7WmREuSU0kWyZzNY9kcLT7SX2j/P0T+zMpzb0x0fAp1jreXkVSaOCHI1NHhiioVRTvCwo1YSO2GzrL7yP63b9/v4/P/5x3fOX+aV++mq2fd/EFrf3Gz/2TM82esJa7rICJSW6uqDZq3QKnTkqjtx21HG9J9+ua2yANc8rtg3ZSdMGXbrZnc9G+u6gnB1moXA5a7Tw5OGbMPMAoVYWq7qQjzrfvmf+DrvG7sH9hrh1b31NF2JhSkVtnh2lQJs1rJO6uq5xYRbPwOWZRqkIc4bLXAa4lkuATyPrD4j0EzL6A/LBp3/j2UVioAthjEUCdHD9dlfzkLeCOHGlH2Fj+K1Q3/T7+f59HL9oc+1l442jgYq89yPsGJokCvtR+ei6VmeGpJZjdT2wZTBousW2mY/XLxc+3s74/QvuI/btPMIj9sI94KgPZspbznBXjHo2UJT6UVSyuholTpciq2Y/+bunOLmK3fuEh0Vyz97O8rwUqJHmNcCeAYVNuBCo4HSfbbmzTii9esw29M4uU9mK2fZm4POKZ8/7vz7x50/v5I+N/k+70OelSXB4LIeMqFrAf/JqnNxN9Cyeudlt3GfYd8zf5qPe45fiv29+346+PmL09PH6odl6q7zahcOuh/XJzyZsIIIGyShjQyp1e+7SvXG8WoW9fTt/0esNhq7Y5wjetobZ68Y9WILlRXSddTauq7Iyu7qbpMOtvWUzOrfq4IjwrYbBa2Dudwb3G9NOzcsuF14zRg4rZtsRcwhaRyzTvBx0AqEUoVCBpV7upyVJXbpga62+hufV/ulb+/QAPBWIT+/R+hGtC9Dzp83aV6yWpXXTWMbLJNfuh6XPHhXYB14+Xuc/z39//PNtP1+/eTz2JL79gkvQ7XzBFZpOj4ouMDjMOHx6FKN7bcZAw9bNrRQFwQtvM38aqV++3fChj20bo0dMVXlVZn9kGpVCscmTfXZ3wUDCbhHjBo61CkMKIQ2n8YKpMqiXIqdGHl5t8Fl9DU8fmdtMIrVXIwJWpMyhaBjTmOhnjk/z2YkFkCvehypB7KeKeplZZJ9ayE/6RvjDlE09h8UnVLpIMGugiyPpotnc0BLaNipq1qxH79uomwynrsf8h/2WVS//+LL1Fym6ttm2CZ3P8513Y4XTKOuTgnfJfsQl/GjoILC3DdfGtHudV2nHdRa53cj4rd4bjZzjem13um80M9tlu7m5jGlb+U02ILguZG0n4kPWcEC3ygDYqbP6Kk3XV7Ofc3s9X/jY74Rudgxqg+1pN4avPdyQ3m3d1rBeclU+0/UoGWCNJyX8A77HohQ/75YrHOUJC63cSfsTnwDB+pkO1EZLhDhMbtPbVHv3ns1Lj7akb4Q9OI/5u//+GNdP38bIX7btp7f7nhdv5/TaY8vdfFuDqFK4jKsuw82jFzyw5r7lTUN3Vz96svE46gJu8PN91psIi73v4rzFbfuydbBpzMWTwAnzLuAkD9k1qaYl2JMslMX04eO20XmGzvfMxPmx78c4df/4up//up0vY9Tptd0Tv5y6p7ZGtXexwW1d9FVgtnqaplBEE/nEMJdiF2t1w/oZ+M8/5FifyCk+TTr9HHnXjOvA6nNfrlVQFgoBkzpDsuw8cY0wt6if9FGPx+/f+/vWjGPnuNd+e2CryjjhmnezYQPFq6rZHPJhJqE5pVIrV/yHfCW8qtwK7uW892UVTMvDG8LYFPc4Eec+KmtP3crGjH3KJ5ZqbK3zkvfW5pWWNKoD9C6k69Cs2df5jrff8Zu+nNsG1+2f+Gn0a+inly/Tfsp6qY9xS5o9yOJNNSRHmSdGyrLR7VIUrqxEQV3PLR21MPyCnpjlYnmXK/YTD33eAyQ9KS1jk1DISbpk1dFY1VsrU6EnrdhdNXyMF4v9fa9/Hv843o9ZPz1e92MD9f1uh7n/tOsX/Oz81fYvsuji/NbH47zw7kGsXQ29LP4MkGSY2TN8d2g67Tbs3byHDt/cbR8Vx9fvefB7756vZw4nB7D79cW0AWhHusrTOFF15uOh2fvlWw92ts95A7a8O9o7f5rjjvGYHfW6x9Q7cfWNzGt+vH+7T0a0U3ZrbKXwjlEW6ZFkQkmVadKuiBRysUvNXrHa3WytQ47dtLbnBmXL17Y6YZZKfa1JgxnchIAsFdVE2VSbd5uaypZPvg71PcPe+P5ub+rtsi03vfzl+PvL919/Gj/br3fe8/XX5J6H1eE6WW+CYQxTBAHjNNK8yPgsQvncJrspBatb7pT1UXXL6TuDjz16Y2lo3thAZUVfdojv4OzM7sowDDAwhyc4PG7eNzOAIxy9v/fec3uwZ/1+TU3w29u1H1Ln1eDjnJwHcpKpvectpluF0cgOr/Byy/DcLHcdg+7KqBrdzNmdhRSrTL7giScq5IA/mV2o8OkwR4iDFGOFEpl3KK3bNGnlNVjRsmxrdO8a42Vc/nvgcb19OfSCn+dX6RfcRv+N/yv505frXu99Hvj4OGwyymHtLzM8G9PNG2TIlkKtT7ZkRjppYhRDT80FHUgQVpbXvm+xv//tRF6aqXH1Vm2dUtqqOJa3jRo3bI6Nm8eI0PAlHuirezaFRFx9bVfsGdeH3s9H9nWV1V+/fNy8io9zvMp+5i2yvCunNStGI4rxkONyyKy2TbVh33xuNofNQe2NbZXN2MlIRdHbsRT+1IrWhhpqobE1/bKQ72RjX9Ye2gG1uuAZKOtgB6enkNX7tI3tddjx7af5zb/9cq9f67WVuG3feaH/j/fv7+/XB6r3Ydt9m+GzNjV7yWQRzUhqCgRjifiX8wAUkWwWqlGG4dXWnG4lWlu8xcHcRt2BsQ9yc8H6qTozMwtHAIZCT/TBkgpG3Awb0ajuFrtxvGP7cL/ue2u6zGDvNnvgvhdM55aFew16FQyNyTKkW9LmGNDQcCtnjlkjO4x3Jxy2C8MUIWsBResywZ5B2rReIExzNQCgzaCRuOp+oV2192g7yso8fTWYTeuKNE7Xfd62COHc//G7P068//3f9zm//Lb/9m/+e74/vlptW8Wme9jkeIzzfXOv/afpr9rHdWM6YacJ7ER210KfGm2rG1wQUMB00ozeTEiZVMQdxdvx4ntqyCIjVgUMNZUrDBRyA1nB4tNBzbZLJOnaDI3u1eaoqooaP43Icouur5NWt5tdRlb3w1oKeRSZKnbw6NG1qFlHmOE2mNvMLWur2qbF9MFLOEpWi0M0oz815UYn2AporZMNtAFxNmnRRWrfj9rPE2dksSPBbiZY0QW7Hi8vpsPP+vfx7+fXyv1Nj35//Jex+fmyzfsuafto+8e+H69O4cuJn2e8vr9sB7HUBGA25vPi8GSZBRbw9PYChYKzgWCAIRUJxja20sl8R10Bvys0TGEWQETLkksKYZa0aqlU2bq6gcZ8UvJE9eD1ZUMYL1PVQKGvwJzoj8sCHdEwT2wPu0ze6964+YS7aL2CR2kP7B1hu4/O16NfZ99O3+YIIWZrCpVAEkXW8tj3M6VioLfG8vHcYjujO014ObIu1Rlo0WZ0qQsJM2w2k2/dp44D48CX2Ma4nXd+/Bq//51R/9KH2L5Z3079L9/6ZfZ+GXpc1nPANvY1spEpwWgygQYDPw8rAmAjLjbSqlY+vpc10VFHNv0a3vttJs/WNi3K57XAvWy0ulZV6er0gK82KsKWqocSvXz0eGGc6A/s3zGHXcO3qMve7i2xUb7mpb1osUISHQh1lKLM8OJ6YV9VD/HR/jbw8ZN9c714bxiRG6+ww+xqO6cV0L2aHAG25M1dDsOoslaxrw0n3tuPi96zM+Tt2jGtQQS66JelPnTD9NhmffzP2zv/9R83/5/+Wu/wa7v9xr/P+DI+uJ2u1jk+arwZbUwkS3LIMSIstNCqfpITtowri5MTG1yNITKaByipo8I0OR8jQPN6CO9V7BrtfHZ80Ciyl4BmmcKsVhgnZd223DHo0yyHKSJ0x01+9u1sv6kq2huMAMwdstZ4CiGabKg1q9HtaM7A+VN3X3icPIfnzS7YFVPb2dvIl60zosI6TBRg3eYGYig3A93ufW6PmbWf9GNyf2FGbWwj7gfIgAcTo3WGjnte3cOBzXjG9Sv2vc/9p49dekxc+gnf8pi43KfKH2e/6cGym+DuA7aNMGycxKdfaMUA0wCHORhLs+hphl6VakOYkjrmeJtb+4fH9QIMOixaQFYH4fAQ3UFne9eqb1oJkOaANUz0bnfCHUIY4u4K8LKqwNxtcxPJXpExlsBoVQndrPau0HRM12XdCZu6nSVw7sy7z3bOzfNmfeu2KpsNklwZKwVmLhSiq3h1cMRZfftmVjhZ3y7bX+TH3F50VfnZzVHDfBo7TRLT7XLF5Td8tbu///Kuvx1BvVv2uzqn9yHPCzV7l15+9v0mOVZifzCjQCsaKgg54Vjev2Y1BbHlEEt8xlV/aoE76vxpjMc+OHqcMs24efr20dssumoko7Wht4Q9TSXACnD6nEbbtSKbgKUdctGxo1za+IwBUFCgoQlzmsN+OCFXeCK7XHPgfPEzR13wk1V95mPGPHR0D6Srgh2kGQjRFZJb08I5YOwBdwv4ptv8eMT45/ZmofsbOLKvnPLsfcK7lkhoctBG4wI+bjaw67SP7bzCJj+qjuv19DvD7hwv+/7zTR41XRUlTgX6WQbRAQmlpBoQu7vEdUIDrSWeAJg0wqgmWgz10W09ePg5M1hKxegvBrZ3WU+1em7VwzwcbCnU7BaymWUq9sosaHNwWes9e2TdqsNbgR6igUuCgidFTjP4CsWBC5Zuk2zyYnC6992LbdWjz6tqZnUVCkLQBGMpWq5yyuSUkxI9nMx618iRX292q7hiPGz74vPi1JY7+7C0VOcoH9uG8HoUP9pv7o99xIuG9w5TvYyX1z228FfxTm1Zp6o5k0XIhYVzVKNYs1lFii2XrFcODmH+7P0zCWgazRJykuFbTZhqtN90l2f6Gb3AF9kAB6xcsmxeKTBNQsOq2avHW+yGaPaU2S+Rg1hEsyWi1sHktviUp2jKfuD6onPFb7l3CK4uCp1a7oG2dMxQVVdN2UNWZd0OyK0WzF9mS9vADpvRjhqXuM+K08Z73Qxny+7EbY4DDyR5GYPbSIyaHkfteLFmxK8+/P7V/nU/sg1Z1bPbrurUbDsNtV2C3LbAgKFKVcZ2w7Y5GSsfs/8gppfkqx0ttCgZ3AqI+9ijmrON3TXQAw5QVYsVMWtvdnPBMnB1mJu5mQ0XnJIVfSFg1iLaYSZbI5J9grXPvJ4F2SygeJWZChQbdBgiQbgTGWxbcYD4UU+i7lY9J/oKKZrqTkuqvN1BM4bnZtcmIPlR9dM0Hrj9NvaX3n3zfa/U0YXxtnXfYTXJm59R+dJfon/ZAegLNx7meV2zy6f2NNYgXZ5tmX01tIWFe6DZLouGqlfBnfBccIs1/YwqtSKx8lVbCgMYNe+jp/Pi43jArtyPZBvMy72ccutQbNoBKLqjSUFyMVZsJSBh7XVL2byC6EUvJ12I+pSYrzxV9MrlXcFWf1AqDdnTIOwpX9/usx2ZcsGaXmAJRkXSysQuS3V5ust942Aap5+Ai+Pf71V96I7tC3bRbUZ9XHnY4HWDB8aL7g9x3qpW628InZhvpjZ8Ry7wFG1evak9SynHMG7OAFFeapBGylfT+rPru596gqe6ljQajVCtxH0B8RGHp428bbSVHjkCRbPgbWN4+qQSpWwVyQBh67tPFFhOjJXzswAytmyl4QCwpK/6vyXq9aVE4xMkfMbmtUQ9G8FLakpPBqUk+Y9SEj1VWkua4TRzB5ReQFmNEI3klS1R98mC+stFu3Lb5x13QD2Pt+/nfUq3QXdF7NMmr9oPwpGXsyYxTe4K0aLhz+xmGBKZKLBtmG/Wg6oSouEGG8tytgI5VzffU1u/sty6mE19YhUhIgYkn25C3YP72Ah1Y2ZL0wu3DtGTXV6NUjccZkYzSEg1u5Tm4goCiJVVuEpxgWhYLkXnZ9zbk0t/RsRhzWPPzgt+5j40P41d6F6lcOtdQU+mZRVeiFqtirA9lUQLF2uMsX/UtGLM1jBud8Mvrt+zrsf1z8e54+t+3R64grVlPiy0gxumISerCLpXBNA0gy/NheD05XZykZQ6iTROGWRAqQurlqsFXeBnKBpE2BJbcWna1KKFkyKs57pFej/1sluglVM1ywuDGvQ2NFvVrksGeYtAgaWZ3VawJmXWU0/zj9zL/bn9P72IWnTVUhgRWDmLEtCC9w/51dOx3cupwU+hei9hIepZvrOyUUywMoJpUUM37N6afHSq5/b6l+3nni/w34/zt9/6W/f/6pvnaD5i02Po4Wm7me0Psxw6qsgOJzY5W7JqCYrBaEJkWXdfWas1Cg1f3oV8VnY86cjPP/rKwUEsfnrBBwYzhFpOwDR2pHeXMwfgRprVrXsIVyr76R4yAKrqmg3KjS6HrNtXUzkyvWsYjNBYU0c3FmAk+1FiBPxR1PNU9izudxG4nzk0K+L50z8nPoXSfA5162gRP/l3MTq2YballXBUzp2U3f22+bezAz3jyJd9/0vfO7Df4K/jfNwmh7M4hYiVvKZ99cPqbFVnYRk51/3X+lR3Z6npLcGFUmiBM/SnTpI/dPHiD4OCocBa4AEtAuGEo60371tlVyU0S1gEk1nvqKBKytXD4gJoJT07KxxNZ28uDFmxklkGsQBKIXPrIJ81mLYO38Wy9w8Rz5NLtzXLL/86KLhAyVts6alSXWagNfIIpTWYkQpRESTP8y3zDJpt+/jJY4Ph2PMKPm63+8tfbvz54KF7HDZSgQybbtaCyxaOphJmdqJbRrnaJpEFm0A6W+4Kf4aWGGvlPcLQ3hKsbJk97LmU8Id2LNRqk1WwKXV39nU0M+WQPbPDRMK8ngX1g2XkSi0WiOFtDeba+SN3n7ELFt2uaTURJZyC5AQaP2rs1hPXp1FCBnG9FpOEXIt5Laeml8XSrajbFhWzzvHWU3T+eXJQaNp0MPO6mtft7h/bHiNiXnH9bvb7a9Tf9DPvHV1gyz6qDQqTOTsidysWCiZBaVk70UA72vsZ+hdOH14+zJysGS3TLLRcDcrKRNDQLjxDQPlDvvp5pUajGI8+SFn1VpEUfBnFFQQdNDl6pVkATrOm2M/OdcDalV3qbu/RMI0g2spSd8LGpCbWShA+VTzPN8Dnql8yhtXltqIkuQ4JgwV8wLzXTdfWHsQW0J+ZV2uLEiFzqjceTD/Rp5HhN8hwIB/lfeLEzq+bbbq+//zt6Lwe17x87LH3FeFy971pNdTouZRgq7IWq0z5OZIAMK4EFXUX5clhLPoKiEVPyp63uadoaS0rUzP5HH0kC2bQO2Ax5CgZ3JeQxkRrcJkjpCc5s6BR46oGXHpcy4xJAyeq++wOeXEQN3sGyxmfc+8PHdvn9rj2+7WvP40TDvhitZ/F0ZZGrepmlVUzhWcyup77q/wTn2KhSvI97nPMuVsQnUenjZ3kzFtvW3zDhphSqHvAnGAbbDQD0YVZCyExUmZmJlD1VH+u2OjFKGMZmwZh3WpvI9BdrbSGTRL05/1Dzz3WfKk2KDL2YEdvI7uINIGXtmdszme613IGWQPo/kxadsOAGrraqwBxxrb0at5tUy5/qpkBW+lmn9+f4YemsCGwZA3TSks2M1984yybTRkIcyCaXs42r1w+1nUhkWgGb6jY3nNPApu9oHGwBuKo2gy+jTzi6lfoi52dHfTHsCaHuFvgKUoWGw1verutGL+SurDgO8FQzitQK748DRUeRavMkEa7EUtO3yutnZ/A49LP9LpcCyCjRynjirFpTFkRSH1mm35GIT3lxwLZ6loMDDDIgLtGwE1Cpg0hjLbRvGZBfG4sMK62K7R9Ok+ftPW69GutCQiWzQKStnBDTw5hyNxcEmoKJnvui0v+JNKrmA2KW3mzGwqKV2KEj2HJLj1CS9S2Z1VHBO02hoPM6iUmT4NcJAbkCev+4RAMPq9iVmihnBcZsck3W3v1gNoILI+1ljvhD5vnD3et9Zo+ocAlk/Gj4XPYGGRFZ6EKaj1zRAg+zXmftxJ0N9IIGI3D0L4+CzknWsA2DQ/a6PCGsVUie72Rlc75GRFEwkEXrJY/tReQxbV0RtgOsFVZqRaNFog2pntbZJoLXrrMBKe7YTI703o2uNW+FTXnxccLE+lbuydSrQYplrRm05LBQLWRtk6ZfDrOmqSxF6ZZ4Ggm1WbyRYmyYdVdQld7L9/Ks5b0aYuSRJipVzIUHOhAbuWPraIyWi5DrrPPoVpdWys8ZD0ns/WnQKJKqmVMbjKgrbG1Lei7ahZYaNK5nGXtWsLh50N/kurP73yVSqzDnSQYTgToaOgh5IWCCAYZLepZE2OU0zzDWq3WKsY1K0eqSBvMkElo7/5S3Y/dYKZeKc8EuK6xIunrnl3rzEf7YgDXJa1EynplYcLbvQcAc7MGO7sEFqPcGt1/2AqfM+lzJS93g61GM0RrzhMdWRODvPO2a3RTAY4Guwuq50m5wmQLIpKcZoJ5mqqhcsitPbrbVKSglFmju+q5EQ77PIYF1mdYhiB1ERAdMbhD3gap1Z1qSQ5zhRnEymihYGhuY2nxq4SHQsbhF2YtJ5LkaFZBg8ZiE7VZG55ahh/LwJ+39GcMV5u0gPznBLsGQ+vFPq8i+uqWZCIMXOVltdYMFUswwuWb6M8EKkI0dieW1N6yGKWxY4R7fumr/SN7qPaFX6cQslEa6im1J7i8owHf6MNlbunbQ3vN6FnViX5e7Gm0hrN8XWDINWGtkZ1Pbfmzwx0UzeGsPRd4ZBOSbC5lFRXySCfiARerBUIVSV15ehun2xztgGYTcLMsdKvZJgSaNNpgC1V4bg4G+o8/xTO9rARrgs/m+SUx4Yq2AZc9Oqtbsaz8RYQ12W6Cm4tOrm7SJ69CrW3XZbpaII0DUBrifu9jGg/ECLsLNmvmx+mDtkeYXAp4K9RitKlMBsqC9HIKLLGzZtnMVHsgtO6RNCZZi6pcIfW9pJwLd+WzKkDg0qwbDqFY1sWqcKwwhDSfNgh3ZrDQQpq4o33iwuMEaC+KsJ3WukqgvNk2ZK0W6mnoFODLLbPy0WifxZNcEczLTbD+VFyo/jK+81P5T6IpDXUBkIlLmgStBAxW4XpKtpfJs2VolqOdNsthtJ4b/NvtZUR4h6sNOMyvW5iL2bfZlx7XjBzDwzgIweAuSImauN5yqtoFKs5Vh2GNaA0Aw5ZsSFm6UAIQy+34FJ2vvKp192QDxbPVyx3pcG8g2zkJmg/fdguiVKU5K5p1o25lXXlaSUKfBuLl1myg+9QlkzpESm2YQOCTC19QCLCwlE9LEwtun4iIdxua9ewH+dG8R60ZzNGjS84UJdXz416/U7XZWmiLh4TMEPATIZBb77+9n73tnoiPj5/cVHZqmKDMitrGHBWPy49ZH+fUYGweVjGTZSiu8sFqK8BMtluA5sGdZZLV7LI0Kze2hbXB5CKaTUErAoIrGQZoqRMO7cDWBVVNlASYjWERpKM6Zx1XCvLeBjTR2XXOn6bv2w2lnhOQX/HS5kMHT0mtqDYZYW29APD1UojV8/n5KrjcCEtODulZXmOSSCuts3OBrkWCZlxGEvYnVr1CLxfRR7bW2WEiZ+HyumLfXn7/+PaYX486XvDbHl3n1N6Hg28e2R2cu/IG3HoP7g/6lZpn124IbkMWcnUjyvxCNKBCT1im99y9NYwUNMlY2OACddDLu0/BUMtx0Y3KoUJpkMM6oKyz5eKN2w5T1rQsleaVlzpi3+xORtm3g9ejC34bW+R45zyy4pCZb+2rGd1Ba68yPYG+/oyQAwDvhXrjh41+JbhrQY0wlelHVciyParJdv7IWEsCxoBpqWZJJ+gNNtkAS3vkqXGcXz4w9tf4+csDXxu//eUyi+552gd9ED/1i4/o7Wpd0lFseO0xgDirMy/mCbPwcB9sozyAbtjRflwD06rwgrboaK3A/XB6I0grtatMDMohwa7mLF6TrDDbuAc8C1Nb2s7YBUmzUj3VJxsjNvptyK3pJ5lCxeX7rr1PXrizz3sd2y6n7dy9+gjKNMu70N30fkr3P//zvKU3n16PdTYZ1mwAsIvUJziiVXEWZEdzsRMNrlo1JTBXsaM1bA1lvre+1rH7efbt/ejH4y+0EW/61+36f/+Xv8VXj69sj3lsJxHoUVvYNnufeSFL53TmrwEWr9pr1rTz8ImwbRjNwy3uNvYhxWmpMRvA0wq3KrO73RdcW1JXSQ2WseQpx3C+xnArO6+c7e3eqoVvtJkk+LC7m0te3C54He/bkSe6fEPcV9ajxKvpacxHbZcbArGn19YQZiFFce0c+DyKtG6Ja/EvZ/vz9djqaiHoKC6T5tMu3gWAaV6GimUd54rcguAtM8lojKKhu9J961/5+Os8v/2O33e7/p/4b//16y9/8+iftLVve6mvb4nzMXRtxA37OfidTPYGUmNs2EqK6NrLj8v14ZM2vcd5bUfaUJsXOn14YDhGj2qVdVWh+okVyqrZZMkVYe5jEJ7qC5oIDzDyZpDBqupKYOOOtiaeodpXt84rzncPMYRhNaxlR9YsXH6WtnH5Yf4qGz3Lp3dTVcSzwHMVMuCTNvm8qQv6HLTETzCyIXg3ALLZMMhtxR93LDxKJBi2zBgNdEkytaksvT+OPS49dovzn99+/5iwf3n5/e3f54N/ibfxxmPoMV61vYh3zIsqsB9W/NoBH9P7mlddVPUWl6vtok/eVGX0vckZ4jCYQyMQGxFseEIQBhZSSVKBDtHktEEMmjdY3bManrgXTZvFgPU55zHbA9veXmaHKgErsJWZF8AoT7fWox49+3F2K+f0PdAKyx59+A23PbAtSs5mRz+B7M9cp8+muMVQ8FO1RHwWpT1fji364SkIfH407F7tInRzgqqwbKqsYWVe7ghWCb/H1uPffP5z9m+/ff1//Fd7PS/77f8V27W16bryPa1t5wRrrsTeWSM/9uYW4+bjiBLyPjWE3nDeNC/3Ht1m5mNwMyKpw7EHHCpVs9rNhjksUCYZjPTVJghUW0mwdS8a8z5oTc48HzrRedvN9z168FKeVdYMiVdlYaOCrMd+HSiT2kMT18SUBrtfubUpoz/uPSknfaUB1jPGAA0Zl0rpCYjzk9Yhn576Z6sjnwcxeiUOWQMwMig52V3dlJXR19nubk0C5jlJs+24treP32b89zxf/8cN9l/+ty/2f74c//eY531iqhuJhnftnHBos9wCHXkyZMP2m+8VkePMebAVLd8oH1mQXFkX1NZdZdVmI+kws9Haqobl0HIoYhrLg+ar2du65NpNRvPJnJhlRzB9RPRm9dLJQ7OjLTRu03o2QHeNyz5moPZAe16btjNQm41xA6zLcKVpsI9RiTsmeopOm7JcrXqrg/SJl+lTkvHM+HgOiws+fmpLbJ3WWCbMsm6bRHOSjJDVMwvB0Az4dF3E8VLzq/31/PJ3/f2ve37d+3//XT//15ff/28f0T6t4dzogQCtmmG0rX20mbI1zz4whSOm7R/RsNP6WgRlp4JOaXpPq6q2GcAmuXea6Q689B49gG5mSzAY0pBmn3ykoPQ87CiW69rQXqOvV9ONbmK2HRy5h4YJNRbWEw953Sx2gtRj//5m9/L7MAcbuK5633W+xKgNFjZrt77UE+ZCAbXkF/wk1vR5KADr0vmcv6BPQQZX0NMarZYH22YF0E0btsHLpEnMCUx3WgRerCau+su8vn8Vf/rrXx9//Vnzn/8H/CfMf4lXWHm7sxkijVmdkCROLXOzdlY52yrwkRUHhsLift2EoLeM0/bzdnuyNs00pVXblnS6O0znrJoEw4coXVAtDAKynlG1pKRqq/Derfa2uAaFpF2DtRM3qIuPGR8l0X+5cvCmyE3XYx6PntaIJs/urknYoR4TLzeuwvvNeV8pHWxvtFTWMjoCfyi1wc//5ifn1qu9jtY0sthP84W6rc2fm9SzlBfwoMzFIfPTbzYuFa/feL7/Xl//P9a+X39///7f//ff/5evjzBrVFsdZKZjISIdn2gZwsqjsLHdix43eXbouPfkGBWjBU+MsmHWPh6e33Ed1m45qv0w1Zx7zzb02DiETS73Fq9S6pLSutj0omN3292HBqBOojmjKgRHUy15zUNCGH0wctbjfFex2jYTXzh3fBx55TVk+6ykGvnC62YViltHAdMkqFezJOCALfBsJShq+Yz76YdbBzQXiNaC0RsGAg4rQo2+2gUrOJs+uKwraqm6pWQd7pusjnce/t/e/Nf/7ePt/Lkfig/K3GgZKEZYEu1etuxva+DeZBvc0q02uV3gGTaVrOXPOtXf5+NCM0KbdbBk2ftHlkOxVci2sWnEhJKzRXUN5Z5SAt3F6CB392HhYl11NdICYWEzLCnNWZVVVddt+G7bBr/80a9Z8+HfchYP1Gucts3yE0NjG8OaIw9WEbLmFmxjsdw65LNMAmyFJj+PAMM6Bche+rIVmrZaMpcXfxFH6DmtG7Awd7RlZOr5wkrMLqlimhVYPHI/muHj5bfb/pdR99vtZ4YHveWtrcm5sx0ZkgOgmczacakL3SzOEw90d+lInUJ9AJfHdNeOrRm1pRm2taIoewjzozt7/+K+hVsRM0uYYIIgzHtzjhGrGBqzH7Mu6BoO043pSgcbjqq8hBy27Ts7M7P9Gue3sSX+5Wbg8Jyd9SLTGLtbM5DN+dLW18Tt1kNZpCubCAPEBJYQEvYs0XhysGuXXzqO57HLxmcwZpNFJjsN5Ggz2kVczDjKz4gi4BAd7mO6z7GFfd3m9sGf7OOYr//lr//65u9xT7huyIq+le5FFkzejRN9ac78qOqq7pKXohiwCHAPj6EX533zyS0Z6Wzr1/MaYh77mVsN2uthluwsxcGdXShXCylHDZvbkLnLXYWZmYnLIV9OgRzSkCBXR3amanBzG+Y0nMcLTlNM7fLh2zWqX0G5HYgJt0KXSiei71K7n77Tc4Z1BSJcRFHFVQElgupP9Yb+wEzXg1/NM59jdEJEe03v5pRFYIgcZibz9Fkm0OJyP/rFifLevOj/tb5+TP+Ix5W/xxZ5RUWrcs5z8nGVA1BXqhpNljnNzbBvdC4N9DbJ3H1uNgNuipP1Frfq2yNfGrxlWs9TF3mG930gNGsej0WpKnZij7qhB8h2NeY1ZyOf3HIHFAUXjA16WUxxPYlCyTLGdJtO3z1G2TyuiXOqL3PzHjDyM4HXm9Uy9a0f1YDRN58c9Unlr/oIfAZ/fO78ZosqWCqOP0Bre4KnCzwfpWqTDOGqCL04ACuNTPU0TlPW9IcrfYZ9uePLPer2+ib/b3fveMuc7EL2XNLdCI3N7b652YILj4jDcYQbLZpjkif0e5HXq5135q7sdhUm/EzX3Hh/qZ+Rlh1X+6lpU1ZoZ2FT3Wk3hmNjW1VfrAm06fnoG9FPb3kP04gWVIlOk2DGUc2z+0TvnryOPSeOyDkaqxLX2aVSs9wV1lELVhuqjI17bT4K1e4CdDXyeQV6wkKfQoaFVzxJjM9MQDWwQn17cxvDL/dGqzPPvISKvTCKiDDvzWugdaPEcv6O499+P78gdFDVGWa3vT4sfP/F26M3LgOpVELXZgU/8rULaNiH9QVNM3CYB9v46J7TnDfzkXUdOmoeW/vYBu+52QFU2pB5R2jANovgLo7ZaNSETUAuYxk5ZC6gP2lmgwGl1ExWQsYBRjPbyoq6XNMhutO805vWQxG5wWAhjhrd/fC6BuTT33tLDFQQMExYdKNAPW+aS6wE0xLsfQro18Pns+6nQZWpq6ikFQs7aETszlVroXK7jKWsuromoJXdoWCKxhgvGB0/1bQX2++JlzMNB3VeOL/b4xp1Du8YxI6+SxS8KXrSsu2q+uDMzq5Zk3gM+pba9jPv8nELWGfzCgfrReO1tp00N8K7WehsFZcSEW6rEA5LeCR6Ojra2SixOrJL3hZyp9RNZcDDuAXdGIamXiDKWFSJLLV04Gx0Vk3vkoDdrn2DyetpFidi6VrsM+8Sn0DdIoNlT5iCi8RYZHuxm6VJn6ZmW5gxVg2Zuo+L8wrlJgVsSUfgRuxmd3XXjajhob/943HxLeG/3x/H2OKGy25n35otdLTY7Dq7Z/PqyGl9jZ7D1MSNBjftxrDht1Gb47W8xebg5J1wxzTV1DzRVajuyqde7qmtetoNCyrVM2IPZu0oW9G9SUc4OxkKA9u40pFGKACujGupuxtCs4y5fjeRc0nUmjRqZI6wtEYMVmCQN9kJ02cGfj9JgkUSP2kD++Tsl5zbqDBdPuHQZd4BYKXQbV3e5tzNN6MsIIavwoKldVglEpOpZDz+qb7aeDPY17rR/aLeOA8q2/AYrM3TNemihb3QYRu/+HjR2LjxqaRlC0jZcV0FKBAbMjpn3Bi3gVDl1V3r81z3W/us8mqg0CnR4GbWjja1GqtOTYCpBtXEiR+NBlAy67zqaKG7teJT+pnk8bw5Ojb2U9EL85vTHR8e0yg0fWpQCmhNVZ+b/3MK1roB9Q+U4ikaZzva2Q2UDyuqaAqTnFYB0UztVuWdSqAhqclaeivv1VYQv3z/X9+uOmJ+q+yZcTniZvYlGqQraHvHa+7OPWy3m5kbKCVw2pxUdmsqS7ZUBq5pWbfeb2zPiZqNQrO7YJ1R7bLlsF+xmitcx4BhBgR7Uy0rbDrTvWjwWjFy7VJnZc7Orhb2q1mL1zIwlkuZS/kKBH3pMk3wNJxts+MK226AGNzMZYHMosy78ISHFi2JRjeJVRNoxk9R5ZJPSLEAJW/cWlLnwrtYLaKCFeglLkZFN7VUceAaw43w+GfPowzbzapaA/6y3cbX++3lZaNlW52eE2Tl6Gvrk2kTPi3LCnuK1WotJ2Sy26fcgUlOeQvXheLVtD2KUebAgJkIlKwaMiBAZXRHxYalkEeSk5Zcnk5vY3ldhrKrSVkILbgpAMIL3qSeYh5A8l4ML2j0JdLxRncqNHd79H6/MNpowTHYF4tASSAMnwqyz5DYVi8r4joluCKVzDgAW2lKfeJC09Ow/Ib47AotUE0r/Ij7AXpZ1+P1RYxN29/tb/6yn9TJOvRxXLOjl3ihwk/4bOv3sLIQHEVreAlwVFTjeiLkbsbelI1ps6urutgID6/hHG6GRrvUgnrF6qgdigW5ywtqY/oKBC+Tib6iW8VyH5uDsPSebFQtrUVJBVab2h0rfki+DCCay6bYLbZ4Ti/XRJ6xwRTe4dUbkb7k3J+3fxJtJbZkoqmfCur1DQCGXqKIfpo6V8DgUts4ZdkrlofWXMbG9XnZSpAFLG6/DJvfx+P79WF1umFU9OUzvYXePFwbqWh3BWE6vUtoNkxsGtqs0FD70kl+ZgYAapu0CTpMbTBhnBi1FNMmg5mMpAVpLW+6jMuKIJP5XMaEUJfBl6qKRhPQUzVbjzK20xjowNPfutDcpQRuIVutSkWVr6PVZXfzMFcFSskyRVe4JVSmpj09PSXrJYowNIVeQteV2r+knjJUFIpVYXRpOUnWaMdlp/CVf87FPLfgqxlS8c/3Pniz7fKGK4ehbAC+sJ+aqsoNIbdp9B3hvGSNFNLMLXwIIVu6P3HX5gjkVQfMTNwKLq+Jq84Synr6Bgtrcx9uTgcshQtsg6KFMrUL3aXljC2YIgbBmmn5DPEKt/HiVmhLcWVdQklI3r0iNIwyouQ90Lu1lkAGSCpLBYR7e5TcNKRLagls0bQIYEhNPXejdQVdt6PlKIGHlqQbSz04e+lwhkjQy3xdaNeiaBSw7tZUWRyWlaza5r1flPO98Tjlg3Yzafc0x3lmXxH71uKgjShCNSENu0bQ6MrRJ8dJPz2BpPA6a6u+kdxIbkIX7BIxNnhsJICU5qzOs5S1FE0umRCmeJo6mqvVHWizruhpaXLMQY2WlMXrqmvVniDg7uRYW8QqISBIdxsUS12lbDQzHccVURQt3d1GV5hSEJrKNaM0iZXvuOwRgD2NE4u06WUPrEGW0PZHsC9YS9/eq1SgjQk922MdIg2xFS9l0PqwM/b7lxlJHtbtcKPuGy+L66xiX/t09GjSMMzjGqOkqtnxgWvWDFH2mCXd4D/P/npy6IW7YbMyn6a6My3a8OhiTl1TmT2XT44bw2m0ajXaZJ5AWs9RQlHD+pUB+nX1vM4+z0hzd/OxbcaGfPGGT7FVrVWJKrTIpYmli2hVNwqqLJoxCqOpxiZNKZ95h/3UlOLpkqD9OJpl0koZX+AF0WkCyQ60rQTunsIJFZbEWOZAE7HJDao2xZctZqNUMiB3u3aOirvq2mZ5tzRct6104nivyxoDzKxbV1/jY/qjqsQp+4IwIXGet6N+9tuOl+At/LXMD2Vxwq5Eoedcg7xDEYaw4AhwLEtzTuZcPSIWuEwNry6i3Cui96rtZrrhsLi4NoIRuIesKrNKiwb57LVboVz8ZB5BtKHUbRMy1Oze2tr85CBuVAUmIFszrz2TQj5pyed2gufDp2Bs82Vfeho9DB4Bs4K6NSxNGjSjraHH7UQu93qItuEeQoOXR9F17WdIt+rzfJwVBwfHjNvH2D7O9+y32qp9jNhlw/mCEkbabsSxVb/a66t1XCP08the/j0G4+o6+HE5EWP6kKt3k4G+0+8EHcEyXEQq0kZ7i72hB9snDdbmF5WdzHZWIuCXhvxaFi6ek2YWxDC0UY3ubgFSt6kAcBn72BYyyYrsAFMhsLxDK2BNJJ8luxLYq5QEP3C6FTliy31K2Cq5WU7tvag2N4tlGPZy5kU7O1avg4pdgoHcWhYqlg02RhqZb3NWqtJmegfi9Yj3fnn/qq8v323mdr+Tg5dXNooYdW+3337C5Wn7/NkeX893P975D77wPlSmOFJTZ+6pv8p+Ku6zYps2prYqQ9pI7dWxxjE3RbR4oZNVbGM7whBmg3btet+p2duVUR9qoD0bpNvo9AkPs+GgutuE0nIcf2rLF9DhdJiL6LEGaB+NapkJpHcZe/CJTZewjNOyT2fzM3tJwLNYsJ5Z721ubtXEVLM1lUle7KVrMcIDlTSrycNpcekqnG7NHJQRI0h2Obtu4bjfR97yI6w2Xt/e21/Gy6/bTde8Pr51HmduPnT+7L9tLfuY+fGtP/DVX3bdu+zb1e9bzPEyv5ZeqHtM8irUBGZLMHVKWSxGxbK1Xu1QFVKjtcGsTWV2gR3lr9KBK2VHvNLOLZMPsa6GyWxQjInBkG2wTKVqEV3dz0SEp0u2xU7Xw5rJ6NUzXPYkycogX65cdP2wddp6EwD6+f8ltWF5wyRF92ZFGWUyIMgaKCXZsaxFLdT09jB4HKIyAx0aHhyBnTAzeZ3xuFh1brP9Gy/Ze3od7zduLxfyTWk69tq/nlu/8a2/ffD6gPVfvyReNj6+dH2p2ePY9PjpBt847/gfHKidl5jT87S6rGe3BEeZOrwjEsp1kd50D9ug6HambdflwbQoZnnFVeO1Nt+20kd3o6/zorbdNqk9i260UVFadrAm6hmyayvVJKnDuKkFN3iS5fIO6bRaoXSgmfvCo5+ZL7LlFxP4WTpnkkq1piIk2wHmzQwsdXlfN8CBYix5uEPWbnHrgouj6SeHTSARcd4097PziB5zr0m/rvrZcPt4OfaX35pRHLr086y/fEdRbx+/2fn9b3X7BWN/jbH595/j276dYQ93YvfrjgSUvYIubBKHse7ol5UyJhgUacgVBGuUua02vcwytbXu++wvt+pbHvLavlnKu53jRa5L78qP5odyGIfRNW2WDYd5ASqsjMylPHkaBiugrtfygU7rMyLrZZzHlRwAh3vYMth++uT7KQzFU9FFw9N3Yuh6GghruccYDQOC2z03l/cuRTOrLyuhI34udCM0L9W7SsaiZQ7BEHcnPMs+rLJ///vMX1B4Oy6/8vQPEOx9gtd3vn3DiK9f/xL7/1Vf7v/9rg//OKhL4TyI/1Mxpr+coo8yK5o2r9065N53XTsr6pKgktDgU1EUw4OmzRt72mWoqKad+JK71ddp79/7/eNUz7s4bsRd8ej6buXCRr/7GKcCREQPsFtTK/aFNy35kpKOA54gOe+Wdyc3Q1G5vBbPiBDCoV6OxRa9Py+mEIV1+NPCqH0ND0b5jhXVNM2rPdF/sDtkx8dxeYfH2HqDQjARacquTkoDTjL4/oIM+qg7+g778usv/XU8vlbd32ziv8bXv3Xw8bLbzvOt3t7nx254PU2/5TyusWsD8d5hDO7hm43wzdEsVllJha4qcBazPOQe9B0DcLsKU54lqR/zrfLIx35pO7XXNmhjXDPOQN1jh4XzPqj2edb1cWnAt6FttEOI6FCX1ESaLQDnfWRUZCvsZgD8tOixl+GqomtY+xJNs7k8tWSxaM9g7qYDrjLa07gvkLKytFaicZlQIErN1qqxM4Fxu74Yg1dXdaNblYFSz7wNbSSH3e7b19sv/tqZrmubtdnmX+5Hx3f8U/+9+X3s04+xbWN/4+RvA2/b3H3e8risat63PVZbumx6lDOz53tjJR+ZqtST0CjjZV5tN/NAOSbqqONReZbOJQ+/ZJfrbPZj39K2cHv1L7X3x1/mb6M0P/rddA2XjWm0A6ZuXnP4iNEVjSYVJsqIbklzXuVR7HZXlcwPizIbIZYEUL0G2DWVreTHhWmtCPeSouGiULBytc3O5LVJbEneDatWN4jF9xNk1MmjZLtfcvRw7WbYh16GmVGeZpf3KQRKih6ct+7bOfo7/sfM9zHtBXvs9598++19vv/uCuvbfjJ1pWLD/VU/7/s9RvecmOfjqjKUG0xOjka0BQzdSOqK1obws+uATl3vqKx1iA5yE8FhXwDHNJu+nbaxN8PcPj6oK2vaNWNy1D78TvsFjUedD5/g6W5uZBFtK/VV3jrFs/M2X4DNiYbmxOgPAmZCVYNwUzuXuRKArFtitwRZN4hWp1pQLTRlqX0pc3Q3ulQrCEUrQYKkRcZA2MZt3z1Ac2y+lEtZ6FQp54l80HoYAJsdZxzNy5GvZT/tO3GX2f+c/O26rrhtWwTHjvvcbvYV4yePGKOVx6FzWvXuCq/RsOoi2tXkVHUdkHxz333D5JE8uzvKgrtvBifGTL4rCnMo72fGvI7z8muOJAyxw4Zji/mFD8fVhWvJN/0r+lC950nvzf22golk2xZuTr8btfk7yLaBR29egwYnpDKwITr0jHSx1XDRKzBkYZ6VJetWoZEC3XDzFU65KrpXNCSxPOlygIrbjmF1q2pK1X11ottx+XI4PevgiH6WAsHQpgu29X3HNhnvg0dG67Ht+2679Z3ja2x+/wKzipP1mOep65BdCKfffdCH2pZPwiupiz1Ngt2G3XvYRTsX6TQGcbvKOxtzatbouh3tMYGZrPt4+FDDrq5ECXW78jZLG85QNfZ33zQ2e7mPuIEPzap50X0wRBcHiH1rk/iYVn0dOqeZf4Hz7ntbAlfbhBruKqwLkekJ04lrSguTEh22qpZDcOuwhqsb5nzqjGqFIgGE4oasS5fjipGemOXoplDm7SzSHE3BMZ6pYemJl9o2v2vvD+d77m/5NlRf9IX2gvvdlzFA6Zf4rvPg6ZLJmiynDLFA9HYmaYNVRcItsBk3GJN1dqeSZdYXYejDUSPoVsI8lYXq7Hj0mJeNDNXm5dDGsY3wJBVpdvxyzr560uzlhn3Yy8z56POgTiIG7mo7dRUQO34+NR6W2fML5uW38ICPDPq1aFGsbAQm1E66SZhik8vC2li3ahdatgjT5bVvQE3KCAcSUFkcItxoLZtmalWvnU4FycwW0kKDN0BLB0A4IL49rN4rqt43bI5fr1uQxihsBRAf8/jIuqrdzIcBYZvJSpyVpd4Km5NKK4Uo8NbybOAx+73t8m3A90Z/1CVqMlNCmqU+bB4vkoPawsbYOG6rA96l0+aDlVGbmeyGFx/XHHnVxQtoC46XDq951PWR80ox9zi3h6a9Httm3Dfhemzz6HxYFG2M3e3u07K6axXfLz/kE6BLsVZqAAxwg7moonVbtVWhwQVOmVNsExsIPZNdZclebKU3mk16lZSfMnmgzB1EeDA1Kjsrm6pdw3RPGwUoctxgZH+g8oJddoPHMDd3ZxPqhMSq2acwG5jc6N5yg0NDqe4Wa+zprrCauowNtvOMri2NoMZGRXDzuPkwbCrWZbNwtQmGuvo6m6Yt5XJwq9G9nbjKp9FtMGh3u3LikfqISb6/1PeJ/WN87CP2wx81zq78uASe9N6xN7iaoJehn8ln+sWCnYpIqhstNRrwpq08+YV1rCCu/qxUj0aZNemNghg0wj4lWGATMq1Y7jX8sem2JBmOuphOfpGPy6CgDXqXTSFFE3Z30EYYO6ysuyU3S5OMomp2i5APAZmsok+zBrlqe4Cp22S0GZxj0GkebAlVzmurq79nst+CHa4hhazpHV4BoVGKBqLqXoD7HHntiSYyfNteb17Xnomz9H7U9vt9+wW/hPX14vXS50dsb+A878XdNnbJ+mnBZbKxlq06REPX0qMSTTPCCDNZgXCGg+YmVHMyRcoYDbMqKy2COUAvl+3aDZYQyix9dk5l28KzTjO0M9XpxM1sy7IRpbCt2hNRil7tm4GgGRa2aeplILPhbcxgw3zFBolzZk1UYmyOG/YBkWySmyxkBpTqrGuqUWKyPL971pBshZi0Ciim2Ezj8DYrZfXE0WO4dvZeto1x3Obp73VMzzts33e8umHUY3xUzH653edMEbXfPNzyfHxnNrcuZlrLTRYQuqByMpxOW1ZAZLuJa0UGBIlaXLLBikoYxEHSYp+ItA0j3Fo0o6wvk3T0vJ7ZM1ElZbf36jFyH2PzgZpDiOyGyg2YcmBbUcrrO0Kr8cypkSTZtKXr82WIoNbqXgayboHuZBQdNAPMBWT2VUdVsqZq0uhlWGmLw8vagJXyYMDQYmBbU+7o8IzXzpqz0GXDsWW/kq9tj5Ef/q5O8l49Rn6h7f/o/+/vM1/VdOkWP8eetr/JL0xTCdlXBnunDe0taxnMYUHzZ9hBL7kEuzFb7BV783mJ7YRFhrHJuNfOvuR+DU01WI165Jy4HPTaoodIjgzLTUujl3AzLF+Z/GInNdQOGjtEF1a1l1NAra+0GZCVrVwRCuagm8yadiagQdkwkLZ4cwlVXJHVaTOtq8XiXjJZr5RRSL6yiFY+ydMAT1tmljIWbaDGXoskqAvH4Zzmphu1c7yjP/C7MvT4lbB9fxm/HNcZmplx6a/8cr/d8bN3W3WKGbPtOjhhSjxbXMyKq3M3Ibi4kpzhK0cIRMPYBE0JxGbposf77ezrNNYlf8CnR/SLu9EeRO3yL1U3pfEwldPn4GE822fCs/vC9dHV8EC5IbBq39BGkGZLgEIucSrBkLrpgom1krOawso6AlcnQQHZTPB5lAnRxmfFnASU9FkXsbLzl5+37RkQb5SB0WI7GziDCWdZnDmuA9f1oMQIvdj8WdvLZu/7+8TpuLtLN7y+kI/NdAV//zL6dby8wT6SKW/dkzfZATyE2U0A3lfYU3tpdJMbvNW2knraIHe2y9yqNWN1ycQ/Pai+4WtMvozWVffZX/fjvn/vmkK4jZKuh1JDHLDI6OxzXtIpVcrKRtTNtcGhVuqZbbcc2AjC1+nfz/2QP+gkVfdKjkHAbDGIUhIN7yZS8SS9uVJOqj/zBFZUhgyfyfmmsKIvBZStro9Vx63mOVWi2gNb+LFsZ0ro7ufuEfoS2+NXfcdxdfHl/Ms9xheq48O3iFP87ZrnkZF82fRl104YuPcaaTJnayFDAE2MFWhcIm0spg3m5YRRbu39THa8nYisX/3DImM8UBx44c3Tt3ftl+9s5zzVAjrMXSX7njh0vTJ3Nx93g91qjCt62W+NtkqZ+09JYKhGNauffp+lvOxOKo2L4uMSJQoXmUv2VFIuszSyTI1Yf6OnttIYMJejYtkcu7paZ2W2qUEu64BciiaKyZEx/E7fGsw5r5xAj63rfvV93Cbr7Z94+5+1cdwPxN458oo+XrHt+OJFfhQP1MAM0+q4j7yGdWXZZcOMpcN4RSAZNjcXpG2FcxkkWMOSRPy0PbyP+75hMBHvJbGsHOLZ7GJYul0O1zKWnmrb7Rp8u4dt+71869pcZErZIMcwdzZWrtPyWvWTDXlO8MRKS3oOJqDRGNYiDI1nay0UTtBV6mfOabsVXZKx/RnJ3mwxGzVZvapaGt2BdoKDcvWGHOyAsLWsKwhE49a4pbr6mHX0cPg2t11+016vJ+OqqdG34NSw8v0x+n3rwYdcQHhut74NDZnd/JZvcrd7v0jz/fjgkL1azhCi2Vr6pHUCNqdIGSLVhduZd/IQgQpebueBmpEjDQZtx83qFgOm2RgVqoStyNL7uzy1s3ZrowzRC/ToFbj7TMBY1jeSbvZEcxdJ2+uUoBnd4FixqSsSvuhwgJd3qdk085BZQrIsPy/27FaBbcQQd3DdyGqPDsvBcpR1ooDCLOpBnN5hbWycrbPAJqVhM/W28i93nz//suvFe3vrM38fla/X3fCqeD+fMUBzGzO2ND+e4t3+SN/5Gvky9dvHP80ppXpyT8tZ6mbRTZ+sEwgwbh8b3uhA2yVrnJrtZMRp23Xn7RYvtvvuseElyx6iwMvzwjybTB6hyT5YgQ7v4Y3wdhUF0dZLZ6+6GS4NOwBJyGfr3/om13fp6x8D3j2VM7jCHZzVnKexGQVPSg1rh9ylcBvWgzP8ck5XUSqz5JjaHtpr+RsNVs1LOp/Z9yAM9B6Zm70bDsErgr9s18/7psJxv5/b9u5x5R0u8r/b9X2beVNPJipZckMM16yOsq0Db9ecZ/PFt4nbte/Y1JndSxxBPT0gAC3q91t+b7vd1BWag3vFrhfGVzHHtvf2cvBI5oX9IZ11SSxYYajMEBUNq8tSm5ySs93bPjNKfQWELp29Q672IlZB+UrvYdnKhF2ipypWdap6JFlxxH7ePG9UWs/KLDSHYiNuNkdcrjOeFpgosDpO7CVXrkzHJYJbHTViBy/YBOuZE2q20bcw18+Gv/TwjEzt54O/vV/6t19/2b7u48J+/mOfv9d8v+yjX9h9i7rP9jrmvfyllHNvC39/+Pnx+G0EY/NSwe63qSkX0p9q92dWswGIxyBeuI3Nv/AFZ/W43b3vh+myNNopnkVruepsXpADAyGEVC3pgzCFFLZsPoF2ytpAU7NoKz66Ia5tf5Vv0mQE21H+/2vqzHokWZbjbOYekZlVvZ2Zs99FlxQhCCIkAfr/f0EPeiNEQALJe3n2Wbq7tswId9NDZB/obTAYzGCqsqsi3M2+j0ObO9TEjeqahJnmFW2KwM33AZZpCLhnbYVNjDRk+jnmtpXkG4tsLwNFZs+x943ivXh3ZBVL+ITJ4XRPVyTEssXUJ88ErR+5ne0S5bncPffjzMLrXfTJN7cyFSqtF4eXoK9z4AYvcbvqFLM+nOdmL799we/vMk4blzmWW9faX6g5bOSje8IHIqdMT+6z7kuWu42t8RYWmdutM2hTTGvkiYQwswUyLbwQ3dzNx8f6UHQHGRDZ5SYb3Ni3HzW+9T4z1Ycn4A3Hz6FBoZmYRDjkbpkTXfQo3s1iW6JlMGdyagWKtq5rXhrU526H7sWQDCoj1SEw3AOWKPKCSrrb5HSrNKcqWmV4knB0j0C0rs5NHdiybr3rumoD4+vpPM+rpr7V65VWD/exHI+YurwBTaz9gXycXbMflu0x2m2dPvq8zljmfn25LtPUj4ytZU7yguxIIjIlMwBlQncl8rqtt0x1JqpQogw5EayzwguOk3nzSzKMSGuhIdwWvIISW4dJZiZ3wHJvO48X2XYBtmVwlxnAQJIyT3PAUIyTzJJJ3qTNOkxWKrp5SD2wUt2vpfdt1m3KntFzywb2UfDyVqZ+GFh1mtMMVZxoM61KbKMqYNhBGt3VDFbMKtHNO9qNltPWtJbV8vA179Lut3krpm6rJSPa1kV3v22T3+4LDtuE+ircZv6dDqfp4fPhx7K16fj4es221h5tPbUtIhO9yhyp0Udmgiyr0qGOTrU30itd4GYWXGAsU9iUlahN8nQHekaidcoyxUChFeYIwDNlMQ46A/wGiqaxN5KQzJ1DgiFhLqLTZEiFeibkcHiBh7LrKpfSIlnW0C0jtMkjBC+SvMm2Yjk5C92smE3FJ0dJWhjbuFNH9obeITINSFnnUKKY75hJJoQ5E4l5vSvzw+vDA7g9rh4Rz/WyHO9jXbvHbXOle3itnoZrqfmB23ZJZP003/2CX/6unt7V+LfXEmvZ2vO53/qcUQ+3zNkK5EDuS/4isEsA3MyQlO0ppjSJUpmEVGFSrG2yToMbehO9pw3UC2wsb2xHD6ZG1XTcrEgC+RaSx/+nPBI9xxAhxA4W0EkqW2Rr3ZqXANEZbtvSVl/X3nv2JLJUzEupKq4HlDm9jLe/k+u4Z0ZmSrl3PAZtxkTDbtQxQpbGN0RWrxbVeut2p0OExxwFKLd+fVUrVqzkgcpJMy8NqTBmrRfMjtfD9Xj1u/X5MGW+frhflqdt9fPMrHbpYTc7Kta5QaEdLbT7TYrGXAxGFINcxbY09OwdgpEGR2fZiFZX+IU1SquHIDSI7Uk1p4EFshxo4CGssje+gmBjugYO7+1bd0sjoRaIMZ2Wu5PsXWRUbJU3Wo/oEULPmryzAw4WNYpb8Tk5Z5SW2CLXyN5GzddGG27gJYZ2yQZaZ8hDjS5LIVNswZKoYyrbE63Q2hIk1qudgW3jqXa72w4Oqw5aEelkjUlXXpbsB5yv726H2sxn+LUv07uLbe38/jBfpmuxMqVT8B7jrMdpcFl87JGpnHq4C9hR2xpx+nB0FzMirUeJ7sCUE4iC1dfaLDt6dPRSUDNhSLOhZzPLIaTabWsa2nhLEDauyJGeZhoTC7k4g9UMyS0ywyqmCVZLBLYWGSqaLN0rzCzC8pyZa7YWPWqwJNWihxoRE90hMlzptj/tDh/zI47ZRww7ONLEEqqNrbpCbIVx3zGRqmlbuHsxIKxPU98AR/jIOJ3K3fFkkzYcTxb38+keXI3+7cdj5mG+P3yeflU9LHPUi9eGutJ69yFIcxqLCQ7Y4KAhZOg0lMoFpTHVW9u23hts7rYiwearz5vZpvQsHt1K2CButnQvLG5Gk6gY7KmRYwUsaWmShMxBhRxgPHS3TOa4RIhCjke5eUmaMuXJEh2tpRAZK3tD5sBBWFqHmdOWwSNFUDHYlNhPajuqNVPBXsww9JfjI3V/q3r2CPC29bzp0XkEpMaHNptPZmjlai5s6VijtD4bXo+MmKvigCgf7ubP9TcrpuO7j6Wdq7XD5V0589HudP/KqRc3Y1zWaxcNc9KKQBWEU06FAn0cowV3GPuc6Vs0UlOZCbZ5S1O/hi6T28GnU18A8xSdm2XuSWGNwc+YzytIDuzNyAJagplUmgwxvNM2UjhuGkSD/fDah6I9TT2ZREqdGSZLq90ZgoIAzFnd3eEY6s9UZjRGjLYSlKaQ0hMlPSAbexsrRlsLNvQ1I7KjFUVXnsusurHc5sI6F1jNaALWgBLoTpGN0yGf1q+WT/phWp9f/nao5TDbp5djx2vgZ8u1v8O6vffWFxnT1D0iWrNOlhLj3wKERHpmLYIN4HiyiFbrcbFjrjPWk3mr6xVVmJCHA81W9bSoFqOiWjcwJEg+9jKDwTl4dzFarKQY4T2sC2Ls+GUWDdpCKAKZkMlin9qpZzYNTwvVzTkgMiOoT2iU4eHiXkwaf2kOaBtNo9z6JppFT+UmpBWKJaWubfUL6cuhet6aprg8dM3PGbjjUp19sqthRaajpGai5AJHRf92e3/ZLr/6X/v866Hfm9Zy+rYd/mX6/OlwIWhx/ITNvT9UHBHovXp6iiiRbh1DREtyrrYYHayjZ09EQSijZfYMP5xqfJ62p4tIt0O1yFRdvebVlmw8JGxN06iMDN4+OUxH1ml0+miyDzHFeKveenBgKoflwUGTKcZtSZCCoNwIlEhiTx683fbkWTxoPQeafjPvXqQylsWBFLJYZjIwEm7eAUSdohQhm5ecbG7+aHeHj9vJ7VLjlbdpu1VWJfpmOtd2kyzscEPndC7vvPS7y/V6++Wn0rbD597Wp/Vbbsc/svyEn48fmnk9dtxiS4vLtF156XmwmBCHmmZlSnjBPKeXKIkhhg/TSq0jbJFK69MM+uRF9eGc9RUv0uXRPGbjVq0/eW+HOG9eha1lFcZ7Knvr8jAlQ3CU77N79ojcZ2Ru8oELG/Qq29P7GIy23M+J+9oXppF5GqeoMCn2VZyrA9mJrAQL0mKAepMl1ZgwWYPLVF3VaMap5YN3W3jOln3etul+mbSJWM6m/tXyzPeH013aNfFgtUXtt7pdtmf3uEfcv7Tl8/bA+cyDX/Hz3X8+fHussT72T7/ofvP7P9Sy3l01uV+nQ5tLw+HKuF9vx2SWUmpjdquuorVFJ2HZKdGKrCTZguoQbAsr12naDmbzc8mmA9c7xZnJOm3ztG4kw9EzY4gUwZ14FAoJDrkDwp6OkBJUQe6DaozgSxqGxwhDebWXbrHztrWLuIkkzeiQuVxkjITTDpIfSim53L2w1IruJDx9CWYvrOa1q7eCVe04bbnS2+HhdDqu5/LrGcdjvzxdX/94N3+7Tug1r+3+UC6Xm15OS7G4v8Qj8fV2Z7Ppt/WMV77/08+f/vIN2kP9MT6+bPjiWB++0KU/rLlVzFpzwmaxrjYLZ1jNckOa3JLj2pVp7GmZtmXtqCDlbchS11hrBe/y0W7yPLAvEbdt4lxB1oylqszi+rZRJ2RvaQAIe+VTYBdywC0pKiNACA6WGDnXMRcda+SdXjI22rJB095vdGYjxhdgKKSEkE5lHbq4mkGmZQeTvgI0mVdHj1jZrd9KbChxsZoTPcNuOOXl06Ypiq0TPj59fsz3v9Hsdl3vN8xzPU7XP02v060t8aXnd177zz//9eefPv7yxZ9fbn/Scjwc/1n+6fbprH6dYahdh6zXzXHThES5XWvjFpJ3lGmtvJp3y6pMetBQlMhEJA0Vzqgqxbr1XFp7uPGYNmOzHuwbWCyEa0d2HZNmrEITMKaeBlrRG/cRId0AunkaNYgIonYkho35MEgVcUyoDWObM/yuoijb2duZu/EdDRAqZTVYB2rMaICZeQzzb1dXD9ImVig7UrZCaQizC9pWylfL7RC319tt/frhNpfioVPjyT7/yDzPOZfy9RfT4TH7VHu/d11Kf/n0T//213//9Oz+/mX6rszvv/q7f3366p/Xaztf+XT78jpf8C67VTA8EU2b9c662hEem6mgMUPwqr5QQVVOJV0qzMIwTNm9b0WRfcvoPW+M2uUaEASpZqr1bIcMKEAnRDANYcVYBQfGVrIjJSA95YQbEiHDOLROgncYzZ1EaapZhhuzMRSRPRVKpYY/UyDgVEpwitYrMU10UEElQtbAVIl22FLVVjSUmKkIbXlVWlFFItFqeV7YH+Ox/bU91+v83x+/Wd/HOocfHu8gfvhfTx//z7v+f+fLQ3s/n9fLx5Od+uOHa/xqW3lq9uX0/fvzw9fPd/6vh+c1z3w8HX+bv0LJ1y+0sK5+I21vndfogVTpqbLNKkA6sOzPW/GbLJIYpF62zt5FKcPCdK5RjFR4p2/wZBq6OYtV5P45bqLMrBSYZaSiM4OQE/DsnlEyiwYekIQ7zQHXXpohBcUogRoao0XLCEa69jYcHG/JPyY96QJSgTW916L0ve3HMSnNLKQKIOZ4Bhia5M4a7f7YVMsLDyWfHjIe15w43X++fvv8fLYfn3j+h/9wbE/3r7KfMT0X9f7Zif50rYrlp398WL/37bjM9vy3n78Wpz+u5bzeHl+u5VpjrnG7ykusFmXI+SR5DN5H8cmINIuwDQF1KvqgLCD3tbqZV6KGtgA3BJNVnejRlF2Qh2pwfDLAJYz4JDKVoUyNGTANPpSpA4MhlWEQoZVSCTVYICK1am2RGYSqj7F2sgLFd6RtkQqGZTACSLFnNmQEU8wSyW4JT6smTAYDy9hZF3jSW5kAOuecLDBf+rvEqX7x8OLvXy+MKPVPf/ryuZxf//jzL/Nj87tXK5/ucPd1f/j1rr7APnz6rI/vDvofx+kv9cvt/qtP3P7n+yW/iX+0d/nT9Kyn60NYvXr26L3wmoxeKJiy0CQ18yiWUmZHZGOkdr0chpYjLenwIlR2lt57D23QgQ7zTRkFWV33xkizgCw794Ol9UzlmI0ZYArnkIaRtDQGbQ9/oih9tX6l2pieyWSyjjlLJdzTShCRjEhlMtJa2v4tE5AQKAmNyD4FZrBJvWQxDrlZt0QPi0IGZTVrXq1RbMi41a1O/TZ1Hhc/ltvrT9uH5/fHD/agh1f8t9Olx6ePj/lMLPN0/Lraf+Qf7yvw8Nvl8W8vy7/W02+HX+5L/09Tny4f+7/fPrcDlluxTe3mfUts5qY0EZ1dJbuZgJIcCkjCDJFIjCUKoKzMMHQfWZJVLazLqmkiYd6KN8y0qZRl5saOsGyMNA+PrggPQwzRHG1gmagg0xEDosEdHBXjo9xLek5dkFTkTo9m6pIa0OGpksOkozH4BhMYCHCOsQ4zi8mJQhLVNI37HjKzE+KW6UySNX2YaTw6G6/5EB0L1i+vt4/T+d+vP/Rb9I+fZ3s8LnEp5foXu718o5dvDjg85vGxbG6ny/n88dP9ZbPrF+Z/Qn7/sfQfLj+fj90OeZ0fH1+xXUvvKh7mkINvNimTgAJLOuhmJVCIcCCZBmUi5Ng6AnTBydmxlGhrQ9zLExaNsHB13kzboVDzlKhKE4tTzFLGKGJsQE3ygU0bx0eAtg8SZPJpUN+KsudqPRMbXZiQyOipGHk6dmOYByUikPJ9CgsS5iz0DJN2m3IaIzCGLQQshTrk2zIyQ6YwL4flwP5yb5cD1qcttsvNcZZ+9M/PXO+WMk+HyKfTxz9PL63+dC7xqdTTenf1uSzti3Y9vmhZH9actP7hzD9ifjjMHz2v3iiqF4tikfBBZTeMZGsBJAWyZzTKONiPASTcwIKw9MCkPIQSNjUW5rYi7sqKI3QpV8/KGTmERg63XgkMwgbcd1NtILtbhymNmaBQacXLsHxai7SRYNlCN7YgBphQY3uXjGQnwxHU+DaWywxOTUVuXhMIaKPClfuNjZBzj6+lkenBHbIxkglmBhSba5uPsbTM3petfnn2w9Sj+9e0SfMa+vThtJ1f9JyPPZbV+hmZiKh5WfK4/OHe7x44ey6rzfWxanlGvnANMpuhG8er74C8sIaMIIpA9UzvaN3SCY7RtCdrSMnmiQqt0FoRzvtuufa+TS1Zeua5y2rTQz2SZeAm1Q1R2GAOVMmh2VFLutOBTkehDF4AT92itKZUZJWjRaxNr1N2L7XbssZgIW5FMQMumurA5sFNtofANkERIfZgyCRZDrhbmqU5SKYPsrQyhr9m2FNg5pbGrdBrdGKx8kV5eowpjn3DPJWpLN5Da79eOJ2AKa3LukvWj0v97nh8KFYz+oqL87Lccv7s/erMgVza662AQQ6YKdRNSLL87g5SEgGOVDGsUCWVW6qwURsRcnR2631K23Jqt80+V73kFJyyWMuY1OCNvmFKmyPNBRfdMZUsLrPMGjFt4Oa9s6s39luv51TWNqGwg/3G7MXMIfNbGfry5ARXesJyj90pOVhtUhIQZCMz7TSOncMwbErMAIBEdlL7f/ctFYnhhMytbHhYZfbg05OXup3xOE15bXGrpaHHu41bLN3YXbNjKmV2m1GU2fJ2smjHADfG5j2DPpgMNsicHAbEGEGprgiWkJcKkF7p3YdOy2JIgyVBGdnDNGXzWAGusE4PiLF2ryytHUspt0lrzTU8+1wyjx6OSNAU7N0i0BvIDbbJ1+awTPZW1lTWhqlm4q50+l3JbJawgnDCJpmZIDbTZtAou43MekIBpRloY71vuU8vRBNYfl8EARwLuDdHpxHFaaQByhSRSCDoaUzTunXbaFmb2bkozZulrOvA6oAyk9Y4NZZXY7N1YyLCWh+271HjGlmEQREVIVPQkMiwhA2EUJlTEqvcd3E205BwBPcjRlpHIzqtHXM63o45nd1zysN9Qy9zm8P8brEHxxcbHoE5DGvrPZr65v1q+Yp+Cm5X6drk8uKAs3s3BpDFkJOwuO5X9qiyYm6V8pZdEdHU+/6BvYuYR8gdAgYYWyx7GlUJKpMGmmOoizVG1CxDfAoaWAk3caS34m0FKxv3+A6msTOZHWxDviumcAVHIMfJZtwBaBPTEKwUE5lUB91opA0nK2RSEimGGMFdcVwiJHVniG2c6jKtSRuxANWLyKhpftRDuK73h7yvds7TofXZuIXrZAjPqfSYZYeNpSlOhg1sdMxmhNbCLbjJLKZ6O5SVU/GZWwGWyKVEZ9nWbuoKxOwgkJE9FKnIsaqmQ85uu/Fop8GNipAowJFiEplGsggeA3SbgYE8kQ87SXD8eZHO4j6CHRmjUppmAFJQVwYGMtmYNuYqo8wpWgfoycmSLpmBCCsBZBqBFNDH6k/IXX0ChxEWbl6DLBd39RiLpxJZwhzK8WGqOntZHFnVD2u932xevRNd2S6nyznLnS3BcnU+M57L7dfsD7SjWbVpMvfFIn0LWzXdHOcFUWufJy15F92vJS61rLVP+mq+lmO/+np7aYKVVBQLRWQ0yWiFFiNd90aS3x3Xe6x3z4FxVNHHk5Y7G2soCCXGCGjb4DYkpNHsMnMBLdUlQQazMGPu7F4LWE9SWRKFxXNyVJPUMxVSE0e2knTYGGGKocwRjaTSOC6kVspe+40Yo4gLCyJkBTbTsyArevWA9RJlomi2aSV61Jp239bbaeMzH1o93B28H9fJ7Q6btWZXKLt4dh7mrd4vwdrkGbVruam2qYqzWx7iYi91+7TEdqRuLD9++DLhfXtZvT/d+1p6O8y6JIXIzQrgcFNilJGAvXu+d2QgUBId+4Pohsh8Q6Hn/kUwfgDIkMW+tu7MK8Y3thlUtHvjwRHxGJfUcVVRyhP7l4s3k9DFFhRCzBFDaBB9FFfHQ5I1cyypaaAJZae8i11wlPsIZy6Eu5eSklxI5Ba9r1sHMHkGSvOlor6Kz9PUbZoaZj2X1kBv715VutZ5CXNN3iasDFS3LGTNyVUMhRX0nrndnvv1sxbDF3NGs49xvB3vqHwtbkf0hw0zVdRNNDcvKENNLf7OedHQaI4vzyT4O8aNZkJyvKoABm2eUM09IhQydVOMA2Gk9xxLWZrZAHt4uNJzdHYsWdIIFoCwdOzLOog5zM5IZKqPY44xDOMkRgjmA6QPWcolS3YxYAmaqdwfbqBmC9VMqckxKhhebWtxyYF54kajlzSc+bQtR4942FqNmwett/my+RaeMm4FGXXTcgwvENbgNWlyW1mvjbd2vZ22+Hy/tm0rfbn/+HT/GQ/t7lMQhycv93FYUK55A0bFfCwmcz87DlrM+JDecZIalM/h+uLwD+pNNzWKYBpVQI0YH6fUEBaAaTUmxRhSDZmrig8JTIzQ0niYM3zs/UOQ9mwTCDNY0Z5AMxHpGHIKA8r4mRkRELc0V1HL5MHKrFvLcslriLfNvcFdBBCmZlxkk9XVpm6IyI1Ni8zyEPXelzrPS4l353m5bWpZms/gVA6VJTxvalc0xJobKTe7dseV/Yz1Wjaf3fJxu9c8tefD9FfDaznd88enh/K4lPl4y2nt59I4l5LGMHRJfUdWmaHYaEeaA2+NnxG5zxxvlHaGPXw8qwxlp5isYoUKRXaZoghFoCssAkoDwBgza3giI5mB/QZCJjNMiQQLi9OdxYxyRY0coaUEU4Z0gUzSCU9O5r4ta852uoYf1vZy6Tcr/XqINR01e8LchKmjZs1lRumzeZlqr7HNceteS/UpodX7uvA6nV7L9Xyn9atp1dxagao31C2K2tzi7jyXVdP2ijj5vL2bVy91e/h6e1d1dzd9vj3+8CFOr4tVtrY83U3bfL6VKZ9VZN4pBsuwB42hDscojkO6PDxreAPbjxAexn5ndMBH+WggQ2UWdBWE0UcaBlDmiCAVyTgqy0rGNogWgwAuFeY0ULrSXiRxmo8ck4IhKcZjkB7FwuTMklkU1eh90anEs/fVt7gEt88PTubkd178PEfvqiUVdS2WEy3JrCmi+qGYOwoxb7FtRNoBa2RsfV1Vr+59QXUL9xba1K9T09RsuR2Op6eDMpY8fH+Yjkf4IsxtPhyPOR1fIn6w0y+ttbvE07nlH55mPP7wYYvPr4iwpUymtSBz/4SBzLshTR7jxdu7sPvW+e2rdhggBzV+1IXHRV8GVpGJDkQOUh8wwACiWkohD3iXMc1itnTCnU7jGBb7DpzJ/XQFAIwM9oCn2Em5G1Gg0o1rjY1aD9qqr21b0axfzeZvv3q4f+Darj8elhKz3Eux41qxqkemRsm0rMWaWujqOV2iXFkPVYYi1dLWeetgO0x9RYN31SkihQz3ONh0nP37vC3Ph4fLfHgHzC+ywG1ef5i26+PnD/nDh/JL078trej67Xc43yWwfZp6U6/ndyFs3jR1VIyQLTPk1oEwww4BzhzHH6VZvrEYdsOAmfnQs2J8l7IMm9gw23dlJCCHKZ2xv59OkxUarXKf0xK74hyI0XIYs3op9vOABjuRKAX7BGGzXJXXqJnGbZt7vEN5t3h999VcHg2Xf/n1b+eYYv4vhfeyhKtPE4QWW9xaFriSyuJAQURD+mG2u7kuPvUW7VoyHqvnlwzMZIFUGITHbbJ2qJzq1Zcey/V5+fHX/rL9EHG9X+0bnS228+vt08Wul4evHpevv3nv38bt2H55XXJ6UHyeH17vj3nCY2te4JkjVCQyRQwb7bCMugtAJGxvAw/nGtDNYT5O/Mi9spD7y7YPsS0q0/YdnhnqUGe+yY5GFmPIBN6+6MfJl7BxrZDGXctABgGwj9id0NFaDbN+wHqPfCBVt1I/Xy7x/Oqff6rCaev/1f+kMnlABM6ORGJ4iNi7yYwTk2CraGWri1q9aXrtgbaoST7FctS8oDrAVXJZasrDhFmO1n86v7yWV/jysM3eSjnZx9Pxb2s955JfhH+H6nrKy2QPHy9fPj8eD8et1outU6CAxwkBxm0EMQ0QWbHbxU0cKEmYwQYFYZSRpZQ1EX0MYJhAGBID5wY5OEBXRrg54eMnZEw0dsbhaJEK+Xulfxj13rJ+u3hyJL9HBVdvwnkpF2Xp7jYvHtP1psuJ15ceLfF4q+U5cPzyO9eZT/9U2hrCGKqIoMuJStJSDQBL5WRaouV5dbtl6ULxLJOpspcWngIYw+BViiSRt+DLT1uez3/e+O5yC+qD9Ze5lbv21df5/t22PnE+vH//8S/9b1//70/rZcKDbQ/byey3e2KxObhYrB1DICLslEHuCpfU/qwMHxMQ45m035G4sX9aj5EX4YkEhmDJsEe4hk1lyDD2Vz9tV+i9BSjHL21krPeckt4gTXxj248bhwBkAd0qhBZxzm0Tb/ZNW77f2sZtPZ95xx/fn+KuXLcP70t3U9KGkwMIS3pjWg4hHHok1+4py9Jz7ijBNEs581SDFupBNbIjUVJzM3XfkOeb43y9m9bDEo9Zju3PsqW9r/not+N0+mr+8bv6t8P60r5///z5H3oe662c1sun+cyLvzvZmshY8Pa/25u141WhpIzxROMNoT0e0d8lC6OnMIRGxMDrQVKYYtiAhbGzHkQw/Z4GG//W/tKPBx5vNZq311r7bxLc5WX7r6UU0GmBKhqsrDF/XtVuPU99zuN0uKvvt5e/L+/L+en8/wDS4fuwF4T2fAAAAABJRU5ErkJggg==;fontSize=15;" parent="7GYGhVI0r9KvUz8mul4n-1" vertex="1">
          <mxGeometry x="30" y="79.9" width="45" height="90" as="geometry" />
        </mxCell>
        <mxCell id="7GYGhVI0r9KvUz8mul4n-12" value="" style="shape=image;verticalLabelPosition=bottom;labelBackgroundColor=default;verticalAlign=top;aspect=fixed;imageAspect=0;image=data:image/png,iVBORw0KGgoAAAANSUhEUgAAAIAAAAEACAIAAAD0m+nwAACSyUlEQVR4nGz92ZIkS64siqkC5hGZVat7D3JJ/iZf+AP8UT6RIhTee05PqzLD3QDlA2DmUX1udfWqHCLC3c0wKBSD8f/5f/9/hPSDnPbHl78wXp7xyHHgeKZ5wvKiJgGKIpMpSxEiExQoQIBAcX0BJhGkYAIBB0nCFR7hkksjgkrMyCkN/7aPf3H+SvztfJ7f8YH5lz+u52GfRxzHh9thMxEvMmf6d9jX9FcSkRQSGeK34Zok8qF5ABxMf4SZJqn0TGcKTFiISpLpSlIQAy4IkmNSTHDCQwYlM82CEEiRAAGgH1USAEggBADof1Qvu18KEBLThx8nXiOe8UeMv/zlP4Y0CQ0cmPOHeIW52RHjkR8+jQETmbXGBoKWsqw7cTL7IgKRBkCiRCRBk0jAASoHZCZ60lOeGpOm80S+fOrx6zV/aU478TF/jtdPG8/xOvxhjhzxHKHQS34B30x6rYMfachwZU4eYjhIpFF5HBgj3MUQkxEkwBRsAiGAdIRBSSQsOCWZUpxITHLCU2YKyxAlM7nJCKmkDCnVBgi9K9DegFoIqn4jEAQEhuPDXsQI/7jiY+bHGJeFx2m4xnk+ImMel4uKcT0MuCbzRV5UXxpM9ZVMoEiBYIk/606S6y8smWISk0nPnEy3OIi0kDJCqe+cr5h52uv74/j7k/HrOM4/PnAceZhfOCLAeWamLCMxz0MvjK8AXh6TsCv8ipHS0Hwg3PHhZjKFFCFOhugwGKdbQiIkC5GgDBOCgkmjS7yIAAIwGWlOgr6WMhMl+P1/ERCpevxWALUS1OoAACiApzmPJ/5jnPjLYww9/xiSAwrNOS1duoDL4vBpOC2c4aDFqI9KiUho7SxNgEiyb6f/zXV3hExSBoBUZDpgjjAcMExAwmUwJNKVx0n351f+nPh8yeyUHZzj68Dr8HNkMsnMITzD0pWWYRZT80qJCQ869PQ87IwZE7hmiGmWNBqTM2sREUEkAMJSCChKxCTV6ieSImRmIEWDLKCUUoKSKGVQGaX6bm0MsZWDAFjbpFeayzzxazweif+yHMhAQu6hI/OKa/qMh58IOC+LdIVhAhRpRolCWX8Tlg0U9ZsqKiGJCctkUJnJMvrMfhlR65WDeNDSnT/SfrzwcWLa/BPz+Aw8zGADFpKuyDHN/OEPz8d4ETnjwguCYBoWlqHLJYNcIQU4g9BQIshB0mB9j54KEE6AApnJXGpukChDrTVphFPyKYSkrIfsV5aBr0XO9hEgxbb9SwNIDNp4xrj0FEz4SA1apjBmmFsIIsMhXMSEpkljxsgJIlvkKVjCkkyayhy3+y1LBwAGpEiSZqYUmMxgOhKZSFEwuaT0kC4kAPfQAx4n+QIDE4n8mhmO8j7DUuYicOQ8pFfIcpKCuYYT7skxwnTCL1kkBNFgBI1GiglweoktofICEu00ZQlylmsv4cUwoxthKZ9SLtNzi7/28/eXogiYyjqX/SFABNIszGHXdHcHBzwTNoUkJM/khF0ufxgxAiBTutru04Qy6mwUxPUky/cAUltJJClagAFLmkASySwXlmaGDLdMM16W+VB+zOO6nuP8yesxj4E4I0Qbl8ONpJlPxIzrQk6bOCIzAREnJwygZxov02UpAygDaAAhUsxyjklQQopGIdMgZZanM1EpipQJ8IBDLOODTMDeV19tgACgtqegoLS2sDW+9maEPMKCRpIYyV6vNCV8LWsCKOAlKsu5lNSWgePyP9vWbRfEdkMSEkpF3R9lJJGWskCSkYA7jCCGQI3UBw3CxUh/ERj+GEOcUgJzZCKSMOk4FRMZD3EKcUAHaCykwgDLRAMwktDCjgsiWqkrQUEFHWytIxPpsAUnSohNtWktX1z6/qb0bwjo3Rrw9x8RLbP9o1FAppCKtEA9b8d+4/2FctYGqHzMcjZqX0MSKUBKtpDUjZvMMhwJMOAhQJgGQsdlniMS1KQfU/aVD8YDekzYBQJzxmW8oJkyJkgMMTUoDslhzvC6PJhaUkex4HDjlVpRUiTrAawQnMCsXQFteTOrnQHzXkmyhbvWl2D7Qt6xQO36Mj+lAtpf9C8AaogAJbMEe4epHVtl3QtL5yhYYeCtWCUXWJu9EJELKUJIiJaZkkBMy/CYkYx4XvZAHpfllYhp8wqI43FA8GNquGSXcYKXGaQQbUqaSlnCZC4OsQID64XtZ1/SXY+qEsctqSYKsHKULZbIhSXKEfdamGQmIrWgDTr43AvbatCKoX7v3q/+imIpU+0/SYLkAFDxCEgpl9RLHVIxAW9lK+lRSdHCwuTakAUHlgkCEKSkWg+zOX1Oj/MaPo8xD7MsGAhS+LQcyDReOIzDk5dNYsqwIACmc6YyEPApyCo8NLkZDKRZP3SveS0Pl1lckJB1SxWy16tFF7MeIAACKUZtLGggFQB1487ecEloxCPVHtymiW+7oVrjtUR14bHups08kIWFC+my77OMSz0Ebpki1/ZCsKXiHaQrYYKYxUdIOTO/z5nXlZikDVjqMXQM4IHL9YsW0vWIFzOYeipk14kIGoG0NBNcMxlCyjJLKd2CpLWEGKUsY9MggaAxVevVy92rlzCs/YDtNWhs3a6vn+xdpd7NfqnXioXWJbfJfwvQCsWvdwrAqFUtWSdKmq29EUVLWCJz+xuiwHHvTUppAJiUaIBsXcAiLJUDGIQUEVOaqeDkmE8HpuV4BDnGNKWfQ2EWsHgdGQjBGC4GwxRQWMJzTpnyCov0pIlGOtyAMuzxZqoh0AiY0ZBZbqqFt6JFCZlGyOhieWAIyloPGQw0sv3IdqxsK79sUm3O8uu3YJbykVt0bzqpjOKQipGCkIJzQSgC1hKkMgACWT5AgJi2wWZxQaxdydZGkgoDaKIyAnPiCrPrNHLkIx68fP4Yw5OBI3NMs8vxYiCdl1nSxiQJm1AA0wTPYZqUUjM8aaC7O0QkiTBDonlDLqNbss7ffUFLs1NkORgiYSschgHeIYRJljBQBQ97VW5PvL0BF9ZqD3+7gLbivbC1DxI1pIoYMg0h9h00WBIl0ySu9gHyjoSpckXZXqyAXC7fJUPSkIAGZHkRESmczuuQP9L8ZXI9Xvzp43hdT4VP+XlQxzTkkdORw2hmJJUgaOGRw9KW7c108CAsCaaW3htaGACalewtZC7kCptI1qJCsiSJKNvZBBcMHDTABYv+cCs0yo1BGp1sragtxxtMWkC3ERPV1gMEMEDIKJqMFJGFuMyQi0kAlSJZoHhJVVrFWVsnN0wwTxDIYaX7irR5Xd/XqZNiHh+mD/k4Hp8f9vlj5uO8Do3xrfFNgjksJq9nTuiC0sj6W3wM0x10SoqLxTvUz2UF9axszxK8iqFUtpZKwdIokU4jUwCmMpUJJFIroCFpFCpqq+dc2ObNkm8o1DZo0xKbptayfdwriMZDKBQEUYOH6GEJwIhe/Zm4kpluG+BYmk+HOjxhNhFa8TdoZXWY9ARDgfmy6ztxXg6NH64/EMePY/zl8eN5/vF5vh7615GPkTA8kaaTSblpmoygkwHB0pykuTCEDGWIkYGQmWgMDTUGYQJebFlFvGhg4ctkl/hbW5WEUsyEQi29Rf8YgIpqmvbFjWlWoLQFfOOdtfoNSdZWtW5s7EsKw0AJDpsaDkvRJIJMUmZKE0fIoxR/iEyBy09HWdhkbbcBUBCZEIwBMF/H689v+46fCvs58GHXXz6eH//B53+9HvyGX+luxsPM6QdtFIbxifR0k09NGEHJlCbQXHakaUJTioyRaZme2VBsrcHaAmWyQI0gUkZR9ZkpXbX0CRQKJ41MK/a0+AosOW1Eo5sAaJxZBufNLNWqL2DUjEgZH21YDAzSEEHQRBgiRVGqNIW5wczN0mO6YEGR01IsYOSikrZ0S0DFSIIRAbOwiBxxmV2P57D/Gvp8cP5ljs9f0Ldz/pK+kSemKKNZCplKhjiBYG14EmlIp8wAl5w0A01yJDGNdJgZEQAsKRTrj6bHWiqNRTInC1oroEikhKQzzdIccGKwUAgW75yt3zvGWhD0xuJsWyNSyL1B1qCE7Li210uQBpMpx/R6k5SSSUgwaWkuI2wmhETSCaUhkUqk3+xQh94Ek+VChOn5Co8pJj7/0F9P/48PwzOfP/9h59dzRo7jz8f81xFhARF5zGlUhkxJS6Ji6BWUK9hojIQ5MECmRboFTUIoY3nFjt6bfGtDRMgq7AUzk6kMpCFpkptsyJwyJs0ApRhSZu8jV0KseRktvgErXqroSGXHO0Rbr8COt3bgzFFrbRJ0JaWc4KgIMS3DcLkkuNNBu8BIIaSQiDBYZWUaWpFLhZ3kxDkn8zpcH38cx/9GHX/5lT/+Sf2pU//SMd3/ofwaU0wOAwRGYXSE8hIuWYiCJSUllVRIUyQOc0sGbbrDikyOFK0j37aTXI4BG9uUrUjBxKh4zpxyK79FOWUQhQBy2aBCjh31blWoIK6Txu9M23LNWNe73XXjd6ACsQKWCaVBBkBJWfEdnX9IGuRcCIppdybg3l+05otCxJRFPvzg85Pz58eZ8/jb9/NvP49zfMvtx5c//un6srwoSa5MGdKZpjREqyBSNoHImIpUTmiKMrTIIpnTg4wJ5GZKFjCXtAObjp5kEBQr+yJDctEH4jJ6iaz4MprYr6XhvYwgqTa/yn7/G0/XzpnLK3GFgeUzKvoekirfRHPQW1k7Zk8IhvCcrjBag2sZBWXRJ7bYp3vLU/Vc9qwoCZbnM+J6Xhkxr2n2+Ws8/zn8yyZGmCGNWVCdy2hLnsYkp1mU0oGJIRxQVALHoMiJgCYZARLDyI7lWxiWP85evjYdUi7qC2UCEPU2MmWZHZHdkGcRM83V76AXO8LjJnRWVNZBX5udt1ViE4djv1xGmHMVUchMVAeLTCKZAhZ0a7VRR3629prLVnJogFQOR37Yrx82z3GFwf3zm49vcCI/HhHGqYGEkKmmvUHAzZI26TIP6jILt4QpH7pgynF5gopQSpRc5FEVMACgTImUYGJTakwgk9bxFpRMGAzp7aUzkUWIFeASPEsrFsGgOxTgZrnbEVey8rZAtR3ZwVozBOWVF3YdvTUAzEhTlT+AhQwCqNSNLJ0oqsGarWpwXLE/OvHRBpfEQYdhXg54ZNoc0xR/nEg87DJipA0lzMMlitkUANlMTJJhnIbpSDLFlEUoEgqDOseYnm9EtAEGRUdVmyNR4SgAySjHHgSsrB8JWZRWlLd3kxlNMska7/e67kyCtmS/ERBakcK9L28OoVBo+cqCoa1K2z2sLYUgKg0RFVMSzqSx0IksozOUDeh2AgKwlQERLOyIOfMMi4ceng/7EgN8WIwXThoor6RheWGrVcOkTfjpHsasshJkwIOayAQlY7LDVSOMlfIvvTRmMo0IQrIK91fAWBVaXJUeKIOaVJoSoMGN9MrUrbBqWaI3EH9zEWXXsWyPhLUXUDF5am5q8Rxtm8Za9k3kb56uXZkspYQS5fhMSUNaiklvu9epr7RlNlmhZ9KkyYQxKQJjhjvgiWSKkw6Hb0ajgj9CYIAX7aJdyClmEbOJTAU4q6ZqBTekca3GZhfNYKbZGRY1z9YedqDk30ORSYbKg6dAVpThAwyDUKneO/J6+2J9L7KW/c3KY21M8ZWbA38LI4jR6tk0d0eLXV3RIp1FfNW9La6u92exq3xzw+yIQh28E+UvAROdxjQRwRTCZF7Rw+LbEyImOWkXPUwBhBCZEUhhJhKWthEfueIfClUQQ0v29mjJLUDQVfIk+k5NVSgXgaroo8yMzedJrHxLvi/2EvPbwvQt7HTJjTy35dFyrmgyrV4zbhXS/Z637DooEwxV0CMx26HBFvgl30J0lqozV/oVMiKaFiBSckpIMlxc6VczY1Y9B4MI2qQFWZWEWYGhmitYT84FNSoMVFE3NJl1UWT5iMLxxevIsy5OgNv0FmKihoGgGypoBbPweXFjm/Tf4RTu5dvE/60et1De1PWWBlaeaqxE3XLTyxCxE49l4akqJEgr+Co2Y62WxIX3zDKTabY3e2cwyyw2scgsXsM6C1V5y1K/SQZs1upnhlixX/ZO2A3z1kOKC3xVHYSD6Gy7MdOU5d0BNkytGoS0nEghjNH1Vw4ftRxcnIAqSdU4qL2B1j5o7QH3thQeuYV4u++bv1jv3T5AW5DueK69SCm3VY1NSxnfLlvX5d7ozhMEUeGrUN5BClYFLMtBgNHAqtVJqkQsAgwhUpkKZFcEYmvAW97vTSJZeeGOjqQOq2SUDIQZaJCBExDSMi2TEaMgl9NES6stTErMrDw9tzHFSgDfvrm1aKnDStb0K8T928WpJDrQyxuGLj+g5djX4qJpWyfUBTX9+ixAi05ct2DUviQVVKG8wnGNbgXs2rL1JNY2rKJ+hpipUNailw+oL1bybkvRen7CSBUY2ogFrQFyivRirSEivdYxCzJEp/MJyqkBQoyOcnKhqg15IHb5xNr9WyHbSnVdFG871EIqQFKoBUocvOV47YN0EyhlV5a6/053i0W8oFAQk7DESoupzJRg2aysKlIRi2GJSo6napNbfELKzMx9kwoggSSjRGdr8rqXEv7ag5RRubYeW3AEWMAL6NYqMCexMCwtPWGq+seiwRiJWdV162rv4vymgksObhu+RWM5jTa0aJy2TctYL98btHarQcC97HUD2b4r73zP/2LicsUSW0VVEqHsNzdmANNC8G3TJBUlCyQUtVW9AfVD5vrUhRg6pjSiKH4uPTXKgSQTdMEqacoVsAteAaVRPiA3DZuDSUGJBGPJILHfdi/pmxS8rYC4lpm/70L9y/W3IhPj2Lbc7mdaiErLaxe13k5i+d4uJm4U1IiH95tYmtTmcDErVXxnWIomySpGKa2WdQXAfNuJAiKLCr4lbMWASw5XJeGmCKxqcsXyQqQ6ERaRhe2t2Ftj+gwwjEqZYLqLtspAVdVHGfXt+FfUun0mflv4FpHGGGAtAQyAyQyGce8n9gJa46UOW1QtFwDFajUxdBqgLRVveIBuI1kysLzmIsgqKbhsUoHiXYBUYYBMC/aoUMhOQG2U0TCjIhP2QhC1txRhJncNsYhVBGmo6npZtY/IUpLT4K6JxCx/DyKqIiLNBIO8H7p8O0vMVwlY34Y68UXdMrHlv6xx+Vhfz2AkNfaWvZmZvcnL668URkkDqjdmAf/tP7D8jgydD2o6Lxsft2/genEL1aK1Vg6xmiWKIaj7gXaG6Q4lN2TWZk/WXQk0upsjzZSSD1iuakKzCklW+YRVCwM0BZgR1r4PEmFL5zfgFIsoLg3Qm4ftqom6Xy77kV1NWmayYE009TtWAUs/+50pAATazp4JQKBcLQQYV/Z6vWs5KEFWKe9oao/BrgdskV/EYDVZVUKoKBS1YuyUxY3JFibQ8oe301prs3hioxnpDmcOgyLpIn1vkUxhsKRCmdalKZTGBM2KAjYjZCqCqYnrFfFvH7d8842BOurdTHRzQCjbAiOs03KiNN5dSdnzJVdbJYpi7go9sN1agLmo1i0bzc6pPK1V9AoGTJ6V8aqqF6zaAPy2htRiin/7zcbiC+auiLQxQLkfQWCIZhxuHsP0rGZNR8SSSUqQZS/lrDdm8aiUW7cxFFXRUd9uudoi9+Yua9PvXNjqFtrL1/9U7NsSwKwOoxztS+6QRvc3y+fvPOgK7yqMQlAl26uIu14tmO3VBDKZNJhShkyukjVQVhVsHWQug7ItPpdHWY+/nk0rCFLfzNo2ExxQ1TmZGZFOknlRIkNQFgpT67ChUp2AwczMSJlxGZMFBbcS9vZXAchNI9zL3dhwRYdEuw90Isi6CaD1vwOxxTlsoazVL2RUQlN4xBEJuQCZ0iFv4KVVTlF+PFe8Vd008E54Gbfw0brloCAYt9FZVoZq7rKNf4G8ClWWh+mlL9AiumxY6kiRoNGDIyQTqGmKVWlJy+UpCevAxwRjBz205a1WGLE0dBshNLe9Y5ElQL9Lf5V2FV3D31QeADgW9nnzuu9ZhF7OhsOWZLBva1Qmg3lfVpujqNvLgI3Km0gUXF0ysPooRVtFCwtU4V0L1RzMjrCXG1zKosKFDdSqmYQGuM14fMmR0ziCD0moegJL0uuBO1BXhwesDajSkVyBpACUzugdbVX8WQTdzfr+r2t8IwYuBQEES5EqGLpE6s2ebYfZPttNbqTLiuQdjplpKU5CrExQXbvK20tek6DgC3APK3+Woagym1ykbhePtKlL0m6jf6PkBaTW6tcGZIlIEHmkHeecP3ANpTmnGYyO0BmEKVaVCIu9sK3vhEys2I0GIDvk3EpgzVYtC70wSK4kKDaa3BK146DNeAIUnEiDE4aB9s/7E5qwXqtBkTBnunW8WTmxMjvIRHLHUV1TBFKjlKcX0BKeVmDUkZNVE16hHLI499WaU5LnhXw3YdSWrt2MABXcE7JKjpM57XQ7JgfodHOCc3CYcNqUkiOpSigJJFNe1rigBcr+l6C/3U3feGo5sNXKxWXlsSLRtYyUuNHeNiZlkwDc/NnQcrGb5dp+p8WxtQFdcGUUqtd0ZjLkUeEmxOIPJJqVbWkpTVq6pzlEhBNGTFCgVZoB6rZp7Wepp9KS+c5GrA3ItsgFWdE+OWbogscj7QibT1x24RUYoiymnzAxH5aAqgYzIdtNK1yN5yvnvRZFoEGrqQadWVj4a7mBFnWtNENZ5F7Qtx1qLenQaGwDvjaoKYLqBu92VEVm1EVkyJpzoQxYrsWQ0pEgq1oljUmD4AEb8IQlnfC2qFX+290UKTA73FrPsnB3J2FyPTU61d7bUZqQRCXOEnC4yAhPGD2eRzye/mtYCIrJsGRpJyelDcsAWbvuHWKq4YmXv+iLo679lgPs8I+95Lezus1Ky1M9ERPMLHJpaPM8ax+W4Cv59uO2SgmQJnlgAomq0JKrbQSVkrvolablCLp8pFlyUCakmDD4WtKEpVYL6MZCxTYsYrbUUtsLoFij2rRkikqztAE7XNfD0w6344HQOMfQQ+fDDztG+gNpEZeyhw1wyiEh3IIEzerBN5DuqgMVGd904L/RcgsH6TfJL8TPO0pY6cNs01k+AFU7AwiZqSzlLCSZZoryIVWzlV2YF4FYGAkgoupIIFI2wGmmimkCDgyJwSFSCMCt1X5JBiRlMqsrqB7ICUVhBDULrWUmm8gvfc0qBHPIB3CMHCOZQs6Zkd/X0+hw2JGVrnF0N0xiuqG5AyaXU+6OoG5aXS5ba/eJ6pwWbjH/LR7YifL9XmDFO2iQrgooFh3dgYGlmIBVM1laBcYUma4NAJeCsrIfTCBgocX7goJNM0+/5BEmukxTJnpWQQWL39/YQokIVBKnbC0JGRPSzcYtAUMLgzrhJqo4nCPoiGnxJYx4pf9SfEV85gg9D7ukAM2i2mTcURk+Vt98Yf/KeyasSld+y0M2YmxV0JZ4YSGD8iU7tl1hczM+yysvbpEY2IRqLXjh8jZ/a8GJ1CISHJQlRlaiKolMRhoxTLMCy0hNs4cb3AmzOCDNPAA/v1KB5wH7nMdTDOSlyAhEFj9tBlilodSx6+KZW3AaXgnKQrBpNpxP4AgN5mmYdlbgEuMQqjH8tFPShIZgpMISHGrjnFpuKFDJpNVqU26JyS0DueherooVNSnH5U1vg3SH+FBVn4E75OPg3sJme9ioXrde1batrkKJmLAgAhbVx00TE2REO6WEQwSPBy7HPDAV5lf66/W0eZiNIydwMi/Nc8ZMTCJxAG6C1xAZW96n1KGHaaSgzFRpByMYwpPX4IVxJeb3wJSZP76P83xULUpeJ8eVRybAdKaxUzIOp0yy6pAs6SuSRKvlvosyuHRxuWK1ULQPELGDyTJFb8qxfyqs2ALkQIPpxbVBFeFbdLZQ2T0TaFIqoebYFhfNznOJU4NWI0qSZlNTV/g1H7yC5EXn9+B1Gr/P8bqOmR70FyKMfMKAeDF6UAYAonKxNThGDc46Fti211M2JqmII18fOI/rdZkhr+evafyOw/5xXErAjtMt6cN0uA16pYcWs7M+kT1josqEFhTRbTh6SXcIgBXmtrTTlvgvomvnecGlWSRR8dLWEjbYwdJGsZroq0BeWl0OVbLQeQNlKqkMZDAS6WTy4uXH/D6+//RjDI3xHfqGWcTDXped05KEDoyXebjBzaMaZCq1ZSuX3xRpVwhVwr8skwTUfA6MPA8mLK9D/piP12MQw/P4oM/x+rYL8zo9pUcOpGo0Q0UqXZATqOs0/u3VrrXm2vbOam17gUWk7bVpv9ARQjuNe/XBVR1HgBgVbt7gdzuWLp+PcisVneTiXRqMIdo5KqGQ1XQkTihjHgHLl+LFKZwjvomX/Zxpj+DzvD7OC48/zZJB+Lg+JoYG6U7WkICAgtmd32VmSVXOPUriHHJwChlfnlPx4zs/jX/FI/z4K47j8s955R//+JMnp16J8QDT0PftSMuS7gp8sIgHLlmnaEyVFvLGn/1fIjubuimFBZhvlNdugcsbG7dzH8vF1K+1QaGAVBnyN49SVa313aYRWkIjMxNB8XK7DBkYhMVxnA99yV7Pcbni08f3Hxy/TjzOf8yH0kPjkXOmS/ig2TAIRiaNi2KVqZq71oyCQovGPGgXzut7njnjx+Bf5sdz+B///XwcZ47z5Zn+5znsi2PYw82U9EQqovJuVRqPVql2r7XWYoGPNcLAdgRQuHJB6WXn2W/ufPg2Vb36G5Y2hgSg0U5TzY13D47evE2DK+tCFrU9xG0ZE5lCJDPAwwDPlz/Pf8nPcepjzB8PnuPAw+z5/flM8F+f/1Iw/uc87OLnt8uG6emPQfNkTfpraqYiE9FplXZgErHKoz0hP9O+jZ9mH0Ych8fPw2I+82XO89sfBrNMaab50KnTQeZgbnjROtDuFlmJyIV2IW1DzQUPKyRYhmlB+2Ww7lIVbFfVi96rXzup0RFnpzUX2yhByGQYDJUtKoyIhQBrh9ZouEwx0xAGq7qvmNAIYnA85/Pzw5En5vg6fsSpX99nfv/rHAge1+MRx/jOD3PnB4biyCCCDQArUJaT7MpbIIEpTMzMUNoZjNfAXy97xueJYf8j/9PO/+CR9vy7KY/xaXmSaQzjzMycIwHrysNt7bEUnGy2aTnmfuZewR1/ldFfy7F+sH/RjrVxfmvNNvkQ17COlfVRNYq7KlmVnTurz1NHIFv4SzIKmEoGWIqILPrU8LDxsGnzn1MB/3j+eDzdcuZ1XYzvT1z/N+RfRsZfH9cn/a9E2vxlvJSXQZaG4r5ZlXkgGctYU4mQMmfqGDiRfOLHK/+iV/z8+f/+138+86HPPw3Hf1zx3zlgB20qHMPN87I19VCB3Wne3H4x4SjAu2gaW/7UeBM/y7+ySi/fQoBb/lcU/RYV37EyNHZg3PGmMX0lofYkAlsb3DqpJv2XHwCb+hcyZF4lmCPTvv58Qv/643/y5x/Hx4eZ2Xl8fH//+Bs5j7/aMT5e8cD10/Xh8+Ufk+MUL4DIAYEw865+IRKhyqowAgrMifDjYdPGwz/+Q78+r/zX3/86fh1x/Jr4/z3++OK/Tgv90vEy/zJKh3iYUWxgu0x405G/iTx0e91molbI1b/dzrgbkNfyS5UmKPfMbZRY4f9+42gz3mrILh/yXJ3hpY3LeVSNEZoqEpRFYzJR+d4QccmU/DWuOCw9P6Txr3Hx44wI+/4G/sUfh/l/xBi/7PgX5vM6D7Njfvnry3KmQ27TqlEdhrTu+wMyOQMxTZOYhngkj3iMx3+++PjKf3z8XRnPv+lvYX/7a/x/+F///Nsnv79kMzIN00Oe7pgy65vnwvTvyUa1bdUiXxKo8VLARilLrMt29Zi5hUKXrG/vuxVCePtZJWRuv1Lzd3I7mSKkWyOLwdseen1tCfaETU9RM1Oe35gxMc+Efk4c8/zz1PXL5y/Gl309aAfCjiPxwqQ+8u+GX9SrUrkiVeUhs30kkUHkhCK7V4PFPeP4PNLGv74nz3+eVOT4M0P6H8TXryP1yL/SHjoSxysfk2YKnQmKlkLKKvpfoV0H+83Ersq+6l2SdlilJeoLfO5IoS2Q3hg59f4KXWDMQpnEENeugqyOwrR2uCG4wKzCzOZKulCw/aFWIFK6Yp6imHHExTwj8R1f16DO+cVXjOnPX8+cDxqnz4vfF5XnlKafjyPwkD+YZmE9gkJUrmECgVQqpZqDKYIuB8Xg+ev405HXP32K/wee/PjP+f3fD/7l8Z8z8TzOOK700yleqSwH0oXB2eRau822BupUNLTozB3nrmxxh78Lu0Nrko1qRcoErcqr1hbr8vSukxtoo7OQUkOPduA1JLMcH9S0hKTV0rgGI67yUBGUjYCm5DpdF774PXkRH3l+kh/P+B6/TufLXmG/7AEL6iuOmE/a0zAMJqOqGZIAiiOvuoxkgrNbEGhpaZhX6vvy6wXljPl8uP30/GM8ntdTiD/9z3m4AAag4AlOcXbCkORqekRunwZiVUERHbWtELiN1LY222X0CFj9m/jvqq0241XSo4a2o4WYBHfZRBKSrAsGEtajwuvzC3uqdqfVziSKaaiaMuQw2YW8+IrM1HVkPP14uvuT48rIefAcCb1MCZscsnGYG7zqTmcVqisZISorJRk9iS4B61meZlcK+CXAPfXpdHsM0zGPgeN7zonMS6hREjHtBU+rJlegevc2hlzLotzZ3s6+L+BTRgi5bQv2IrQQ7xUnbjXA8tOUNY1RzS4DqWoasarJ7nlFyx6iutpu11Pt5VlTNFZTZBOlBtLgnJV9cJcjcaVeI86fL43TYxxBTYgjrjkJSxeYYwwfspoGUA1zMRVA1DxJNeBWZhPAVeFWabOQhx02BvkX4zEdaU+6PiK/ZYnrFQl60jWs7LFnc61YAoX1qV07qUU2tj5w80D3nx3mLlNcDqO3sd5bmtQRhFW/TrXsEMRob1y1C0hTmkzKxYhU+eGiwisFshJS+QaYZT1SGmkBA51OMd04fCCFUyFR80iNwDFT4FlCcpgPemX2o4YxJSYRqtEspaRCBPrqgCRaVis15GY/5sfAYT4G+XCK/h04Z0RMC1jQgMOFUY6l3W0uVIdtO6onTEgWN1DmfqXEyj6xy4p7G3LNSesZCWy0g9x9pHiLnRcThFUZt52AiKxaozZ9mUv2UY0rzR5u99t+X7aWpTrL5ZkGWBphRuJpT1lofAe/ZlxTyA/H8JHjwHA3GyAV1Y+qjOVesvSiwpSUihiv+6/aDidJHszDfJjbFDJMkTOVMGIMpRNuhFeInUJmNulbsrV5nDI3xUZUS1QPbai6VvZghncYVABnMXC7fLTji3dnobvfs/xOw9Bc2V3LrHEFexJZm6TM7hyqbAQ7i55LBsxAGLv+NakgcQCwKjMmQU7lFMzyYQ75Igckr86IRGRGFttMk5f2l+LV0jdCLF7FYARIM8fh5nbUnF7MFDOYcDFFJ4fn6lBepEou4eGqcWwz0qNoCvY3QNKmkJeH1Z0H3uWj2EZH3Z29JP+2WAkEFCp4NUolJMsMbV6j2EehOrVIpKpNuryEKk1RequiC0TH9htV59djYKov0CEFp6oCdpBejSLQEdVHihCuqi9kl2+7KFWzZClAwZaltQa6EW4cEE2UlFXuU0JizBwIPyjzIFYWgdvsNrZfBFjTTz3D1QBll3dsV7rNv7qyjAV9lh8AKhmgHbW90xbrBIhFeo5+rhIwX/F+5eJDRNIz2xgF1pyDurpqzr6UvhSoRyuxQrPOdCepTFZXE9yILltD1TIgqEjYRB1JYKjEcGMCFTfXI7urgYcwF5w0B7xsbzUdMUKygCWpOuGgKNwkNVvuc4VKi1hciZgOhxq0iDV4axlyNrCsZ+taleogbJujt1hM9261gUfJbXSpM0SOnuhYXdBVMZolFVU1IzJhUmYNbd1Ot8BDZ2mX6wFWg4hQ1RRcJsOonmEAZHVQNIGHKSXTak6EVyqgi35JiUEL63GOnSau+aVmMsd+eqrvTJlAN60ChkIIQtH8HV+sUB65lKuDn7V6BnkP4tlMGrtwEXuWfbEyKxbbwFTL5rwZp4I0q2+5mt7HcsGd4Vi9nj0itqZXch1ZUoO8spjoHvUNCcxUHQ1VW1RYuoqquR16jUXqHvuSElUrNwDrkSYbKnR6SnWGSohZHH0C1RJZRVTObby7kV7Kyrg3XDKrKaPIOuqhSiCEBajbnbZelwdGETvLhO+/DSmxCGh1nZ6tD9geGHeW7K18Zde6rTJMDoA0StXCLGZVuaFTbSyic0UqlHp0Q3uh3vUq9MFu72tlq2Vc9JPejKTUc0jUDqdYN/aEwQ2oWEWOFA01ireqibBlu+uxucqH9gEvhRRrop1q4kPdQIttctnidgZv51S0Cqy6rNsCNeyrpERZLSxhIhcmwfrh1gZ2fN27vKIMVY9YXcfA6gmrdoeFywoOt6iXe0uhRy3rJjqqQotFjgjLGjaiUJds9Pi1t1kIVQ1Utgs14iQbCFb21GHGvs0JY3Zxf91z7Wxm+9EiqRar2+k/pphZBySwITXyrfuyFiYXm1IfbVj+5jYnS+WbCKoKskaajch1gx5wYdy1F3fQvUDsEIAefdhqYR2nFGFRUlxOec1s6WDCTFy5tr67XNPLgOrut620HVdyo4F9HwJqHguEOjSu6jaclNeIgWXUKKZ2MqUD0xrqUM52lU6uPFSZDdVpPll7X1RcdcO21KzQrqEmV4yhhX90v2hFX1qLvMzXXddQWrziuhuy3mZtL8J4i+vYfdG9YsufaxOt+1beApEVnHeR/Va45bCa193PtfawOjIa+WGNNLoHyNi60TYTXQuFGtvet5MrWBdqDEg/I9Fa0NV0W2RvXpFaQ/n3grSUt4mjesIo0P0n6+GX2ugNRS216PVfnnfr+SLxeq/QhqQGR7U4ZmX/217307Yx4TKVnbzbgrvumzV6tBzwzkzU3XKV1msTKWVyKsJan0YCVp58P0FVpTRmXunq9mBaHQUdSDWo34XJXGnG6kDqmZr3Ii+5KmagnrZMOTs5zq74WLn3u+5fwN1D0X/ulQW6FPc2PltbVjyz2q6H7p8v07XJ6Ub7e8VW4v7+CaBuxKj+rIpdb1FXP+2+/ta+gr+56HQ0Hbv6AotdWQ5oOee1q9W+R6B7iLapuP/Zj1LLsPo7KseyDGV1SHGT+DeUL91rWk0rRbAEe8v+7RGWtdFijZrv/527u/erTQhHC8668toPg3KJRml1DRXDjhuRCbnKqpako0o4V9CuddGtUYvRendGdYfqWlUsx7N8BRFcOoc6D2PJyK4ivm+91LOM2TYO+3dYiGk/llbf+V5atEiU2RA2itSNbNYq9DC9tarvORtsycJ2F1zAWKu4FMsJt7D3g4PM3E+MyjQs86Guk8geF7EbSdWhQi0570VsXezoXHcqs6ZtcZHnGzlvaUSZB/ST7aXaynDrPbemqcsWVubwbmRaFnLBAe00ZLWWsPamRKTLPxaaWte8TUJbnTtLrrc9xP66d3bZ7EXgtwCRY6ei646yfebaszau6/wqrZWG6gje2pk6lMJar9aK7vRRvxlrk9f19pPVJmTPLWUB0hZndu9/PdSerCC24HXsB6AwF4E1Tl/Zt9Adfm3xsbU+l0wAVDMZjX203O6b+qxS242Xek/26J6UuBAA7lftT2j13OoLYLSAdSBVZeYqTrOi7tU/qmK8rengumaiigv6rOEdKaLh8W/WeGcVGuN1fFOEBdbsRK7lwWJTVtyz8OLaV73tL9uRED18pR4VK+jRulBLp7YS8TaFmyKr+AFSFyMur9wPslv4Gs0hl1HXvU23AC+J22MgtgozMWCoU2oAIIkpJry0QahM3nZLTFW8WBsd0EQAXgASRM1gWT2F2FKnSoYuye9eT67wTFYWiMshLpO87SMX/GuVX98t27WUgGDFflhy0uZwpUKWmV3Q/B1obDvV1yxJ5oYV7A94t+F4C3Gx9LQ9wPszoANUQZ1WL8s47OG6jKJlVJkPgjROcBKzO8S1/SPLObMmcaxbZ0EVroOXElhNPEvlt12zZvU2WfLbXeLNoK8cOJZh5TJie7H/7SNqKFNRr20Ic+9fh8YtysslriZP3JSSOpfLzjgQ2Me3VzVIV0mreEPcUWy/+c0BL8+zd7b+ZOvmqNnVFnJ9gyeRl46YljUlLJq+S8KtBr1ZFocp5eq0Lkm3JOsUCruKylS00JdTXECOpRC1pNTuuxW4OiNuscG9wu2BFu/4Jq3bj2NH8HXlPeVHAIyV4cOCCvtTd+Cjm84RKlNe9ofLirMoJFvRjQmKrPl5bTJzUapbeNaH60ah/XGDjMGX4ZXxAq5M8TLkw6cfMshO43TWTB2TgUO4EkIqyBD7hN00WmnAHayvC3Grpsj3gP2+y1JzLvuwNqBg7hsE76XmXraNZBZ46liXt8u7n1dW2b8loot4bcCJrbHdRaE+ne/NerVvLFtZ7MYa1dBUB9Ys1NsDt19r7dWSQoDjOMUp1IDOeYlyweyax5GT/rIjgByBwSfy8DwIJiKRTGMEciJlpAcAF8ZMZ9py6FjCsCPHtbLcFR+3yC+s08KCWzaXHvNNYLf87v1dwHS7+1az3DvfyDSXWrR83EEam8Lrv3UfCa1Wpjq0T2vkD5sTqcgJypqS1M7jhgss16H+ej3ymGfyG57x6fMxYxzCEV/kF65fqUyMb/gcL33m60OH8dPSBcyZeYES5swJIccQ8Ej4pbpDz6rdqYTzNuYNxvfa7iNFtokXtfDc225tqd67yQVRoC1f+zLFU4vbAXRgu7rtNkpcLQ+NImrtuCW/96i1wpoaFEMWIWGClqakBzJW+GVvYfNvKr19YT/0iF+m8+eHP39G/pXf4+sbeH3r6x/HSU/8iJOcr+M5LSO/zo84P3TUbKOr3GCCF6A87BrXuIyne8rBKpmOLhu6DXMrZKGh5aN/u8G3mByLovndHf8OMJbd6oBvzYBayqXdZdFd3W3rVvVCfa7Y/2u4U6JRXtVAc6PXfB9zTCg50yS/NKd/C6GHJqDOI9z3v+8bW9CWWgDj+Pz5R9h/zfjxup6Jx7d9KDm+v37O//3z+n899Ldj6Mr5umzauDhTNhHS5dKYcosh0YI+bZyMg/7IqCItGjIW/OXyxC3+5LKSbb4bXS4BXzHAjsH+T8SpIPGGmUuxVsgLA3puL9YM/jbPi1fc5M/Cndr4Z4GBrFSokTRnGi+b0hl2XceZfjkC4JCqnMrWvnZ57xtM3hj7hgbjjx///SPjx7/4+f39uBLXA/mQfTzm8d/zz+HxPw788vjbj+8vTMWMaa9vzm/GSbvgD5l3K7zAiDEvh5wpHCXL7a56TeubpjzZPrRJkBV1171yuch/E/V/894Lg6/Ez4LsvA1tApnIrnWEjM0p3bH62liuklBhNcqja1/SzDCSyEsXfWokMgDKTcXehAFRDsgWFuG/3y82FwEIA6Yr52v+x/j4+Rifxv9p+XcL+Z8/xz9/DD//8vPr/Ov8xx/298P/97D/w8/w1/XQfB0eHw8/nnHkHBZh1ylT/KEc7401fSlTL79uOvu3P7oNwi3y2qv4G9qh7jAArVggN52+iFut8eHKVEZtwBtz9DtO4f1PsTLlP+o4RRkY5Lc4MyNtDgzDCP+RgaEYeSkVBENm2cH0IgfewGi+YUBg5K/5+uY/7Tj/tzz1GOcPvuL5NZ/fp79AfhIfj+9f/5fr/L9+2H8+48Ou/+8444H5YTwlY15HvgYnFFSMmOPydCTCZWkrRLtznEKfoLn/v3whdny6UcK7f+C9DW+btj1kmbgGklVWIaB7msoDtUFYmqFmVZcpqtWvHDSwHDhNCWJ6zAzlANzMP/F4OBiTc756dkxwmJE1pDeLyVzKvDT1zcXVBuBfpj8H/g7/x5+e5PEDh8V/gUl/MV+Xxcwf8r/4OT/j9fMzP4A/PB60b58Q5f80TBjcPw77OJ45H8KoyY+FalEQjMvForOYaJrlt3Bgh3bL7nNhSeD9pW+bUmK8UjBL6wioUr/F8FSfpy1E2/HcWnY0e7jgIumeh+fAUefTPK44dEmeHw/oecwPY4Ze38OuaRcMGF0Cs0mfZpCbilk4ocVQADhe+esRf7ukjEuYP2Hwn/OPv/wzxutP+Bymn3kAz/PIr7R/PnJ+QDEtL7sOvDyJ054+H0Zcbj4Gwz0PrAL8NWhj0a6/kVb32q7l7dVnY9nf/xD/yw9W5ATV5E8mV7iRK+vTcLRH4eitzIF7ZFbF7pAUBEGvjauynHG4HkrSjU/4DwP5ij/j/IfOrxde5wdewuMVuKo2D1u59fs9L0S29mhcnA5NvvT6OsY/P77j+a8D479kf0yO83AOj0+PTwP/fM1nmIXhIQOPp8ZhYZaPcb3MTOaG4yJ7dFwkswqxrRm6SkJV8nkjy9/B4O8+Eb1Tb9+vbXqfVdqfIhbUr0RydhFgtnXpYqLOOuq2DMSyT1KXRROgDPIedmf5SDPn5zyeYSl+X8fXP058Dc15THvCZtp3WI4HzKu/B28O7N983npMDj/+GoMZX4/QyDzOOGYw/mn2j/MwPB758Zdfjx/zGhafL+Qcv87P04bpRx5f9nEdHjodTjt1+DV4ygBP0SKHwYSehLRDE3SsUlbprYryN2+F7Wl3xgLbK6+ZAe8fSNb00gpdK1cVom60q+YKOwbAYksqmK1fyQBVGRiZAzo84nHmJ0Xz1PgzxvnL8Y8v/Uo7v9x+Xfr18u9XfpzmaU8YvW9237duebo3goSG/A+NROrnpb/k8/kK8TX8JL5+YA6coTm/vv4eP/72PObzv/35B8avOGK6SUf1uB0Jv8ynMaSZBBjCASPrKJ0t2eUf31ZNW67ffPBac61Ias07uvPLeHvPLV+VnivGt4x/udL9iZ2F+C2gWLCMArVKwDhA8xh2HU7DpfDLZ07lfCW/Xl/ff79efw5+Pe3rHP6n//jzeH7hQ3gccFquERd4S6pvguPelgEb/hywZ8TIX/l6RM5/XfHF1GkZlqe5kpfjT4snPs2Pj/PHzJwfcX3E4De/pZcsaK+uISEUOS3hWkNAVCRj2MqergzzusE7WXN7iuWD210udX5/1Y7VBHTHWhv/svINfjsaWdOodCOwZQBX6Aajwb1Pl5zkZQF+H3Ge13Nelv/SGV9XnviTjwDy5T9+HePPD3wd49QHT/OoAr634P2++1v866IjkWETA0n758czkAwd5zD4PBBDv8b4pr3MzBT6xunPOB72AzzDv0EwJ2cSk3YoAXNUl7XXWfBVxrOorRSqjUDUnvvB21pumrJhyRuNdAc2t8/W/ndxvQvbbCS0NvFG/nxb/40N9++7siwxPCBq8grX63DBkLjSbD5GjJ/TxjfF4OUDPpgaL1esE4dsf/5CG1yYawtAYhzn9/P89REOjOmYH5Y+zisP+xmumfEr+DKbPjgYppCPaf5LzDmOSwwmwmgPuJhhEwYzDXcnSdMaMWLBFeX0baQBscBQL8lmEe400O/mc0HNNyuy6yj6ByuzwnsLuILPdZ3lBgWIbwYSCpSmyDJ4WYYidSAHLgf4MZ/jDConXfLrmjG/Pf+UTTCmcJlP3DzLhtJLjLS6QygIY1zXx3l+6vHQSXK+fPKasBwuD40HlbKhxzMeR/Ly16EBUJamMFV9vPXgcoERnnSucXIO0uhMNENbNiqhdYItd0EYsOMhvcnnSkpzQ/ZbfN8is7fUKfZrVlC266p/MwtrH7RXvyaUVuVUhjBpdjrphI88jA9phk0pEDaBxEzlpTnHBJPwwMpx/p5awi032vuAYT5cD0uK4Xke3xzKOUYaZiiCeem0uPJ7Qky/8nhYwi8No5vR09KcZjIPXsJplHM1EMs7MOquwG7ABpEpW8WE6LMgVy5+jSUpIU9sx0ntRPkm2ffeaSfLlkY0IZrL3W/R19Irvf2stqmqU0HR5ArHND2fPIwclj4wXuM68ZV2Jqb8FYgrjsAwpQN9KnB72X/bA7xBUhLEMDOBU1Mj69hqIKdD4nxxEhMxM+Nk+qAdhAOUXTEMjgE3kwmOSGpYXhmRhjSYJUStw1UTayKlln7mXcqE7Zbe7MQyNlum3oLkZbf2U/Xr8OYybri1DH2nXrSct7b135pRJZo1v8B4HHaMHIcOm4dFIAdDmq+4FFDSHG5it79D1XfxFkPelqgv31R33fOg8G0E9DCbesjzyKSQ6efk64jL7TweGMDhlgf7uKjupzAZNercBHDCMgavJObRjftCN/SJSFvTqQRoH4F6S8nOny/B3BVe6wVLfmorln19o/f0JuN7R+9f3G9obMrfKgfqau15OMIfOR7IgXDMPlhRoSuBWNU1VcgOYI1Byfsyv2GfbUMLDBtgGKEAARdHCEN4XCI4c+bXzC+P02liagCDaaTJIoboWSdUVNuepREUMRwEgzZFNRcgecHE3+Dw24CXdx+1Vmrf+yaZtSx+r/DyFfyNxgZ+f27tWE97F/RGVjdHu5Rx5SRJGDSUh810ysbKcfbZiqa01DqNJ41VUL8vf0vV1kPuTpMq32kYyhFpcR2ABS83wGZ+5esL58swc2AeMwG4pdsAPOVZ3WuKkWmKaRkUPTGQ0sz0OqFuVdsKoJJdi+hp6pM4YmPFN5IWrQwrd7OzLqjwuctupBXkLaxzb9p2InvTtEokl7HizY5WG9CSfDR9C0BB0egueI5MS13McEiMqiTMPhm0ztxbLblr82uzVxIWRC0+2isOz7D8cpxjDsVj2mP6hPNP6hd0HSPjuHxceB55UMNVafhQhJIIRFpIQnW2WtRscKZy3cWyulv1uNPfvSAr8VXroW2933ekuJpN93DhSP2eWdw7gFabSgXXUqxdw6pJteU22lrWLHWa9Qnc9TODJB5pdbxetdc40HMEiuartkFyFVR0xazuGATrwtxblCOIA5PzMrFo+mSGRzCm8+QI+DUGNSiHknmxstHVRlypjkxDrlMvqJGK7LOaWvjWEnWJCffRfcT2iLfQ/F4ocSfI+W96cruKdzPG3359k/Ba+rRcNpuyVzle3deAgHuUIgM+YRmkgnGXClTiW1T6ftuqZNwmTqtjAiTW8et9sg+GQJp5DOaDfsg4Td+poCt9csTxIB+eDwDiJZ81voPRhWKr5aT75qpPWgOCcuYqrGEnP+qRlpHk22r3OhF6J6rVKOXtacqqaH23EmV3tcSbIiwk23e4TPxb2cMq5BG4SinWWwHVnAWmbKYjghQUnTcYTJncVhoZAPrUtk25dxVafeASJK3SU2EYZW46xzUGj/GdmVGzwz2QOkCOI4YnaIkj0icZ7N4vq9ZqTzjSlI9EyqKAO1O8C8ba3OpetjsPn28YpC08V0EC7+XAXsY3vFOr3LmHN7iE3sZGfu2tbYVly0n8DhPZk3eSCGAYZEjmmLPij8s9q22UTjMnDAEGGftg6t9SdrXZy9OwZaSmXqdDGFQmPWRyT7MrA1JYfCUuADr4Gg460zw0Ji3q4Aste06Z3JCuAACDRsqz++9rz6lVKtPGhl3At9NzW/23OW+5ahCzhXiv5kaeel/CN3XZFQi9EL0E5YL2QAOsjes9yZBlLqmhhBlQKkywfIw03+eI1wnRfdiIqqtci38larp/3cqyTdzMRz3QYEZK0yTLi0pc9DkzztCMEVF9zhpPHAeimtfuM+5LmMqgsTCAzXRoIKMPTMS6o12/uue/32tfTdkS9Dvybyr0rjssL7ootxv1EOj+sDt7sOtD1s60DNbRuG2SdlqZ2WdBJ0Wv6i3L1LyCmUEKA+7sejigjqxYR3/fpAp+r+vSbzfaWrc6PzhMgNXZLmYIYQZeX9Kf8F/6NPx4+pMf8iN9BNTe1xpdQaihJpBGlcHQ5EpDtr4Da2qO3iW3lGO3r/TPbWFtYNOSS+zXJ+ynuo1917618mh7kQVS0WRcKRhX8FDd5qvVyYKgq47xcDqpQAbnNCKDRhtMc+OogISiKWqKUefQllHACuZ32F0XXb3KVM3EIIYBMGqQMosT8QJeF3zyGfoEfoLkETYuIowhdct5TwyTqQ+4SSJkUdtiZUyt+0+7SZ+1ju2G87cq+x0J3UZ5neS9HEX3QdwLr2WoNk23XQzUWRx2z1cJXn2y1nvvXLEWPrORw+EKR4CaVNpEiKK3DprJaoB5LNhQteG1l31dLI6vQC4WE32TvAQwaCY3m5RkOgOncV6HRx7ID8snptn1DXthTGTss/k0l61mFbt3vTZhRnGjrZaGXEK+DAx3oYiyK6x7dUTs95Gbw1xuO7HSt/1JKyvfH6/V1KNlk/qj0CRx2em+pAnOSsrXXIxBH4YBkZM2k5JckKU5TBqIHGAgM6Nmt4UAWHaAxTami9e4bWkNgWp5Y1Gvg/S0EQoZlAkLOW0cFkeG6+UYSEeMpMcalrhOFSj012crlH3pmL4Mri2/qfcxEh2Z1br2xJIOB/gWp9TTsLc4l9xXO+zaPNxsdduVfcE1la+2YKGQJuqXAqGncbmqIxtyt+E1hWtSL2BAB2qGdRgsHcamtRapDwjJqEh4QzO8A4pb7FWzh1MgHENQyqA66BJj2GWQHXPa+ZJ/ZY7E82JcqagjfrAOJMdmg9cqNsrGnV/q1hKsgOqG6G2Pd0EWVoC4Fl7Lrq8TNdijBQt3ZmKblnrSrr9594GEmggvJ5DrxrhPtm43oiTgruPBp6FOtjpBnsRlECJ9psPNxjRXWBJpIaImuRPRlvTWy74Cl6qWE0APYa2EzDrNUQH5QT6IdAnzUlyKDOB0O4EzM3V0N3YNrF9epq5SULP9ZaGEFaGuf7lsRHGjv5nxHZ2xkgNreEQJfelNzQdBNZoDPfirNq+eor1zZ0IbhuOuAmsHQGbz0stSmNkwPh3jYQdkmYG0mZbKRIZrmjjgZkO0y0iY3GrE5xq8glXTsu3pdjwtcd2glM1QVrV1jQQ3jYPDdQG4pvCinzZ4PC97TFgtS/WCqEVfDek3g4mtCfWw7N5KLniZS1vWsy+DSSyiDotS0S5iQ41SqabSBZmKad2gVQsVVXX62lz2WZfqye/WQ1GAaqWhCIfL3R5uT6e7maYYyokMy0xQde6cDuiCwMhhytTZHbpMIte5lHjfAkDdNVgPrjqgrV0FOTZUMK8MSjLEDDLwSIzAp3K4/DBPMCoO7Gs0wbAGv2wYs8L6srm2UEDJ/5pWuJis9qLb73ZXXCH4NxTEqrXqSTO5vchvzrqfGDXrrerdWhgsq0GgGqSXXtR1nXyYeU0edMUUZzLJNEvhSFnikDwzQ4BgKVX8Y52jQr4F93fMz22uew+YomqAGIjR0ZHXKU6ZmhkpDVIcoKgi+HlIJ7RnexFaAKfz6L0erBlqom1Yv+NXvJWtqc4H07v77eUwltnh8s7ltWuCYE3PVXvV9hyLz9tb0Aa3d4OAMitw8uxjjRvoGs3JYTSrg8CL57JIq7lFkjjpmK7LciIyB4M++yi6Kt6QNxGpxmNtUNtQACt2aIOAJklHgLAjcYVDNAcnmE6a+eEup4fRLKmrVLlAHBaUWP6VO9IhqrIsO5Rqakq57V9k+6HkKjAsFhi2EOMdJhflXsX9UaNLV4TWCYMu9m82Y3HPfXcSqjHD3xJScIFlnczczI3ORjcxjRcYDsloD6ZscvCyTEwyWEfBVQmo9SjJqR4psjSgsgraG7LV9fZ3gDQA1GGWSCTX+dvupjGMI2WiFTdV43PK5KutxPIH20pw4VFAMO1RFkAXamamYs2hXDarZl8te768Zb0vJKVCGako3qVUrkIOsgerlh/Rpv8LFJdzKUXKyqDWaECV9yPooJcQ1WjnZB3Am8oBR1V0SEcqJJcPs2E6iJOakQkFNE3Bup1iBjYxi3dufRnUXsTEMHAS7EHKlDkkZ5U8AJGI5BXknBbtxNGGVb996Aa+C4FuqWyuatnwGmtY4k+gu39KMBZc2mMkluBHZkZW12WSHeRVuXOiIm31mB4AUVdFsS6dFAEpI32RZYG12UX5F7sm1Yh5FzJ02DSmMdNSDj44htvDYhjS/AyPuCKKh1QWfb0CzrdEKLhVu5P3dXjHgJuAhKeKWjMaHMOrtCRTCCBoM3voLpvx2SqA9jq4DRMblteO5W329wzWckTb9K//yFiR/vIXyJQiVqUzINZgha7EXw3fS+n633JtufyKgXSjmdXh7IXXucWnRzF2e2YKTOWkBXxo2DwUM6OqzEYlO8BJ0vU0nUYMZVUf1QavI58LY28ubq2W9i+HDCmFfFI+SDebJIyX1WhsSvCLPiumKn2uxOB2MyXqXLrWMFEdcWQfhtgL2rHALeplGGg9qRNWYydrq2r5Yw1N79Xnih36w9YebIgqQjWpvIYq0+Ck20K3BKrbffOAkkJpqsmdXHMllTSTK0J9ohNjWsaYkoU/NB56UDMswjK24ewBhuUx65+NWIDFCBmGgIzuL6JVmMsUGDTJmTakZ8pFrnHKPSNshU5L5Lnj18a7NWhda+ywahZ4vk0PBVmOenM1BvhSH2VoHZpRBqbDN1oNNufyQFyAs7yAV22/wQyVNakufrPCPer8RB1Y3EnekqksZ8UsqGpo4BHMYAauK4/UlB9M5/HA/MExfXx7XoQM0QMcuUin3z1AEX6AjA4aRiYiTExZJBNgaExYHbk9jDZKOa1n9e9ztxoArTK8/k8zzmvpK0Ds4cfFGy7/uKPdzT7I+wA1ULmG4EZmCJIhUQP7quJ3DUHBzeO1MaQMGIQb3Wm+0CbgDdkbKYgNDcutLBMWUGWbQBoxah4EEMiZmDNTgRiEj5HTjzTKX3IWSJ9l/HoILbfh0VuiBlQVR2hkWiTlKYYhIy0wJkwkLNEnrtsO75pI00rpqXViG/3cpr/bU/Y5vX1S43LUmz294Tyt1LUau0IIVZeFQTUF2ponKktCZB25thPNRRcZ6cbhcKeZtRVqo1AnVXS5ZLUwoHEjSEFpkPfU/Zpl4hIKjaSKNh1hNe9kcIRFmKYHJe+5kZW9WNfFCsnaUBgs+tuR2R2l6TAg6EGHDdU4+aY7DW5bdrEpACyMW5CveQYW1l+R97bTKxNyo6WdSYF1KF725z7NNRUNbsmsBWtbV72gqR1zLtbPzKqadpDOVX+CssUtM2nWSLHLJIs4AVWzk+ijyxwsK4Eb4ZclDebuGkwLVZ1TFkAJq2xxVaJqWcc2Cks5K87U7ifUCC7QUOdm1HO2gNdpxo46+RWL+uHy42xv2pAPvcyFsGrgzTp7aWkfb4ehBQ3LPVpPq81Gnx20QSrBR1OdfQ5IFcLcbTCgIDNjzbR3wnb5WU2NWLfRCaTlerS51hIF0WtefYlmTuYpTHrFHU/zJ0bQLuWlSU75Kc8pKWCAs8+mXc2aKynRcxkKGSgMRmgku7CNEFRChTU3/k7iaCV3c5N73PTD9rvLAWghICDXqAgsmQDQqLNsAFBL76RBEAurLsS6UK4cucah1yz2bLppDT6sajZzcHhP7uICRmXreyhemXtrFmgnCsrU1xub24jISOIcRh2HWx5DPh4+JiwUmQFczMuYSTGgYI8i7KzzIpywwpZ2eJWFM40Y0+ZUTovEVDiQ1WgVlWqvIVSlEIQqcYxVj7bDpU0daMdZG+/3mhOdgL5zLdZNNPSaH5hQKhIZyLm1h11PXZR+VbUKZl1cUo4ZImXF7FiNxy+TkyqxKzNfQtkdeb2hKxDpw4wcsERCVyZmSMrxHKIfhuGiExUjcSpnXtKUoPTCSY3T+9ZNWtVyRqoouGqCGoBjpF3GasWBEmFUBjkpNpwDu81xhT2Lz108wmYihHv18TYbY+VANs1m3bCI8pZuHG0qmIkIxcyMjM4cmOpsdxm747U+g8Y+F5swqJbdakd7iGBmx0QLQbCSpbQmIhaxu7yASwgx80KcmhlTYYQOz+OR45HmgiGoCwjYTEsMQq60TGYAnWNeySH0Fleq1lxmdJoNamgkQkYzgxRUpKdCCHCQFRi1H7UiVWX7aM9Ojgg7sYgV7FaWEjsYbODZj1uVHazGEzNfhjpCkZqRUeSDVOCnWq3ZNftwoxnMu8a4wY+11TGVbqxIfJk9vME/7fMK1MiJktEqgzcDOQOTuBjwpCcO8jHy+ZxjPEqZprtypB2wgsWTuKjogye4ARBlVW1ax6wNOjku2iF6juID0zI9YobSog4uSjK9G8/bTfO24VjO/d/EP5cHgBbPAt4u4AaDC/zQmkOsc6FzzozMiMgaJU5GHRVqFVRxVHjVBFIHf0Yzo9HWnCdBUKhz8MZmeCrx1Inr4lQaifVwuGSkRcxI2EWbhgFppMZI83S6L7xN0jhkT5nJwuoEcGM2HoajjRyNcHI4RAzjMGbKXWSMMcxfmGXD9O3w9MRY5iNdebVU3wTZsv6Lam2kmQu83Ih1oQsKyEoRFP/TQUAPWuw/qQhFxIw67MJsVlKtj8EojhDDygrVLlaRr1Xwy8Y60RJRZYZq0X/b1B4dzoJeUYkSRDAiM6/Iy2ZEaI6R8zP444iHYaQzFBm5uQ5aHR+UZnRjD8UHoQZhBYiH22GCsTYgmA4BMQTTjEiP4xDk44LL7QEjhJjwo3xM8W8L8xQILQaoyWYJeQOY1SfCJfc1raCBS9mM+mEpVUqKbN4nE4UxK6fghBvczQYxCN9OqAScVofedsyvIINIsSq2q1Pc+o6pdZjGmiPntm1kpsIiNZMh00k/bcz4yOsHrweGZ50DlAk65cwBRcNi5xiELNgTGbwiaeNwG+bDRPM6qtGQBkA5MDW/M2Kky80HwazFV1oGsnIglf0qDqOSmqsGWF0E+mb9d1iqnTPBsha93rbEX9tYhypPEFkNlrSgq+OEMWgH6AYv/FxwYJ/lZxsfp9eRKJvIWfm0TX9o1Y7oZmMxik1mkAFLZnJkiNdgAIhh8wA9MmIGGVFnBcYBkkpnHt7nGWiCE0jteHDAHO6QwayIQmQ1uIyZFyJ1EnFRygf2MW9CBFEZ3M10LuudO6Vbtmdxzb079XcP/to4o4ETiDrdhV2coE44ZhYV0Iy3C2YaA1ZhrVeak73xqvHQ8H3cXJFGMsmlUZUElaFjc0Des0TLcYJm/bHwCCqTgqUsnRow4xM0pcU1Qng9AJc7g8h0y4MEFcVPmZUdMgJMDMHJQRs0ozlEmGVYnbFGihpXvqqRVHmFMVyR/QjWt1L0KvtAv0oKCD26PVFSPyNjKlIBporzNWB5RQiwvZEbH5T1T2SW423Xi/KYklFuNEexC6u8IDMZ2QchVF14UQ0kkAY7BKM7yT738r1GrjmLpFsV59NYaUXXBIFRR9DJOR+uh02bV8Q5z6AP0QJWx11yiO5eRs6JIUtRTgYMOIDRUaGtwfu6JRAQMeCXjTGV9IHhGHNmdthoWcd9AVIRHSvMXecK77grMzOkUEtbtT2gs1EszvIest3YtFBVQorolHE28DfJKTe41xpp4fam6soFVEFUpkzt6+CH+yjyFpBZmkkSE06ISpFRybEctRJewUvsNAMgKagrGdNj4jwthzhiwi4TPGFgGbMkLxuXTJb0SqlVoRH84BjuBNWSa7Wyi6LgOAz4AcX0AR0EhiNohAUGEV4qXfmRVamwkX9x9p3jfTtZrOzPbbMqflX54kWHopv2EUKocsV1Xp4FXFpqzZIg9CAwTHIdgSSu/B7llsN4wIbMjRIClrQEs05xE0Bzkxnk0qF0rQItIWFIm5NCuMKVvIRslnEmZkrxumAxk1GUCCnCvDLN05QmOWCUEwc4qmubqHKgWsGOYAUA42FjPghNIyNTp5s0XG5hLpp1y3LxAA3w864ql4Bt/1HVwml1uF874FUu0Vdd9GSRVVm8QyqrVEKLyaqsrwODHKTXcbkMVXsIaxRf1fnQHTw4TC5yElnZDkHAlJVZ9EwQVetKEywqYkg0t2oBb0HwaTLoSQCZSubkhQhp2nUNRjopG3SaK4YZkZVV6V49pzndbYz2o2uSDIoYrEXhGHBCUccxSJyJlCcGeYFr1mE1YNSQ8JvoWKx/pDKyTgXqMwsr7bHSXcBNebX5MZCmUCYzNbPsOSlawqVm8btkZ4Derp2bnhALUxpk8FUCQ8BNHBSRM3mlkMhY54S5wS3JTGbUqYA9ls/EvLwJEB9JUsNhl2WORARDGLKD6ijcQQeNKZ9mVRKeMKPTneOoHKglNanIla9kl64BwGDS0j09RgKJDAs44XZ4MqU+uk6Lzc+d3k0VZu+cLaIzVg3zyWbINutVsl9tb12oqMwo2c8Cj0nLVdleLMVwDcvNR5QyeZc81JE1NLrD6XSaERk5L1Ces2glJhwBg2x6RzCRRQEDpGufNwdZsWbZaEKwJCYeEEYY6NAgaeSguUDFhUxEBkFzxxh2uD2cXqPCxEkk0soI16OXrxkZFkFNhgy08NVzkNUMXuebRqHLSrlGdkqmRnGGFFKgF1ta1nE1LtnCJ13Ht8pWclWo9PEYhlwUjcGMfpgNL9ZTTnayhpCiaF7zIRrMjHCPgWGCLo+X5ZwjZ0YVMlL5kEw5UqNkpWPi1vCUpZSJmUgzpc+kRbepovokJ5INKJvdyQ4+p1tIUAWLx2E+DMNEcAoVWxSznqC/4XGNSMZUzBQTA2lCFUXuY5WteQJ2wFs1bVEbUbVSqS4YEOoQcPYo+05EVLqxKoBAI6RQSFlxbxFNKaY84ZQbx2F+mDm1+E4Z6twfIaGUi2aWj0EfRkcefD0whQuac5pNDKX0NXEh4rgikSICXATX7Y+UNmWZfiWDAmFhDEsNdCVAJuEmMdPdDwNgISgDcSVSDjvMDvPDnMPkFbIICWs2987R93UxsueaVs0Ty1IHOVH17rumu2j5PQtKVbFWqld1UDXhsQrvq+h45Uh6OkKlQGp0ijpln0AUfUIZ0ivudR8OZ5UTKsxAm04iEWTIqwDHeUAPu4bC4mJ+T17MoELGCRm+eZ4Z06OrMWbnmLyQiVXxAIvAMMiRwzBAH0nK0igQroTRIKcNcgBDKvZ6YsKqg+xxjOOw4VjFR5jkWcRHJyM77dO9TAAG+siI5GqQE6VVu9Wnp1cuxxqG9qHnEBSo7G/silA3eFVp0dTJW3T3VJu9Kg6q802LrSEDNnXMrJGvB9zlLlqRZUa5Ve2bmQ6IRrgMceTrocvPwDzhMyk7w+YVFmJekXlxwoYQIAMMDjjliSqISlSAYk4eqkmtODqiMyktyUnViYbulS120wGzgAVxMThsuB/Dj8FjqLrgAzaJmt/UpN8qAymYAlCjCqzZ3rr6H6ogK1eutfPXJmY1aJoUlW0MVts4mJkBRlpnQEwAJbohjXXWyj3WXcw6S5sT3lqaNehYzX82ky0qfAohIMwyCRhNjgSva8xvwy/OUxmaOi0rlzATYfDpGY8rLKdl6hAOmmN0pW4Go57R5RVq02CSAgpWJa7gDO8TQjgshxlHzfWLoWkIDqPBzQ7akHmv8oblDcOtWzFWqqA0oJLjXRHIxSVncnX/FS9d5OmKHxIKIGGJ0YFFJjKYkx1wmGzWiTKyak8z9WmyzUoGqRgWVlM9BmOYDOGs3G+VYa1SxrrrhDmtprrlxHXm6/sbJ5UKgDzJ6zK7DBpyszmOfBxzcIKZbrLmV7p+iiLhMFes459IEElMIphpgBevOR7m4/BR/fPGNEwonLJSVNlImuRWsKJMuGGVIOhuPOlrARoLnhcpXpnC4ge16+nurOydfQEgeh5VJgfYlC7lFKY0KwVHuRdeK0UyClXzV9o8RMidoGW65sEYmIPp0og0AFOZiZ5gZTKXYEpmIGZcMzIuaNIV1bXvx/c4XkfgcZojzWWfaZaS8lJM1NnfknfWkHe8aMVepSPJIOCUkYfZ4zF4DA5/EJYWoikc4VWERHeNioBMKlZ1paWajlyLyqLAsRLog60k1fWwChzWqBZAkNXUkIpVq0DdTUk4DSPc6QlLKSOm8YW4WPk+94JAtOXeu2KmNPYxKEOEkgrTJKYUWeSEkp1rRw0Ad+vs84wZOcuAhyx0ZLi/zNIdD16H53jARxSozWmBQ6AmcxJhKMK6IjdCRDiqV53puEzhyM5AwA/3xzH4HDCMFEKVWypqX2ZmhujVJ7s5Qquf/j4ruTFhWb2KqjCw04EhQXvaZdE4q5iwUntVQQtWyR8oelWuDZMrKWUmcswcUQOUYcAafdT4y8rduJtLnFOqsw8Ukeu8dIc6d9vSs+e9VNiBmlohmDRGPBjuk0d6hZ2GXHU5OS0m65y6yo2ZzPbwfOYmTCAJVtOQmGb+GMdhY5gfxzjcq8iJffpPOsOKU+cweLW9r7qlXPT9oiMbfpQESo1sXcBYhTdS7tXv5IVqGKXWafGd0yKsqyWI4qcnFJZpOmnPsCP9SbrsMJO8o9cuRSHTaDWGBEVbuzBlmUw5UQQZCAQwK+W5MyjVYZakhulADspdZoIpzRBE1AHm1dQLgYpKLix+pGsCSp6KSig6vsheGzYOfzweH2M8bBzuxuGOhdWj8nBu6Wb0QzZUEW/RSsVD3uUWrQVbArkFGgIw+sGanFglPFVIoVV1X+FPa42JXk2giohpCDFiaLolHiZw2oBoJno/ecEf7vKnUEbZyqpUQ4Jhq5li1fuuXNby3E1FuNw1DlbqC0CmZTBhJaELvqHSfix2eLOw2lVJu0CpO79TbhhjPD/98/P5cfiw4X3gycw5qTpfOslVTuPFRli9HbZrQUqGeqXL7a3lveMwEQNLtMphYFP5TdeAUiF9XKQAJ1DHCCPziglcSU345CE9Rs9zjRSm2Y5jQRSj3HxG57567JPgCGwSew1+t07uv1GxXYRoUeO96sbLMtz1mIUqsJKO98OvNMQq16k16vI9uvmwx3P8eB6fx/E4bNCNQmRGgJGN35302gCDp9bh0LtoYanALfddJrot8a5GwiiHQPRoDC51KT+TuSprgjBqAmDKAWWW0U4Sq64K61RFgUFVqLIDgLIqttmVXugqAOOqD6m5qYszx0Jp67HSUNWnRZUVuVj2frm5pl6XLqNXZRXTtPCruyirXoMYHD4eY3w+H5/jcdgxBA+4rqzG2mXj6Ua6mxm9qqSKS2C95mbeCWzxxpsQoGujKEqjExVVpk2r0tCqRQY627F8VApUjehTVvowmQ/WmW3glDUECJcV1BOTZn3VXQDYgpJbIkosrcuoGoYt+7kshiqNugoMsUj1DhiXULW+bW3X+6KUE6zPy05LGWlm9jjGx3E87XHk065hCnEmVSP6q88JJW5mhrHvpUZg1eb2Hq/L30ZHWzP4vkujXy0UJK6YQanKQ5R6byEr4CChsEiC6YR8iA/ZAI7MmdPTbIpJA2R9WLAWEbU5j2WpCxmIZdf2liwd1rr9e8F3icB6knZbYuK3Ry/1XvqjxtylqlXpV+GtjYfbw8aB4dcDcVTYkUdUUMqeCgqii6+72mKXBN6+lvv+Vg36rYU3yGkxwdCSGhXp01soFDfszaH2Q1rWC4v4pPlwr7J+Cx7QIX1zZbQ2+CmHftdH3BFdy+NKEf3bn72M92YtUemSl4rbbxocqyW16tx+l0JtsdOiQou27WaOocE8aN5DFHmSV1is9FzTu9bzbbgT5MvCd6j1b8vONzuEBSRWqhxjwQu7NbsNY9c79bWKHejnWILlXtafdHvxmZrML5vnMKRDzhXVbaOAAjdvJgR4czxLUra9vqV8r16tvVSnjnSeCFr4buEtLKeybfGCtLdNA9BDMMxkTKvmDjoxUqPGaRhg2UOJtwnt3Oxyt1gIt8OPt1u/0+glFgtGVHkkhvYbdfMNWK6cnQ4uoa4T6ZCA3Jy0inTruQ3D8TQdad5V2Gz54L2Ct6TrxghrF9A2aItqo9HfHmd9WRRC1xjEtuu37FFYGr2v38jubUVEyZAOsMiSLhw/anEdla0XKxxKkb16t8NZHd9dTrFlS/vu1511Er2UggIw5OqGBTHTjKnKmLCCJYMlUzRYpqzsYcWmZLrkgsNi+OQhiA/jKPRjbz6I61647TiXjb/ldEHFbT22b1tLv3QdQnXtGqvgCIE1HELLIW+PeO/m3lnVVBDJFEbzosOGcZileVb5ULYPVEMlGJBGM+0PrLx5e7kb0nPff4noxmmFcZaccVRaWym7qsxDrXDovWKSuUoVIDNlmYCkhRGH2YOWPoKRChnDEQqoSmLTZU2S3BYct5qqDfcbYHgzGKUr24Gve6+f09wqkkjVUc15e4oFfvYOvH/RYzzqaTm8mskMRvOyupahyomj6klXFrfE/PYvXXVfVrmJ20Uv3FChlaHFYpt6YBAofspq0WoejXfJZM1WQSF9N/ME5dWybZCcHDasWCxajkwbl6WR7E7Ejqi36q+cQN/fv9n6kowlO/e3gtDF5dvTNq/BEkJ1FNafyNajNxPwJv2rt4bdH6UiXIfZqNpts6msMW7owHTdcNf2kDU/dW1qS2zLyaJO3p7uFhz1DZKVWRNF9rFDSaYMs/K6SZGDBtoAB3jQAKWZatJZheRDHRxOBA/PMeY1XHBl9T1WDYnW6utNuv9X87Ae57ef3i6wEhhVC02FMdH1ablYtQ0UlqtVR2b3pxYjsaILAwcwYHZHkgHNkj7Z8iaFnIw3vylsaV/msT+TywpBa2e2FdVmhzhcSJMd6YFpVygzmOmZlmawYUa3NEt6D9WQaDKYmGYY4Ej4gBmA5AG4QY6aNVsOqg3DksY3mFC4Svj3nVlxA99FaBUxgIAhVZ0ZBSxq/sk6KKgB23J5txes28j+MKtcg4MParDaCRRg0xvhtVU3lVjcureTfV/8rdndssAW9W1IsW58PySoMTIS0w4mzDsbhjk1My8ON4rO4a7pNbRP9Bo5oPIILo60gbzKQXiKSKw08HLx3PCKbZ71fyLlO1RZGnyjFrAo6htf5lpaWwi8zQe3U1ncyv5gLDEu9hdZXa1mw/LBmmqGqA7VqANhjVZTWdDBvO3wBX2D+1EW8G3egQv6LNi6dgj7zcMe9JmJoSOUwYmEppAz0mRVxmHkBMw4DigtaNOyDaGnjvRDOiteqQKMJh3KLOed5L3XnG9f799wY7e1Exu81oNkzWcvpq1KC0k5DLRAaE1v2h+9l+HtKgBWNYQqiixd7jBHofCeEmP3DqO6MHvMQSUG+oyE3Jx/gaE763I3rywEgs1JAAKH4FMeZtM0U3oF/0ybTyZkLggn021+HPYDqjkmKcz2zgIzDmnoNh/dH7HqWTaOp7Q4naWRb2L5HoxpMYTbf24kV63EXI01qNSCHGJ3jhReXNkKrN1W7ye3jqlqTcwdlnC61cFmk1X2p/Lx9zyjRpxa/jZ7Ttxt/TsyWRB0Idi6BS1e693DDZ1jKhHT8eLrn4oLhPF68Imk55MXwy0M56imFSAZIYEpzORklZtZk1O2wNnNYt5IHx2o7Hk6uG/v3/5wyX/tYyUGABS/ahXwmrlgLMPdxEw283GHG++RgPYJAYSZyS2dCpjgyZH002QhRbWzikx2kYCIFKyHEdW1CqjVJZYpWgHligd2FQp2dc563HHZ0wR/8c/n1zUewapHf874+T1/+nw++BxPzJ/QQxjTOGEJDSUyGZMXSFmQBheSRhfg6MkwReaV0HCD8w7G2tfe9/O+/PeWaY1YtMqw1sgOgxnNtvOgVFPMJQ34XnVtIMrdPk2qSsjDKfd0cpoLnuTlsExJ1kVLuTFT8zJNaLf0d4dgw17tHV9AdKHo+6HeHnfY9Rr6dlzPTADfx/X9tKkZrxdebuRj2PGB8dR4zLRLFlRKsMsjEWAICg6zAUeKFmTV2Gygf9/OSo+8GR3it9hlG23u1dP6LXeu1Wjm8CLGpPmmKw35uF0i3pJ9jYVpNKPcqpzPw6zYWEu4kJOJhdGRyBqHZdYUDtfgho4MVhyGRj36N6rifuQ1s+beAIrU4zgMss/j/Od4WsaZYx4fn+PjQ58/bTwwqVMZaddkhBQF2YKoDo2ZMqVTNKb7minWmdd2UH2bt4vVQpnvrgDo0GvDCy36hFVeRsCYVkM9vQabg4AvArQym7xHjLzJQd2KgaomQCMlW934YtJTnixvQdTJetVdVfXn6F79LUU7GbSepd4rbOihtfoA7txBbcD4y+f4msjp4eO65Hj44zwGP80yP+fr+YrxrYTi0HVgPuzyuJiTMk8JiASpUuWgkIwwLYe/EFsFUNsJ7hu7VfVdUvD+b/2GS3sMuUsEZCyGygDW+EHY4tXt7SO3MrBWhoISJqJ6EhdlqyRo1SPkjE65JZTVPeq2Qq1iNRcU7dz1snhYPgjL0JYkUbdBBgAO2Ef6t66R/uFjfIjPFyaRRkw7rmHn45qPC0J+X/oOTurlFIA0aGCEQoBbFbRV95BlWFS7vVQEgguuNiIFI4V9t3sXtEOYtpY3q1Ptag2gVYNE6CaNoqFTlws3L9yKswwv1yeamuG1mq5UXOOKi9VkA5NRBFBFFlseOvFQU4EEKaugoqI77AByjYJae6M3Fv6WrXGd0umaGJTZA1fmOWaRi8Er3KdHIimmUgiEKc0lpBnMVMhLZolhj6ROFx45L9OFB+RMJ0ymngXUyOTNFr1tAfH2pO8ei2+vLDWoDlM3lWVCF0bxbbkbvzcATt4Tw1FLthgZYngONUUbBlSJQwKFcJcK7S64Xs1kLX0LU0EdW7Bu5YsWHG1CVLfsjXnNGRyyb3wFqDSdHmkpCeaAcWrMHJMWGgFXAmZI1uklGi4TBgzyYuRGxkH5ldeMbKbMch12drPz73BgqfJ7aqYXsV9WNET9p8HQwuc9zACddxO7qus2QfvgBFvJqCLvrOAUvVrr1YPZScgMaapKlE4HB5r7qTN7cMO7ynSpFHXlIheltc+gqBIE3D4RHIGvB9LhwRcTQOphnPLyVT7TMGmzAK9pQD0JZtQcCoxEikO0RIgMh/uTeX7OSF2kMjNGz1WyOlfBlt/KhkP/Hq4uqS+fpt/EWqTkqtOvCOoeH9Sge7cyLVH8DZKseNDawptixMQcTk9GGpSiwfPNmKFbKbH6+tDA1Cq9vAK8CoRFq4lmK/wS7tfsEIfU8Ec4aDZ5kLKkcwjnpTkB85FVzpPhl446ocfHWUXAZoBNupTmAqcsAiZ88GMyk5b4ks6LqrOvErCV0L576DsUWIu7yrJWQFxWid1lW0NDjRhUVj8muvWqsodFj3IVHLY3XIix9pS2WrcTQCDT50snfBhdSQN7mkPBewkSS1YoqkaoVfssvYFo+6tOGSJXUz+ROyL/XbwAYNjzycmTc0xLUp5pkQ6kiwc9CWlY+Ljw6P4CE2BGVL8qBGHWrHfPIGkcbtNN4ym7xMgTEE3Rs6flSyx3OHbf4nvqSxU1LvXgqn5YnHoubKhcY3h3CL4+fa3+ji4I7ONtJCFzZp7AqETIAR6VdXeZIWv6iQzd3a2VVa7roet8C+cJyGxvvqLjtptcYPDtzcQYh+XB8zgimSnXSEyNwxg5vBjnHN73MJEgGKSZKARCK585OIUpIzWmAD/0zBk+Y2hOPzWQzsQuf1lr2rHBmwUqq1T4Xrp5ox36UAHVWLU0QKzpWatDliuH+Xtivo1BK0ZzVZk5r3kR5iAfTri74FXljM0qCEAVGjQhvzyzekQyAEMmDKqjhrXOb+FqzlqKuB8RGqEMZsjkpCLNoyDDA2lpmemEJcOoaTKCnmQ2P9uzLdxlw/oQAlpCxDWmJo6hT72ufFxEEJyQzFWnymML6eafNyxdhH79vgeR7Pqf7tHO6sk3Fm9f/rjZp7d9bmIu16/WNkLUVF4zDZcP0U6nHVC42OHXMiBFYJTmmFizLJibosoWcZVXXwbfWGOc9nXv9iSAwMio04MYljaEVUUM1HwHmZQBj/kQOQfkbjKuU0YlGZFOHzLOCQKel/EVY7rj8PDv6xIv4RWW1r0nAhbJ3kmoNxVo/mHvAFYeat+cQbSwCkjlVX7RAy1WZrDwLrdyaRuh9uxCAFM6pyzFI81jMIx53UG4JOtT14oALJW03I10JSSrztHEijUKkFqPPcSKw97CT0IaVJLuhQa8J/hYteeRpJTABEMD7YwWbV9eVZYQ6bQ0ysEr7CLSHqH0r+tnHhjPX/hgThSoK+RceSY1nnjL13EF8y2mda/v3WOUezhq2nidFVT9auumuEgX8k3nO0411SynEGbtVcKgccosDoU4QZvlPwsudJebyCoTVZ3IoYX0ASqrGbTNJ9jn0sN6uvKm79v7l9UaAKya+wmwxs/BICayJlbNNb6wxqzLxRrDUpyLLW0iCBuWfhHJ08eMK9PsGpjjyI9vu8zSLPKpMFZ8bHlr42IXdYvvbY8qgMnlrUk7ju4TSe4okQpoQkZ4tZMs317a1BSZqc+2j6wRIg/PmJcdY7peZh52THnQw6ym6Q9qMnMFC+hy3T4ACetULJUDYvVmrHrziuBZyeZcup4QMUoMXexDLMIT6tmhU9XJWfOBhUqHIN14gKMiYFJV0WwuJYaZ4TiRYa/B+UFc0PX4OeflR5ynRgio6eRKS7Sn2kjn9pdSzfOj0pCtNs1nDNjDx2HuZlOgQjM1pdmz+jL7sMZ2Du1kHMpAz8JvaXQSkZgpzjkCjstJGww31NkyFXln9Wsrc6+x93KX0XljOnd2Znk2tYRJ6FyWgDpFqTybocYUsacyKJHKjJq8tDIrBByHcYR5LwmqeJKy6k+wIQ/axcQBdz2//ZTF8cljXg98XxipA6f7WaayJ4A01iBEK9IXbUhKzHIFCz7sGGbHQ26H2clLNgORGQiRYtaYKe30w7K7ywJXxbeqyowgJnAlcoYA2mkT5uYYNVHLFvlf01kksLsdSsjRCeoun2hV22B0h3HQUoeytQJH0yUdhdetVQd7+5+OLWFG0xxGp5M2SXh7z6UEICdIJTxt2CMs88CQf5ji+8nPkfZPy+/4kjSPCPE0SnaknJuc7nJsrsi9HsfKuJvxYfikK70WNgjAZlb3ViLFhGda1Wevx6117xyVsOKwFLdf48ygxAhN+ZAMPOBGq2ElNTl93VynaBZ02yWYuO3e8vW1CaV0q0+y0dBYrESllztyq/7umuy8oGGP3/cqc4OqKcVSKWsDnokEjTLDOMT0K22OTz0/Zjwe4Qj71jVP8fHlMSF1F5OjGIRyXlpuc9EpJVA0aAza03EMvCCJSeWRunSVhGerVKM0Ltiw3ctGIY3ns9MssAllOJNj0KtnRvXQAD06t4cVufdgkRVcrMmjbX5anTv2agasvjdWp2zt02icTJDKUVLWjQDsY4rZMFBGG06zlQmtc2mZAK2m9VUPn5nDBw6nG6/QdFI+/vwxi+a9cuAU0smYMk+ypk72GXHZwr/yXx33m3vYAYwDOlI1g3AQl0lRdSRe4EJroFY9TkPHrfqgFRVdMqqo7TBT5BBz+7qa8UPK1IOSAGCdTMebJWmhb/62oMLSjRUK9jpjZXpKCgawEsWlGQWAVmK/zKRVOQachLGzrhB0H8eiygBnf0yRLUc4fVz2JTuPuHzEa3zG0+x5+Scjzufk6NBaRK7RpCv+QluLauKi+Ug+oIOZOKEjXZePMxyaqQxUSZUsw6obCsQ9XY0NU9Q0P8RKKVfRc9ITj1iUqmOCVwIpC3hNtmgAXsO69mYuumP7maUnpb3obJRuUHw/5qqFqZEazXPXySrVsETAzUjUWRSosaWrRLYyUOVGoJqEIzBIVcmlC+nTpj4BYVzHx4VD39/z+cunzGizxmBxjXolsLKYWmaVNQTRPOVz4op4zmHZ84prkH0iVeNjus5+PXyXGm78ih2l2SqdIWTM4aLlRCAmckADMcwubIDWe8gtv9hOa8fbWAHxm63jgqyJdR76esOAvJvlVElD5T3XlM36ZU34NwBCJNKaceKiW+pBmh/JpBKWAJEi7SDHkcj4OnWaa/yMY07NS9MFozjbkIIVkhSIaTqhpqaUyEQqYAF/jHGMx6ExpIkrh4dGZoiTmVSdblKHDKzlqqShGrt3lhcSRQPHhA2JE31yHGwIBTbENV26YpIO05eLb8iGtptY4Av3XmkJLBcwhVBJ+SIoCuqQSaxEEuj0O0dXDNA6HAP5pnisNGw3LxTGlTzqJ5b+PG0a5s/nqWt8jec5PiPjnDLFUfM9qkC5p0Fq336hKxiEGYjLcOHw/DB+Ip4EzebAsIO0qlSfnZrHWowuY4GqnqM5I65eXCYUNQHOepIEjP//rr5tuY5kxxUgs5bk7pmOifn/TzxxHmZ2b1tVSWAeyFzy3h3RN1uSpapMXkAQ0ACrEzkCSLZiavd3nVRHn5kzBfCB+N6vHAf8fP/yuwICjGG0RfQEiJ4UBHePIsAF7sbBPKY5OBligvS5nW/aDQ8Cs6PwYpCX4B37uvJD5Er/uMDXfvx1V/AJP8N34lz0XgPxqTlOE0MHI9aFCKmeWw4ncF1+ZeRGFhyM/B1ciikZPV03j6MCW78+EEBCEVSoXSa7fuWLfLlHT2CcbgrvUm3iBozfY/IbvH0HvPc/Z7RkHFR7/f4gzXCju5jVIsrYwG7oGrRj7kGHoziB9Xsmao9VNUJQZDGcFR/K/fmx+fDm64frI5/48C+Ud8nwE7ZYyTU+eofcdkqPiXZM5BUrEPv2Hb2zWyv9qrgyroiCybdT4ntQ1afn3Pf39CCcgaTIYgKRQIWRzBXgy86mwhXtOXzWxEtPf/VuB85dwPdx/+3Zs1vZUwz0y1rv8ITZRmjFWQQoC9VXgXyHqAgOJkAiebytMTLOzbkJgj1VRkgGfDH/ANvSovLray1v8ccXf6EeouICImuFAkvgb2M/gnIwFhPZSpHGDYvPFWtxhVNe9hV1pUHHyKOzT8j5YcmxmGmIOMgWw/eK6rVmBlpaajEv8Mq8OEfRZ5XT4KAnb3DJPWs+sPe88jnb76w/jzkxxHEAoxXRBKppeadeFTiKKwwnlcFFL3+3aw0Cigfse4c9n6IgBiWyiSA/TGNR2OSd/LpiX8plFNJJmdy5ml3O4wtAgAhzgSuTmQXZ3ntxo670lcTKuGhdi6/rVhixoAyzBQdZ6AwVkREOZvsaRnKlRhiWRIRiRRDBtK/yJUX6Gzfo8cqZEeP068CBU06Img4AeP/3eSkt+xwHqW3V9vfIyW6sYzJFm22RYCLPnixmFs3vrzu1XL+6kxfO9+cALtBmGWl8FK/ln+TfmVpLF1XPDyzaKYUVFJux7L55JoH2JYTRiHNphZf2ci0UIj9CekW88v76kAnvmLHU9DTRsFqkQIYjxOb6J/XKWA5qORYZipAyNpA+Ak86sgqYwPZbCTRP4LQAfk+T3tjKPKaGg3ieVm8eGXAc47QxClcMtMMkkGOMg1aMB030dHe64dOrNopzjBsEvC1rYaioCjtcFc+VeKGeXPfr8vPYZjzpVsVRRHzf3Q5DiaAZZWM7dsXFBv54hRH4DFQkX5fyh7Xsp9vjaOsmRCKBjOgxF4IVIS7WCi1XZmQzdkw8F/cKACUvAXUufGejb3qD/X4b+A1FOTmh56owQDWxrNm+jOO/4PVuI8bwazgnADiiZ3JYMXtYpo0aCwp/D0i+uUc4+Ky70B5Uox3IslzYiO2IRV0r9gf1d7S34MUOidp9AXGE1Qyy5/8SUWRryFu4tj92w7V5L9bLvD54N8DStV2aiJ5apiNaZFAxzpWxGAxUhFvVbnCnhC1nYbwZh3Dq+dFgQu/jf15Nh9uBS89tOFGhAxlmSqEp7dZ8lO0MIKeEduvucOwJE423EsMTd8v8R0tONetu/tRDyHe8D8L8o8dBKaZWwLH8SuwVTy35sXbkuMy1u1qX6cXx1DYgeEefhYDSO5f4WVFiReJDm8Y/GUZuRjJBZvb8GiFSbdk10r7FeBx0iIrYXo/DRqmeVk4T7YhWNBSni5uqYE7pW/jihHq+Iw9O9fIuA4b+yBF+AyKWDlYCnOihM4nUW/zC7Uww8Ma0vPgOQXMBeT7/fQtPv9HAsalM+qrP1M7QK/adtUmxhXNjWNXfUyScoVu/WG4T8FKameIlbsftugO4qrBrmSlZzSLjKh38arNPKAhZgV6/iMxn9oQD620f0a3tSF5j2KKYLvgc6lOMnnh0XsUB4E48ej+HvkCS9bRF2KqJPWLNyOmYwnTOZtvAarHt5c714WlJCPT0oD3u+c0JODXCGYNQTref+Eo9dBE7YiONDFW0yHNYC3VyXo8u+w95o8yzUR3Y3F8seUUTIJnwB+9qD8C6oIxitFx9lmCh3S1WTwyJLFFV3p614YOICQ2tz9zxdFeYR396lHcVf4qeGRPwDTrwNMyY1rJVobuDWGZlZ3oIiEKbbQ360IQbLvbGi6I15nGIvu8M0lONHtxg5PQmtp1D4OmsMsORG+1MgnjyIlaowpILpBJFUw532zdFt3paxnYwUvF5mA+fO9ePjLhqScEQ4hJ1q5Z9tYHaMGCyGtQQDAV8WS8Zoveu+aCcVbNoaCQ7Fp52HM3qm//h1J54K8q8sYf5sQkCCk2z3EBON9EBhhdSI5lGKn28LtmKjHyvJEQnfDnefM75kv1nNbLFaTADszbk7+PRpNBuOSKL6RAWcsW1fZXunujU8OYOEhFnUAdNRWPQLGsXHm1sX8pwfkCfL/C6tl/xmPXgS7eM8EqMobxEBv3A1TSWJyzXBilUIRFAE9iDjjf/15MRrEYqJwh50Ab/Voca/g783TW0FfDMtXnW+KI5hNmDuXchFOeLzYuMhial7xxz+oTxF4cdI4A0cCHGnQLzLfD0LOy4ogjn8utJm9t/lG4/X9ibQk9Et0keOanu9ToglgFp21W6w1iX4yPXj9fnD+fHtez4EpzMOxb2Axbf/Irh9qRNWXt7qyXoU15wy3Ln/MhLaN7BibeNvR0gAedHxanDB5PA3NbJyp6KsBN499QDs5DgiuD4JCFIR+9iT8xu2c83tH5GhVNoDeBF9MKm6O4UTsDRdz/SSbDfXqLRlGIpd6Xqh3zbf7f5VgvjklBFnB2Wma2yXZOK3L4NXuuKj5X/+Zl/Ij4isbDvH9ppX1fewJ30A/XosaHHYffaHZpDREQo07nCmeh2AAILYFN/OeSvufzf0b7jzjsT/Eug+h4r6e0mTnodeaIA6NWMro5YdKuKoxl5MQbPY6g57bLf9ey7EjgD1+ouQSzIamvqaVZAMHvoQ/jjRnFhL+IFYi392Pq87sLPr30RL4nsyfSZEQ0Xp0WZm1qSsXKtT14//Ppca6kql5I28mFg8fXKKJzpM56Ictq9XCym2vJwlJ9YJqtLihgx/YyQGtka46A45d1vk8hTfk8uMCwPlYfDEHt3aJEOYB8UabWRRJz6arKr3rdsHhmoGeXhkH1jkjpnfBCGXbB6o60Bxhl4T0lkELpkVC58FK2rwOV8KL8Yd9aN8pbKYahmn+JdWU/vEwklY0WsNGIv/KJfqwx6OyPMJJq+kxd3AwAO0IqCm2pUdCYEJAQpLHGDcEY7IZEZEWbb9I1IzMTCLgBn0PBGGyyE/2UEesYOA+B4xVI4shrf80IBioArCEWXGl1hHeR8XrNhBCCeuRdx0Dtinv3QYBZHtpntjlHw6Qnhku3KyIy8lBFrZb1ej0Ksr8dfNlqFnW37PYOKd1cZianTUrGevO6L0bpTpiJ8VfMfF5mRT+vJo2rVcJ7aMqgC27xIZTLSsRQLuRDgCC/HjCX6CHYc7AY1gB4kvBNdG1U1solDFyLBWR3pthWZnFXMAOQ1nYnJBo5P102+zaAb0x0sgGkz3maHmO1QCQ3n0gg2poh2qIDRPreoYHOKF/AKLCbusP8Z8HXtWr43Xnqe+6UdRQGIhZj5LmI2vJBmUxEXgyrveLQs3aErMyquerW0lyK4ZmM8y7fSpb1BC97gTDdaI9EXeTkXA2tImmR4d7NpcIYhEQ1zfG/uvTv9PiPtF3mOZveSoAOWsQwMod1ELZ8M7oo35450gukEmOOP23Co0ATkXlD9jWm9ED3vaBpb2hSbSaYeEtNiKHWtuMhlvm6IvuMD+16OrfunnGbFUv4wIDAUsBpot9H2KE3tNYIVGd4VbQ4rc69ruV6PXzIWnoRp5lzYYTR1SItwJryknvxyGRHunjjZNgy9FQb2FMJx8N1OGj7NL6auhLpvNM787Z0qu66VwwyyPVtIrXl/Q0UEEQxFRHAxk0LO3IEJkAuAwgrpGwVpNkksDik75JBH0+AseipgU0J0ANgsp7y+QsufV93hX+Far117PR8r6oKCprH1Hu82bSldDFYmlITjMtgCRorYRDt3xc61oJSjiq2i47EgdYIvxEeHSxqJuIIRSpLuS9Y6XBFTYM52Ur/K78nWnHv0AT25tkHnmdaDHAMZt0gCR43SWuDUFlWoEQZORkTkckJMlB29ujW0nTDXQHY+oyaPn3NfrGAxNq0eA5xKoFWn2S+bG8H1Ap72J0FPfVZVlW1/sY2M30V3N2iuwUm5lmxkpIJ0BQssJL0EpjFvB7UBj96jTThpJbxYLzhZQXqJlyIHXbfbNeW0ucSsdwxl/T0tnbIFZ9ckzodPXclTqAP9Wk8Rjn6YXH2sXCh7t3IXk2aoTToIFtieHaQSaCmRwneB02equXsN5qTRqk1TNpFAK5uDDBHYFMX0J5le5evrI+8f9/4w7gAXXUklvFme5XiMfypesZgOk48HG9TbjMhP3GZEK3wBJgqGmuga79LFRJkFlhCOFeHISrlXBzyKrKYjMZ1InsbwLCG0lEE3WJON32EJjXuefdb+iBx5x84fxHJ/b7a0CkwGvYD3BHQ+ukML3g1HRRORzeocHc3xs6s5Bv7GqgZHbI1RVLAMkwqpdjx4ZdwPLuLVnoHDJ+xuRkN7nWkPeiid7dmHXn7Fjirvbcre+JpvU21KosPc90MRjubzCVA1MNO0iHQ0ZRNgALsJQo0p99D27A91Rm4edD/baY7YT+KkhY4+XamrwxGzpzutKImIqYIMCZJXFz4wFT1Bd7Koh0OD6HRBnJPADmEDUNkhSsYGPXrg0zqeXUKWUAUQbbwAqsr1MPD8YenCvbyTX+JlvzxriVNUI1KxAhk7zJAvrS9+/ArejywGS346wbJ6ulGgEe3+DPaouG0i2niXRlzhKyp7ZNGPWm0j2zV8z7bUtpUYVOHE/mZqdu1yrkJPf7/fgbpJ8DHdNhhBk6vdSBWNeEUrTjUdwpCiwE3vdIPRNTenx3oY8Z4OOPaxfDzdYiei/t40V3L1tCkq/3m9kPyq277sCwLWK6UFX/r6pcuRYkbM7g8JM1qqSRIDsQMvIrbrDlnr5WRdEVgrG88UtEO7jUlEVGYxi8u4wBUtfx2JjLLASjapr+394NGIO9F/OqKuyTDg2wGI3qjXm0o97ctBhieHthIfmYwF2BE2ejETMk1kVFLcbCJija286XZgaXSpJ8UNq85fTds+7dkBbDs6ckQsQdiKIFgc9X01DIe1eMW1Fh3X3td2oWkN/drHgz6s0KpKLAMPiqhIYJUWQWLDJCMEe5Ww4aeh3NHlNMNMcCWuQEx1QREIBRu7mCPf/PZONMNO8ZkxvekJE6/9zUSa23/weMNBNW85ojnhABeG28WanDKctEJ/jO2OiUf8w6JiNkD6zrXRMjENy6wUvgGEs+bJ3izvegrKEFC124W1FERUXCxdL/4RqPMzQlbZcls7g306q1glqx5I9eF4MRf84g7UwyywW8agLznaYciuVBFiChm8gmmv97La6tFIP+RZyjY8YWMyr7+XHd/j4iFw9M8bhy83M0wTR8FrzK7EDAOOfgEuQdnNUrglcaKaogiE2K6CzWWFIt14Xs/Losb24pRf8L8yRxu/QVekBGg1UVDAA5WJIrGi+IHQS7Wg+67tR2IbrrYNTFGGiOXG7zu4MXNFrnZIcjDe4KNd0bV7wAo84k0+oEAqopLMVkdd7Q7n8f09p5dncaWP9+l8DxOCc/jeOPGJOOejBpieVHzKAU4dBCz3JlhxKjOmWygz1GUaRz488f6W0ON1tlqN1ZVlTdw026ZrOpWZLRzQvM1HZKg5p8XQzgBeY0GsWvkz5Ffsr+fXs+1Kbzo6HtsorrHNgR0rcSmuxXgIYNuPsvpEKzvNBop8DBf82DescA+g0jnYorGtKkORipjap+vXN5b5Di/DwmmoFvPbPSV7p4fftoL55lGdgUp/LLvilHTZJIYqFuH2jO3pSJdfI4sI2mEn+8DBoVHxCpdBi/UN1M57P5BFe4Z1rOpWrLygzNLKWU3/SHy9sD/z+eK9YeNDfrFCAAuRBoVsDmW3ZGBs4AGUhbqTOyE7wKUuHiHWDu5GldMVjihmkYs0XFRZMEKz96Y4rJrD+Hhn4DnyjUn6e0jFSQ6Y7aj3G4O/GRIUbEl2OLD6PRirFXzBUK/D9pOHWzwQg8Z2gPE4ChsikjMAFgCUhRkKt4aqac6oG0OeFsOOEqBoP7cw0irWhkFcifszn6/Ur4yNtTUbC9eZ8xMgsrdzU8H6MhgSw1PaT6lvYEMKIQq0Fa7AEwFc8BKoyJ1kx00o2aSV1c2oVVMZns4E9rioxRmWnmkf6DFmn7jTN+O3SxDsJeXZsw+uhinQznBFJ0oCWjPL87WEAVpZ0wV2V+oZ/KhFtJvnf3hCM6UGSEvjbTc3uWukSARopVMKVH+ZSmYEc/FKxOf2VoHchLTkHEJSq/QGNuqXY0V1GNEERCHDAMROURaoCHOhVLsEBbWAMLmjGm4K0kyGMRZoPa4qmFDHVQzRIGx16cHwhIamU/o40U6OxBmGTLnjVppsOtACAVOiH/qBYaGQYp5pTpdgE9Z04CeYid7rGg28GHwEsCdP9OolOYtUpy8AcQJYC+zthU09mwbkhJmxFq+PeC08t1zwDpksh9gcDZCU9xeesi+siPzcjMK1qkuAohgt7gUWrFDBqIxKQ86asraf6tSLQWcUYmy3y2grAb070NbIQBe1UxW1SlGDP2q335lnRlti0CRVxMBKU6MvEBD8WHQ8BQIjuWBk56CeEUzqRQ8rMeEQR/ZhCPfo40/1dzzRb+r37pw7XczqjaHHespFP25OjCPM14r9EfUift7T5DQAHupymrar6t68t3iZL9LIAIKlAPPaRBRb2U5EOp7i2HTt5hhhw2GnHHt42dWR0/a2d8PEaA23Sb5T5licLa54Y9xSIzuC5+2SmYg2mOyvYeg4p9qrU3DtmslVNZu7/cMgx0Y4lEC0kOxUA4TRAtjNKXWTOeaOqjf5ZLgfqZ0+Tiu9XCu7LFlbu7p2tknGci4lwHuFr61UhR8iPaooyU2H4F0VX8Wl4pfNdCUsRxIL2VCoVgsbqY9dBRzoJ0Jt72JscYt5DAjMCnoMnZ/jTtDEcQAI2iY2gO6tCAuMCJO2hLI3a+iwwWLDoAyVldS0CySAtW3acus1oZCIejvYlrHd3jZc4ZXV+xsxPDXMSm6jhjAUxnGLN2rAuxlLHzYGAHujHtcjuBxywgvalwNcWQFWQk96hyPxK3gVlhxVgcdaN2B5lfMLyCd8paSGbKmgK6JCtVREoQQr4BWTfIswXbJ2xVfxKiSrQhWD5Ya8pKQdbmPpfoenG5jOhz7Md7XvBtSZoOezfLiICCHDFa5QC4z0ZHP1jKLS1aOzi756h8Q2CjLUNXE6Uowwg4Vxa/HJKI0ItVpA02I0PlPoqeUbKbTQCbdqWwLtYEUqgrkS6ahHX0vBUlbRT+ZN1CatkIOwcYP9THiTy8ta2uCT9AozrBWV0GrGldSC+1dikdkyNMUWwMZWwNp09Xq6STNBRq/lubrL18CYPfhFzVCcM3bUFEONI9l0O8I2bJ+yiUyCWbGKCcVSFEJaU4L5Cq9wakaeU3iSNYauDbW5s9IIc3c4mvLG7BJLRuiQh918wmGTaWOX7u0ihAjHq3ApuLQIC0v1iw9Qam+mFVXt3ie2IrK40e7asZ6MG8ROfH2g8loNpoiX1+IiFK4LvJHkFUginuKWS0LJZasEke80m8FQsLokx8R1NT9+8Imu+xuwrl7LApHh7EUI2TVQEhAqodxqMut6vK6gyMV2MQ0zgsYKIjutNPqJpi17QaPSPxysKKsKDDVeGCbIcKEVEhvF4MHX2Z3bOG/rUW2wtKA1YFYLPtnU/qon9WTUiuICgrpjF/YWASdhbQQcwxR6ZN6WQ7m0GKtWhoXIQgQzuOtstPfk6IF+tX90RTU4KA7aQ6K6134zqvRusUh3Xd59fivfiOjNns0ULnotNBOs0mpgX0SJisswn8xKyLk4pFvCSDlK2DXdaqEcUiyudqKVHuExpCrJ020lDylvvE1wEIlhEB07VdtQlZ7tAqxkJzFWUJk7UCqX4L39bF5OiT00UUhR+z0OmYXZdm/nlux9FSKgRLykFT8YCgQcuQ1pbZQpc1u1pS9Zcmyzx1oaOBFN0GkM6LhFvivynnKhMbh2IJxJUa9BTY4TWsZ5Q9XpRlh+LiQdD0qlTa9YvUgXBc8PSOuxZajJRNlKGhXQcrosYLNVl8yIjDbOaYqvzDEBNbsV/k1d31HGbe0GjsiwkwjswIa3exG+VFtIgwo1cThtCrldEDJW2yQCMNuKvfhY6jVaXsu58FLK4YyIzC4GhYS2S9olPYaKS0gi1RIZ3lR8bz9YUDeU38G3UbN2d1esttbtRfbWbuypDiS2JYwZYCaseJjl/Ty6a2+nP69lA4ooOoplR5SqSt3qd3yAFRsQnSkmc7ENx5Bysh8G99SlanOXaJXshj8M6qwbDkQecNAVUmKT234EV3k/rocAvIG7WIpRxmCbi4bO4YR35/oqFkIE4rLy0sdLaT/lUKzyR1kXp7bTLjyEJHKz8F55GXysCj0H9W/DW6v5+o3stgNQ7y/E9LhsTkk33T1n5wbsQDKVi7F2hIC79q26tfQRC+AwvgGFH1osweNjXrSpArfoHeWY6W5UuJxyQJG9UUljiG/soqNZRAnDjGqQun/Nk2IEuRkZ7gmAqA0+zsJKx138UpXKTX7MBls6D25DcBfSrFi+AlfW9dL1+SeIx7x3EfWJQhIu7NquR6oQyhE6G3KHfDFo57D4Qr2D/m5E+7eFIyjjwd4bqurFpW6PgTFLRDaZSAE9ctUu8MGlvHDl6t60+YsKBdVDATSo1coR5JMOVwKOaa02vJvSYhu+enZCmCy2eCF7x0lG2c2unPG6KHD3q5ZR5aZUgCY2eCuIhHKbZRUTBkMNfxAGdp9YjXRYOo1XeL2UWbVQsNf+vPRxd7e6VzzFe/urqrB8hIVN2zW41Snx5z960N057rSgB5IBTGhD0b3ZTAgGtgt34bF6EmKjKG9/bf7CAngJmdGCTT5dcgNrUPNry8WexsaBF22ySNGaIyvUe9bQVA9ww71dqPmbLaapJlSi5HYrY40IQFeqTTzyY+1So2e7WEwdPAUYEjBw6EbTXRcSzJW4VY9Uj1WP/RWIxfSTj7gfPV9PDbbFmGW2b5RwGCQD4Z4LcQQ9fp/8viH/ntJzIuThSeB7u+j8LrqPS3PHKvAyMmctFK0DvOc6hlpas9xlXuu+GlCPbzszVue/4dNB06CwpJJKrV6IMd7GaL+zIVNB209XPH37245HMFSqerZVzY8WQ2Nk3yMADUd9WFMNOjpZGbimQnsU2qV9v75e9ezPn89+/QJvyVYsV27ECI72c/5ed3jPvfgea3wvgp4U9tuDHWj6fYeGxAPQMf0RzkjKV4SWhnuR26uBfbkUu0X/jsFtCy4M5eVAzZplGUFop5K+YK2VBENVVXLJ6j/eJM+KTgmSZEkq33Uc+cCRXw7bVXpUj7kx7fQqTGNqFCDGPqJQU36ATGhFJHboC7hWCFzga9fz/A1X6indGyQdYPt5EOP6YI4Nhqekdt8DHAbcAc/mBfA9aGoc5h2TeGAZAkfb7SwstTABI0iWSPLx8gFrHHIAKSZOf91fxWkRCu8e0bU8fAHVixvte9+n0tUCHyLFRPQwxjSEMmSVqmT1J4gNLFkFEhhJzwbxehkGQhgJvD36emvtqIL6m4yzQuFn5aOn8qaxfl2+n3q+EGXUwvMJlBg7otxPH40Vgt+41eQBfh//39LCSdTvf/F9M+aTGmfudoDvDyaa704ECtwKwok1uT3NAFYgk2x1mt4PdGvpkGqO4puv8RaxRQAhs8zqyDSztP5ewu3ACm+pCtMmKFBd8ZWwt7Z788BhZIHtrAZ1Z2WGDSlYvbGyIielh6vfh2qB7uOSj5FV9fy88x/3fv5e6++6fpq+Ix/k9hKyWR9NDziyLyeQ8BQ58xT9fqgDq3ezYJ+s7AmG5/PPJ4NoAg/Z25qmd0EPuUyv2cUNRBMPuqObTkqcnSpHFLhjLuHwNNladwa4yW1u9KgCJqLbxLAyLG/UNtR2RAoI3ASw4cp4Era5vcoZbnUqOrLNq1miit5EEQhkxIrsBeCmG1aoJc9BPs6H5V1f9/OL+5fWs/BkSFf85HXrJV1RSXvEpn023//tr/PoT6LABJr+DX/PfOd3j5pH3/nDkeOQo2NqKGGTO2LFxRUHKOZZ36dO8vl+sWd+c5JJkzFcb60VYWy3CbY/Sbsk93qPrMfaY7xCgCxCEGLHuq+8V5g7b+snP8zUUFk7RTyw6E3X6GivjCtixZUIPirbIyAddmgLt7yr7v0A+oXry4m9XnXhF/OphTs4Ea7OEO/9ID0Hd2a580vv5DypopPBmaN109+Jo6eH884GnejqyEYVNhNhRyJeXqEYWR8QZ21gqjH+9kJxJAg002KXUcOHJovZm969J9+gLaNJ+Xisx3sXuomiwK5igpvpRfxIMSv311O/aie+gr8AM1tPh6IViMxMvFZcGSuJJWWUsAVRdnVPe0tR5c3ci8g7Ppiv5RVFS8RmlOgi62ywfof871Lo+9xPosX77/mMoSK+ayW8i9dO38PdHMF1WPYD7li5sOJjxeJa6evl66ZpPL1ek7LNeXUZiAgGBFDFCvroSYR7DJTJWGHSVAJhKeFtLrHdDqtwtcR51FZJ9ShRK/T6cf3wxyfE+Fofd9z7efTrAX967SSoDCQjo4US1/XB63IGoWWlVBapeEHorcOv2q7N2mkgrycWkG3FHutBZAEb1+SpwcjfL+A7prz//82tOpOYef4+0YiDY5yI1PgcEM0xZ28JobJqBV+RIvNypNaWsPXc+1H57nhRaiZ9RmdqpZDbLtX2FiohQR2shxSgLYTh6nVy9J6pSyj53rprV5VdwG5ih6+sP/L6I/OvPz8+ifjz2tr/+Pnz7//95/7k/RP7Zy4zecW6eF18vfIjciWN+lnatfE4JAjJ5hdW08x21ZPeCUCSmyoqYDPK9NbhfJyWiwd+8G8vAIcLN2jEiSz/mi3eVIRGixoYmIvVcm9CqCl2l/hR10deFZHLgpdo5rM+VbeifDmFx0rpin0Rycz4cKCMJ3grisrAsi+KTeJiuPWNAluoEVoxYZlbvDNu55PckjcgR/Djh/787+ev6+/8E/kff/j19y39/J+6/n++9B/++sPPfRkR18rPK19XXLnktZ+4H37d9hPeIfRCVQaQIeqGcj098mptIVcj9m79OkAavsn7cf7+An67CGf8/ttjP6vz/fmcorPhUuKQtIxm+R+dz6a9JRgfsX6sawsXC9grPxeezB8rX/YrhNwpYRlX5JVcEYz4Itmr1yoLy77gF/FiNnF3Z9zk08ofPRiLntdzFy/g9bh27adyR+784fzT+fEjMi4/6+cvfeXff8fP/7dKn1j/mfqLS39hfXh93PnxBFK4ouhtredZ2B9pXroSryvWygBNVVmbVrWWcdcBEb2jyLO0Ocwd/x5n/qXSeTcD/tff83dOPkXpiUyjpTgpZC6D5vYEs3nwH9dnXrziH/x4CfxailUfLyzDjk8mzfRGGYq4k1iBizstlLbxgCAEEU+6lpF0hBIKV4s314zpTe9gAbWpZYZeX4h6+flUvv7+r4+f/1kffz2fn/sTxD/1V37cGz+v+Phr/3n9+nN9vNYqxMNybTyipeKuTL/EV/iCFpFKfCVFEcFLLrF1nsRj84OGAIdl6+/IApxq898e+L+Fmu/HfT74BP4ZTJ4w9fsdmo2AjMxrrSsjcOX1qXL9YwUvr/XnvgX8CH3qxc8VzVaLF3H1AM96cv+M+oJZiGJqLWCRi86ww5t6RtAJIaZy9BXCFX7gW64dfjKdH9fnj/z4E3+81uX4VfG/2/+717PjIz+u//rvP/PrI/4Hq76e+LqvW74Lz+KTUQYerK0X63r5umK9cvVO8vb+Iu+2k3Cb6jLcq9YD1ncm9PsFvJ/q6b3m0Pv9BL9vhb+vwHcT7LlO/RHnNc4i+5TkjMxY8200SSMe0lEbgP4Pas1mrtS5eQQAAAAASUVORK5CYII=;fontSize=15;" parent="7GYGhVI0r9KvUz8mul4n-1" vertex="1">
          <mxGeometry x="60" y="107.75999999999999" width="44" height="88" as="geometry" />
        </mxCell>
        <mxCell id="7GYGhVI0r9KvUz8mul4n-13" value="" style="shape=image;verticalLabelPosition=bottom;labelBackgroundColor=default;verticalAlign=top;aspect=fixed;imageAspect=0;image=data:image/png,iVBORw0KGgoAAAANSUhEUgAAAIAAAAEACAIAAAD0m+nwAACU6UlEQVR4nGT925Zkx44kCIoAus09yJNZVV3V/aUza83fzvv0qu7KPMkIN9sKkXkA1DyYHVxkBMPdzbbpBReBQMD/1//n//381/jw/nxeiMfjeqggAigDhmGRBACAJGGYBAnYhEFThAFHwQJkAf1N/UMACYIwCcAAYbgA2zQQIEQQIEw4QIMQDAN2vxBo0IBJQqRJgyTSogFDIEDDdP8o3A8Ig/OffiJ7nmOeEbBJ2gbYLwGcN+1nnifn+UETOE9mvH+dn+tX6Hd6/1rLPx4//0Mf//v/yvX136//8Vr/U/F1KbX/rFTpgwCpsIOG1e9hI0zwvLXDJEAbJEXPQlJBRxiw++fo2TP3hyFIkIYC5/WB6O9mLzUtzud+r0Evk2W4H6b3AiQCCYRsG7R6O89SqQ9Jb0cvd5xlUp8o/20l+51/24D+wGff5ltmzb8X+7dHPb//vk3nlRj341O8/+PXH9d/5//xCK1f13r+8Idg/QsejB8PvAJRpqFeZhAgzV5ABwCbaRAQSNA2LBOmzHNogwRAuU9tfygCYGwSEOUQHWBgbgL6ZzmHFO6r4ABmW8056kIYQZMmKEXp/Q4BnPtE0Dx3aW4S518AZB/675XkXKH+svvGs58G/L7D79/mmUHTZ2v6tYjfNtIAF+8//vWjfn79H8ofeX0+PtYfV7w+9vUV68ObjAeTIRBhqI96L0KvSdAxK2lQITLY5zjQT8k5KmN2uAzapAjAFhJ9xGwzIDjaPmHuhw1nX/z428Xu5+iFJGWaZn9IXxXWLJ0QcGg+tknkWCTYvc9zQwIkoHOqz77z9zM9R+L7oHMuFPi9cd9f6D/4N9vF72tA7/iHC3/8+KuW+BV7hX48vD+1P+tTCx9aWXFMl9YmwxCA7JMUcBA0yTY1MBcsGUURkUISJMJzT/tcQH1A0rRC6g9gBn43N21/QVKwzRinMwfJAYBhfptiUrMcjPZZWEKaMqAQ24CJwpjNXlL18cDs8fi5/2TSf1vSWVb8ZtfjeBieS/B9l367Hb95iBCvhV9/8X/7+pWuf+5reUmAP1imV/qRUJgCkX0AubSCdsQY++qPP24vMIdf8zHCijBpnQc23ZZorBmElAUTwRgv0+fRY345f+WxRhMImAEozo0kx94JJL08NqxoBSEe/24SGuPPMNuYfdv2Wbq34+0l/Zupn49MHI/xn07N9779ton/2UVTlz6fv3D981dc+XE/am2uitor7Ycu6JFmjKtybiYMhohyhhRsq6m++JJBuACRijadRATYTiHAscewjz0cZ6Y+mwQQfH82nxv/t2Akxz4A7rs4tqpXs2Mw38EA4bDdMRoAI/qh2gS2QSCCJtT/tgHkWT2O8Z9v9d8W+z8t77eJ/8935v9xmQyAov/8eGbip0oZn7mAQFuWpBJeXgIcIq0FK1gMwonqiKEm/qT6Dk7oBgVIBA1XyISrYxq73ffcSEZbaoYxXhx6uzyCHZx2kAkblBBzyuJ9WKVjdPpeRcGlSoOJQIB9GjqafccOHUg4SggG6SAszQX43ojjob9tid9n/fuj/L7UY3beO/B7+Hl2gOMnv39ose0sKDLDK2kuAYaClTAdNgswN7EBiA4YZIhWWsECIRk2d1gkqba4fbz6GBEJC4J43N57ZTvUoIkYx0rT7gg1Ziva/BGAg2GwMBdgHB2h6Pfb4yv6sMf4+46lEOi9B9UR19viHJ+LySUwX51Q9feA6fu0G2Nnv6/5378RYxl+35b5w0KBDlgEA4aWFNKdFAMOb8MUoSybaUbnWwXsNvuSIZJgBLhiAjcwOhOAYuJriqDA4AlPO1Ri519vA8vvZ/S3Z5tvFMbjsLOrk/Cd/GuCKdsdZoXIdiFBBNkxRcd5Bk7iMCtsv8PJY/LOfyawxe9b8b4c3wGoJxD8m6d4fx//vjNYJ1MRDcnbFS6yGCeahFCE10YApOCS3MeuDf4CEB2uhsZZwYbO/5ABGzTkk8/MU4KacKKzhb45Y9h6gwyzk1yAZs4nbNM1yZs7A3C7+ujl0DmS7KRGoKkY0/Y++TYFB8XvdMcgYrZolvDb0Jyo7fuzvKPO+Ua///rtvX9/id/2YDlsyCFliX5gh2OubLmKxQXSjrBiEhoGA3TQDBZtlixYpkMI0w5Zx911oHJ+DpMl+32w3avcCZJoGunJDBq+6M1vZ/LtT45HNX080VmSXluYLDnOO4WNcozr5jENOgYElBkcg4dzGxh/MyrnJ/H3JO7vzvq3lfZvv/s/fdMCJNjhIgxv40VmZJglm4sR3AyJZAUcSBshUyeOAO2sNps5G2+gvS0CaLBItGEo3vkBjp9o69N+kDY8uSC/DxAHesKJnSZMPVEiQdmcVLnDKQDq4LaBEmnWoWgGYVIBgwGHgrRi3h3wBLV9v4iBF3Ae9azjO1DFb38xNrdD7/eVf/vt7z1Ygsso04E7cAUDvMSbC0kWaUXKVxsP0RspO6CwARkqE+0qYDHZp11zohA27IAIOAiFIc6n46zVHA2iEQyf83Iii0nLJjBpWz33+v0taDRNJH3AC0IAO49osIlt5ttsiQplzBUwSIlUR9Cznu/067fTfGLTiVbntr1xw7M/Z2OOVSJOxvd9A44hx80IPioW+IqHydybUW9b2ytnAVqwhBsmYbQ1grBZSCissK0UWUAVRC4z7A746/iwg4QaFBydsgqmA2DQx5Cf3MDuQ9yWbExPIzU+SCffVijY2eJctblHjE6+RTuOi2MoRCHeqKnB4+gdk2u8Mar3bvgdmPL3BX9jexNRHJswB2vsIwysaGsm0LqAtaLqgWD414UwKNABlqEomDZVNAI5T+EUJtdHWmmjiI3ot13pnKxIxQp38mt3EuD3pyoODtbRDzfYIF7MoWMZ0QcX7EwhAvI5fB3ts93hiUfRyKxwgnxHp2Q0QtGn2TKDQcMRbkDxN4Ny0gSMp/ibwTkR07GUf8Nxf7sBE0S8/7ZfcQkUEVEdMt/Oz3DiK5CdIRDbW9o44QhlK4igAPWZhrRkOrKCTvV5vgiiELKrQYZQAO3K7bFCGMNNhIiY7PY8+Amr2Vg325/Kc0r19p0d3GCA6r58nesNWuMOfaPzmGPo6EY9LJAIQSEibWgi3PO6v6+p34e4PYLnevyO+/zue7//t8OFd4rPZRCxDcsh8DP2CpRSdqqssunqhaERtQJUnybLwUoKhszsW6BArS3bhcnkFzrJDDV8jAg7T3jhd0BvsAOORrctM+EuD3R25u024vx9LTSWR42PCuLbU8pAnLwv+lZaFI/1eINpFuCggTjO+r098ClmnGzj+4B/e+O/343vbGbi+fcPHg9ieAWMdAFFLOuCzE9sc2dJIJ2MoBTVWXz/R2JUhMOk6OIyIFZhClB2IBnBCIYRRan9kqIjJQ3KeY5Qx/7qnK796UmK7TH6bHNkE1LCEx/DHbpPMjqrcYLvMRsCG4huQJtnyRxGdJiNdguix32YDjdebbQXG7j27wt98vr/5778fnm+v+73tV42yqxwRq2kMu+vRQkoX0gGtEp+EYxaKroACRFeFLxpN7pogDnwCpV2GClAtrq4YwUsaEzOCUxIEWzTbGB5zUbHiTKCdhsbzqUX0x0CoDQbhoMljR/mCUv6GAcMWbSQMQWIuR0UQJmUMSlHe+m+GfCBTEwPoPRext9szW/H/R0I+R3SnZj5t+0wvEpUMNMZ2BWvfX0UYm0rHlwoPeUdStdVN2Hxsh/RBsJkYJkQHb3ohZCiw0GF2WsPRFvqTguMsI00aEqgI8Z8Q2ZhSjhoEEEdr0eHhlOFmTDRiBPZGe33RUGKt/s+pT3MT5kFhk2zLaJhOEG6INDRH6bfR2AAlJH02/qBGKf4xrn47YN5Qh3/nhbiXM+3I2ZnwqAD8G4vZ2YlMh2l/VIIuuorKOMqXLDDLhvOFSClgB6AN1A0uDu+ZjlO4OWTMp5I0cV24e4Yz70QnTDTAacpsIAx9x10FTRJb1pjlj0F6HPz2UGsG9jGd/DRuztINwbCa6xapIhQsiNdwoHliSPdD6F3YfCc7wl4/h834WQb+I6N/m6y8L4KCwPdRzvLTKe5Kkq1FfSvD2wy7/iAk9VbGqS5jCh1nHNvwQoHWZESLaNTX/SCRDtZrAa02e4FIcIiNiI4ZsQCQcb46A4gi7uzZveeCAfAs5kwQ2e5OkMYd9kLPfmwTU/hGccHEGE35UDR68UoQFYw27gOWthv2sfcpz7890U/zsC/7cfvWfN7Jzzg13qnASADXF5RcavKIL9W7MC1fbU5jM4iLyXFssqFIuVoG7+qDBclMkG6TxE6nCiR2eWc/hxEOE61oMHRhAK2ueleKwcAMRt2s9WLNvf7FIKbRMO5L+HOrmnIPmSasRA+mFJjG127hNlEF4YDlQ7DooJgeWLlzmP9beLHsk/m4d+87ezCudlvDOXbfc+2LQ9mb7S7VFWYoUs3I7F/7J0KwUX2YlRoiygm6eiT74gyd1VAmYhHkKCK5tTXAkqejGiCwTrxZ2gCIW5H/ygOs4X7nGOcwkIMJYLgIBxE8MR5bXpm39oGCOzkYhYg5uj3sjhBQ0LIZ6Pbq48dIeV+LwDQ4ItvM+LvVX8Hmnyf/3cU+puZxOBeIFZXVgMmyZrk+jKKyxW1IYreTCcDKBvyVRKllKuiwUYB97WYEWGABcJJMGHsIkTIxyK1eWDYZpgdnoc8IE8nLGyD0wVdiwA6gLUrHAdnwDvjFX6/BADBN/o28DMASv09BtwoeR2vMOvXqcWx4x27uk0qGW/k9W+G3X9zAr9naufC/P27z66tg/rTgpcdTGADBFQCLuCFS8EAooqqG940rXylvUiEaDMDyMZPKgjT6sCT6Iws5EBFhC0wBmw37Zryep88CGzEJ5sEl473p7AMhMgimqABgKF3oNfG7LeUH3inCDiOwzDCYDWY/b0+fzdOVCCAcPS+hTw/MhUHvLcVc3bHNM3vnHLOQXp/uyuzMwuHWAgaK8LLyrSrYCY+f60g6/LmjlsuOOBEQAtA5s1KYGF1+Di1lQpXlwDJpBeG7jgAkN/RUAdAk0VlGLD6HeiuMcMBktk+ApH8DqfHnne6y3eN+Lcq2nigDmSGMzHW93CP8MYr3nbkXD9aU+qeItv7hv7n0B//+Zj7bxZpbN2bO/V9M5aNgCgY4U1HBfhCIVeur1Ws2xt7hyFkXTCV5YAVhPdlOtZdrOpge4V6McCrwREDyKk09YM2zAJyKVQT2ZP1LtGYMIqI4fUwGkJxtHlqUsybntHAm8WTcAxC6TlY7eNc5jggTrE+5s2Oo+i15eAT1FR7SMjJahdO8KBR74vl/7QDJy/4rq/ONnzXkzhQBJVdDzAgB/XCLl4fvh+btSUutR1XKYca1YgLjcsI3QCEsBnhQIhh2F0RcLytYAQBCMJwhpqphQi9z1QHBMtRxjgAqosE78RGZnYiGE6IIGUQCsITAoOwvkkTADCgcvNV+zRX8KQIGKMDwkEiwpRQdHD8FhOCbQfjHca0W5+tM6dWy+8s4f1NBxL/9toAF6HC5F8Bmql4XH6m4us2Kmtt80WSV1LRRRf0FZAJFIkgohpPM8Ke8pgJR0U7XQGKAVfmM0+hFyKczecxZZuJufOAQSlirlWahrdZvhARRECQwzCkvhztRdnlsHgzQc4ymCIHWT11rz7TnZjZjfOmEU3RZrb9IYFqKitPTv6OLH9zJN/m/lRrfvcy51YQ8CpBRq7K0u1r1/p41ZKe/fB519pB2guVHU6gnwtgCoFg4zimJvnPLnQvRAUMb8zJJ2jZUh4rZboLMWGg0MZdzQsCkJ0skFSnyRRjEJtmLRbTAWZXj/mm8U4tDIeKaNPBOLjTJHecEqpIZExY1dkdXGI6CDm9gUhkczRhuyOyjhnGUP12st0fCL1ROn76txtxVnKZSW7KqlUVF0TFC0Tykc9nWHFRK3ZCgtzpWIQdGCAS1RFBNQ5nwF0RZESo0yGYKVMk6IhegQEnEQOLNuUx5xSywOoyc9t+ulPVSF3sAy+AhYANJIzsLB0QpjQJoGvxh+FgcSzgar/Tt0VAHHo2x6WbtoNwtX1mBQ5FqQvQ4fPtfC/tb7lwb5F/+9LfgwMQi+g4OEsRKS3vxQg9yhWf3FfubRnxIshQhLEspi1iE7JTvrDDFvuzcOCHOrF1RAN02Se0qbF2F6TgPiQhUOLdISgJQMkTwzhRuW0vBDfBAhlK29vQ1OjlcoBweQ33IYoMsJG6oAKKtMF6u3XCaQiuCQcOAeBsR9vCLMCu5JRVOAyjfC8pj2WaXeEJujgxg//zvqyAAVWQuRedzIXPx41XRP4K7i+kTXFVBBAshwxqw5IJP6CEAG8sYLW5s7E7mIhC2LK3+pxvTYRCWmUjiQjaLDjeSWbAIeXdYXoUvYEEcUm0FRly0F60qXECdjDH13V2TVQw2oRDNHhX5DIDaTQIPak3iI6q+l42X7iJSgbVpMwpGY+1mjp1o9VnYX+LhTpu/VtydtKduQvLQFuh5ZI+tB4sfGUtO/j0p53IRDpsqwRVoyb2OvXPctjhSCPbWgerH1SdlknDtBvIIdxtGWGjNooGSsubZggCXyClIjMi8m5wvizcCCbEV0DSYTsA8qJWGvLtZQOoSa4pMcJiUAwkNpy7GzvaCxHIaIcr5PTh0ER7yInAxqcgCMZUKCbzeZdOj3d9p8Rv+8/fgKBxy2pmnLPWgu6HsRbvtTILqbsetCMhvEpykRZ2vW0kENWxM4NJEK6N5i1GqD9UVKpoVLPPh6IMuarPFBxuQnyVADICNJfJ9Or6+O4QMm6FUYwi5I2ELtzdH1AOJF6dQoXRcWO78GhUz4ZppSlEUTuQ3YkFA/d20DFO1fPBYKc3cQJXyKIOvPfNeTgZ8Lc74Fyl3z3COfb4tkUrk0njXq7FKmeVM+hXhrfk25wCi7qqlEFGkrCLKV60w3vLNkUkcBUYCdHEJvqsJLslCZWuIHHFlodLZCLJAw4EpkAeaoOWdxe3kuO5KT/sAApRRshXnAyRoJx9TeVteme/ZM3VN1CL2LZcMS4lSIHbiiG1No4+yT/HxExuNmbehz79Ru061XqXYQY993Bm3p75+yYsllHpJLjjAjMjJFTcKYVAKC0xIwA5QVi8J40S45Uydh+vRj5Zg02yuoZkJeGIHYtahlkVvjufMxYAB0Qakh1dCyi6Ep0CQQKjMmC45E1HTnobJgJ2iMmQhjzU5f2uR0qDZL75JjQj4GDZ2wLbFWG5of7INiOOQTfCvfM2Uepy6VyCCYV4KjDfy/yfq8e/g0FnA4wuRyT1MF6om3eKdpW1nVtBO20KlBV1Eg3hsjpU2wEtMpwguXyy36uNbCwj5aA3tKOxClydpDIMGUUSMju47bJPLwLVFWHTggPK/nDF7BSQgkRQud3kgXQEGV2VCBXhOlgMBFgi7oRVS06ymGVjVwKBFLXBiDfS5lAX6zqLDpsckgtoOA639L22wzYAfgt8flt7H3u01K/FW+vGNqV7++6oMQN4CJdJVn8WIyqiWLDsDOdkXp1y0gFdjdRk7AjZUdV2cw90CWoRdhQDtq3oELEdJifIwHQ40oGmwAUQ4YxlFaXOZOUg1sIEM8lwIIp09n09FUdDUEAplNMIRWU8o9ZWbIkoNkpVDf1rNyZhIbqKT5oZiBIOb0JEdFKgbrf9bYnhb3r1QVrOlw4ssbJPy17r+eFf/7b/5VXrD+BTBZC3YjdgrXs1jwylaFj8QFcOh8hkQTbyqajsJ4zlzaQuKdlECQnkXKMuF0WKxHadB52bfHLJEN7lsU6GzdWmPmwyGv0mAJF9LzrxUDNdgt2SlEaniilLIT0MRfgTMLI63o9hVsBgnL43qrO5Dvy72SzOeg9H7FyAuTXzJU/r27cDONXQ4wNu6BlSya+96s6PxQVFKQgZCu+YXlQqF7T4UoTVcXSScIRkK5moTAORDgsulht+i+qAwZSN0JszQlbn0xNAkENFnmrZ4DNh+vTDMrqCH9OEkRKAyOwOnGjOXR1vmQ1vkJg6A9hux3LRyOoeDhHO6dMhKKq796MLwMhmcyEQFmwE6ntR+Rvwd+zRqQ98256DdkwQCix37SgpL3DZdF2uzNsk1rUrXFjGBYG5vboikQB4FWmK6cwpNAbFAp6qDTmQNHMWLcsKJCMxOGU/Zj9qfKNYjXtq9iJEkxo63jCmGusjsAgAYbK7RnJ+MAhZ3c0xjDvwECh6lRiRhzbD42w66u9mjsXhDHVmF426Nqmu7Iyu2Z9gtPHU94IfSLqjpAbhyJO08SRiGqrbIipQeBhccefHzozKJV3GzniygIhA0AL1IFmhTQGboTDLzB1NaVuxHIvvoBKwNax/z9FqhI2zMAY7AJzrGuoyZICADmA96e03eXxQfFCCI1V9ItpC9WL1BevYcbpn0KkgonEkUgsUpzpqq9lG7kuLczY8rldAtYM6tO7Gfg8rqE/QNy/mvSe//XdMkCsaQ0/Ui5edH7Ev70fk5tpE4OvTbdWJFwUbVwfvzm4SYERddASCqzFnhssQ0ga9EeXo3gyIHEoox472I56TRARJT+R4CG+ED4ciOuSGNQa3k9ahNbor3OcD61g0sO2PaLIboSdVO5W5aqCNvRN9PvCN7zcPZRwf0qck3djpu8x3buk7znmb/ZOZ/W0H1imasAIv8POqR+Hai7yYterOQjqDj6e9bS8v2qkAkzSCRIbYXF4YeastrLvWoCCARQU1tVawwZWJBdTOLLrX+21C31C70R9S7PpX4xkwTk3yt1pbguEJnBpnw/Qj9wX4Rl2BA451mb7B5n6ZJtB3MO1zEX5Df2AYqXASVncMtsuey9A2vvfxVAXbv82Pn11YyGK4kBsroh55Bx7Eg2r5mYdChr36omqlL4ciZCCqG5y2bFSbj8RKUYjosNLRXszexVnoQYTGYBogQ26GCgz5DaE3LQvW6b843vqwqPvLfn9DYQh2zXmDupFgingdup0uD3aw4zdS3GxkAPJvhZb3lnR2PFFhOyK9Kz7qliprCvVjvSbwnuLSicO/b8Fi9O0jXEEFg7rkjTBWRGQopZsEwlczREJlUp7OYAAO0g5GZJcc6Q3YUU0Pnz7EcQbdVkZxOoA71sD4t8N8Ijw9LDjyJ93uPggA2UF4W/gTU/Ue0G4VHfIUdruoP/3bg+3AxwX3esc3dtCHPd6+nuNuutN1ahwGFN0BirGI50/xt6N/UuL+yVMFtYElpEJBhHfDH5HOGBoBQUnKSjCwJJSSUGSBCEZXMKarSBBueJBhFLKZpyRiYRAFo0OV6fTtxywcgtqcsugK8lvXxOxu0gC6HkcbiMYpeLoc8R1rvE1dm2mMUVYjCg44GvIJYpjy54s8R7UNxcE5D0e0qW7dqwMb1nAGxrp03X4kj3zcAMfNdedc+IAiyxGNUaqjiyUuqgmqFQXVY1+bqYXqZBwZCDZPWZY1BX0RXeCjQiLsrAhiEiwO8bgbDAY2oQF1nO2M99mI4xA0K+fvezzA2PQdNXDzLvq2he997DXUyT5HFQQo9pEx2jthmKFxIkOh9+VtmiaUxTs9IV291UNeb88PfNPv3H+LQ1wkvo8GTkkZwCIchjrqiIoLDKGWKxQV9EcBTAXD6+GSn0aZrbfUpYCMmFq3wiJUl6VoSp1iDX7dadebMt23GGZF6Hjcw2Tq3X5/K9AFJbwZv/7mjfZPHA/bxFBObNThyTEhk9sZAMO2dFgsnlCnQewJ1X0MhbvhbyIhE91PpsP54LmFjQvK37cP4zne8cT7cvVhW21T7UawHLpsloVVF4E7yoswq4jNAPLEM4ia9k+dAF3NmUvdxA7DusT08f1jDX0Mtg1W5O6o/GATE/T1o75rib9twttMoGkAnJJItFuZbmGM1/Dkv3aAbDpMU6W70NU9nt0DQ29O5zriENlJ+ziF92fgCCfBrJMJdjjZ4V1bmaEWHJbSnBS8L5fRUDCArmchOkxW4CJjY1d4GTaT1GWjvLuCDhehrAqADCNkQJXtKLlu0xnR1dU+WzgpoFF2ZLU6RSkVARekNp9zvs/THzfQIfwwqdGQf3+cU4udjeEJkDw2BXMyD2jUdynYDBV2LtW1XtEd2HBioW5snbi1IyATp68BCCjDIFWUh5yEPkc8nuntWGbvT752NuDc1MZeOiK5rzSSLuVewXj5hQpvu6La1JlOOAu0C9gBgCksdG+fKgCTjNHXchdm4YziaCSEYepGr/usYnRHlrtviUW2zoTbBnQ4MV1Ev52vMbnsTuK3U57gW7MA33XnWVi2MsRs26Ai7pYDO6qSYQ6nqTfVjcZCrIDtRTHCDhkN8cuHRu9OCI8TOXkYYawJqQmD1VZ1iXb5kTa8N/cFrxdctVC7RCba6TYKxt2MYyPh7PreqWVnS17Q2562YEsNt1RlK58sNeOUbFZ1r5HQp2saKd8kUnn4Ju+TxO58bfE5d9jf7WCTpE0+xejOKc73jHzd+EsVAzmlx0Y8SNJ22WWH1DCgAg3Vau61WSazIkR1+1N3eaIUCK6uS+GEH8cJA8SaT9BoYbTNZRlBpbQFprH1zHzAW9x4RCKaiaBu7XFE2AmEWVOKRBYMqCvcNaJQJippKCpyeFiG0s5uAOt1j/aiqQFVRn/vuLNBCY7vyU6EnSyZ6pfonGiCIzRiMLlcODD0xWq8eYLWaIhkIna7on3Md+olRaB5kGebA+7muEpjz8VGc+/GmYlMTFzwtjjzh/XtmonjKQMQUKYcK+wn1wcbd1tZLchWUB0qU4pZBt3L3b5GBMJqro8Icrd1kEIIqWm36SBMSJAUQp2QOBqRwShjbRhg98p2lm9MayPCAlvwwudDjD1tmAesjtpG/2DAjon7393mmO5BDUHGJwoj42z6NG/2xkzhS6Qt2lF2pIJR774Gh1sy4/gzfK+5jw94b0HndBHuAIeW4pFWvMLKSzfiLthS0Mht50aqTNQEv0mWwuxO7SKCFeMh6SYCa6J+C2y5j2UAKJ4OenYHmglS3t/J6JDJrdMwbkPHBHVFi2cXjq1pIzYI3rRqTGjSpNOmGMHdX8+RaqFpdrF0SmhoAbTJd5tBP2Eb0yiX2CgSoSZM9jOYLQJqf+8BDGL54BNvqHwoHQIcCLgWsXfoAzvgJ8i4Q4iw9SgDqmVB9kUEooBqckoolKMyNJy46u2mCwhPEc1WnDBaQTY1112/shoVcUeHpzeiy1EelBQheE2s7hM76TRfDYCH30CCo1YKEGKISJpwgOr+WTisNIuhQAHZfzfkMVIUZE1811493IzJIBkj1HUA8b5zJ9GZX+ukL5h0wiftJ26HjciXWOsZQGwWeKcBaSvBDSPbtQZZwl2Foa9o7YQlCFcvhwmGVkTBuBmyWAox0AIRb2WUOKxFkeAKqJPKeEcPRgMlnoOa7ebGAY0P7XSn4eumJh34WZ2FsNG6t6fuPvJJ5zjo60gztlRIg0+txOhE15E7unYzkCjDRRDIiXklMAfD/U9OYB2QYr7Go83SBiw7rXRzD/Zyxe3dOYvVJAjTCHoXZEfH6URU2kMPr/YIzUojqk/zvRtNMhWtyIiWGA4qCbo7mzKOVsR648dG83Sb5eBv6lWgsc70av48Eu9a19CZYEZ0rvrdgQFpiLcUTpHHSLUeJ8gOmNnWNzQCFApSSLdkSxfi+pkwVYppTR51AbZc9uSKNNZ74YkTZbdeOncGgVDFil3Y15OQ289nVzeSYoXDNWgOA6yDNiOM5BZUDjIHxKzqXsBJbuTYiJDjRABJhNkMWrjQGiYdqumU/JoCjGXOvo3bpXL48eiyZH8uHwEmN2dmahNor4BBTd8JMoymcjcwpHAEw2pFkzr4nvJ4gznQEjKA0V2bCrJNeroFeToJx+RgvfNCnuC3QLAiWkQn4PKNVSt57ytBh0oJIspkQdwMWkAZ1XlGC6c4fBPSCkQb0lIHWXbEotStFTERp81ePNQAnTWhghiuppz1umFwpANSNM4tZzrhavn3qG4YbqcqlpgB0NXc3snDBqkZbJtsbJahQPcboFvFopOAd1RMwCiD3XwzUFENliQbKgY5RNnRLMI8t99O+Hjxlh8bzqxCKSzuSImlpLTITcRrWqO902HsOVIFVadY4crwHbATYoQjBKu6UpbtiVFElAKJiejjVGo6GPe79R2w7wYhOwGLGhSsVYgBh9U5OLi1iiSVY/sBK7oGSYKooyKtJvU0yjNtLzFt5IZpxqHXdZTJyZtbAMaSnQxFP7+jL8MJaWkJlcBQpiYxOXCgTx7QGYs7uIpwoACWGNXEdGdngkV5ywEpUIYRRWToBFsRQPugm+03m1rjasbbHAsnhsTUOjGITLYEFwoABu1uoQ4A3nlC/MEV4g20oVNaO9Msllcb95g7PrZGEeMPpwont8T4lLi6zWWSt6YZeo4FhIiSu6kZiMFg2r1X+54GRjoszX5fc6O1DkFMU9EBzifbdidiHRmMBx4fHZ1omE4hsGrf5SfgdXMHlC3MZDc32Yk5WjIhMgIQXJqYuWmGmO70NjD+frTxGh3Cd/VLZii6xp2mIHPK3XZ05mRLjqAiEeZWCl6tLm6Kp6V+DHFf+0BsyMhEUMputwoxGvYEeqFxlqqxzxOadPjJgAPqaAym620cXXMMQ2q410agUQ5pcIhJF7067GsTxbR9irMUGFnMsvx0VUeXAoZc9e4wshsDRIzkRKvvuTsno4XP2PL1HQc3m6jhA/b8EYYo9871AZzohdGMH0QjTgDf0ljBsLUkiJtL4VQ1EGIEXK24EWNBoPRMg+j2wObyorf6XQ/qnO2kRQQkryBuTmQxuR3fYWWXZtuOd/RrIRwknKrewfZaOD0gY4PWSQAOhNWIL5iFeJGvMgpF76ZClNZISgHVEfZBmkdysMGYvkUu9jVCxehYegDBDr/DyRa5CTbDAHYLJI+2x9SggNNY0w2rrjZwVljVl9+LUIbV2Nx9MlV3Wo+WTA7JgZDMDE5lIyYm4aB3vSqnjBJt68MVyF5JD2w7gD8CoGKqqjiV8oRsin0fOlTw+JEBCFe/8TsVnvRApIQqEVCEt5bl4A7KujSJQ2GqzaMpc1re+q2i35+IhMBsCIf4LpRPRx5vKIFsbXDgFMMmUz072EmRG9wZTngYsQmGrxGLaNew3co4GqXMSQ80NlyMllBzdOdRnMM5FQaO6HoQTKoatJABzziO02oyEI6gxtLLZNecAZ6OStEVEednPJLLNtbJyyb2nctvUzHl5b3LZGVQymJhkZuCU0d/YPQyOiJrdkrHGdnNJN2QC2L0agHaYRabNhHR/9rNYTyNqTHNjSMvN7eHVgQNStNyEwyVDQZvVFQEUmlBrcHHsKo/96H5JmQLEXA2tlcN4cQsRY5hngTLw8AymZ4j52kgn0pwp/tDk+zD0iH3xEZBqcO2qdcAkwkfK3SWDR7CfiXWjcB2QvBGy/MokSPmAHzzLBwKikghgIKj+yoiDah05JemfCum4ZYKnuJIlyzais+oiAMuTMA+mLYlNIuQKFr2whZTyvaKMuxY7wlb4HT5gh44KMGq7OEUNY1fx5iyqySyLSO7eyYQ3agbnE4ZsNG5PqnUNPa7RYzGlrXlXY1+IQIHsTo1zLlJDWZYgwnYSPesr0TJB+8nudmgysIAAKhW1QWhnLIfo7+pr0hDyhFAIJgNSfDkpshTvHs74DJaDdzfjYueOoeQ06EybSuwJ6xVRoRDSpk9ysR2AcjpGR2iYth00k0odbxDySOqfNw0m+nohijdW99bOHeFwekfaBUXGOSAcQElycTQR3C4vica8TreeHbAA4Gwx8JUCT2oAeUQAz39QG3fKohi+HhfFJFsJrNwkihkwiCHYOsOXJupWaZccdxsb0S7V9Jtp5vC+y73do6UcIdSnh5Xrr6BKBqKgZd6KwmiewwDIyJVnM/TTBqyWr8Sx9CB7xIz6GkPaHv3bbOZaFh6mEWeBiuPaBcERXrAK6HvRpe9Og/o+QZmoxud07mbgVgO76JLtKWu5To6tO/3t/ndneOhrGkWWZJUdAmSJZ+nJKboFx3WOLObNzCfrxMSDmmN+QZyhAHX+yg37w6B4JB8JjK3JrUx0VSDsSu2EFaOilbCG1Ke+KR7Po5b9Nupsz0R2cyernM5+n7wO3xlnLlPLYDhRaXQBEmPeCfiIBIA1jHhnZuTR+y8L4yqgoy1dWsb0ahvY/CSgsuAV1eEm2ZlZIOnpwQCsucxEX04kDqzrtzoS9d6MTnObObsNMcV4jCHcMIPE1DLGg1eHLAiorBgARED2Q3PBISYQdNKBgPDDWfQ0VHEkEowoSTHGBHD+YyBsRuNWsToe3SgMDe5y3DNHlGxsUGWcQTn0yfmbEiyYwsQRRmKNMtlAa5Od8u4KzdqOHWiZKoVPkM4U3MyEN1vCiHUwTI7M22P28FBMWsAd5xGt3ax6FpkmE3R7xvfEFV3kI6R4iHuYGpQPIQfACmG2gXHfLuPzMwmBARqqvDDbQaSYA4ZtV+6HdVhAnYExYPekfDpnhTlbx4GSGQHA13lNhRBqGfxjFXrvLwzpXZkAQ+tS1RHQmnXNrMWQVtEczVmhF4nxB3ZGkN80vAwRo3zDfyh/WuXDILJainw7qdXlBQYLkg/YwtJ4bx+DAg/9rP7ldlIN9i7k4aAHM5y36eeUEGEW6EeWO6RUB41yxOB9x8b83hX09oleCTvwPP7IWfZRz22Vt+HQXbezazNQGoiEeyOnLqWGSf8EI5yGWDf3VFBEgr6DsLMssMRpOEOUwJqRck+RS3XEalmHgDORkT7lWdejaWWL5l1Rst/t0Uae2F1PYUFVkuAiC2t081hNCRTDnWq25832JpnrWZzJOWSK4iikKQXu4MwUTbiKB2h4wiT4eC5OJ3qsGO7vr8+8vnHWo4ZJzG89+FtGhNN9NLoHbN36aZBsrnAPKiTSEV1SFfYdIXUdEjTEKtbHCcDnoozm5UOsdQNSG10wuwOW06trfXTe8dR6qYnVoDdBVxWY6CN4qs5Dx0TgUazJ/rIGFC2jqhkl+HdVBdVb4jVK0yqYkcgnDHpLdxteMxJUYmIMVKcaGtcDWeJMHEp6GF/NgMFneh7fFoYYMvQimaCjGZIcZp+/N1gdRDAIeA00tY/TcGZBK0VWMxY6WApnCSYYIQA3MVV0fSZCGTbCXaMEGSyyxKzkt1K2oe/CKTbTrWG7iGeQM2bJn0cOrrAxGZthpq+MoMADrA6OgOWhQTTCXZtMunVVgeQe3ff1bHxu4e35tOAhG7Xa8RHbzrFxGFdIGvjQHer8EiJN+oZ/bd9vQfPGq3WjgR7eFOnyzhPQBvhyoKZYgahFipr7aQsXYpJCZLyGLKGrkdKktZheZp2REUIoZaFbnwmgxHhpJjT0hKHD9Iko6bHuGPD3hI1AgGgU5A11cY+kgn3VApAwQbsQ2CgmqV6OAcFOxVNLjsXql34txMeUha6H/Yw82Yz7K5E6PSbdTIa0YVKT8HCCodGB4SN+82rT8USE9327rlxeJAREsyIzngd4YxkEoxQk6nNQC2WieMIjZ7pPOWtoe52ON5ssT6mnVdQQ3gmu4Aeb6YJDmly4s4GiTMq5gI3d8vEoK79dygmsvnMFJfAgGKAGaIF7ZB2FKdqxKiJFSYcgdrYQTNRCbDeqSD7vcOHUtl1TB5MtwMbom/bsJzQqJPRUP/B4GJSqIYAW3qqOqDdPAZwfA9K41NdE+RmQDHkXHDVcnfFgIFIZ0Z0JygB1ti7RvxdIpiOahZsmm/Ilgxm9BVigOHsOHfc1tjSaaWYTAKEVwNzuaYbEi2r2Plyt32EmK2Z1o76rfE7HrKtXbS1byk8j01qFks3Ndm2RwqnHXJnCQDcB3fsST+yeAK66f8/PN9uru6oizXZhBYRDHcxdxXTC4uZvVJcNFBdgEMOAFcICMs020ic6irc9ME5QVN9zs48o0cuUaTitM7RUEy50gPoY2DH+RVkU1poZNN9GtAxWuRmLhLnnGVHX+1N1X90jxx1dXLd579vCSGwxteiK8dvphHmImDAdY8AaePnElu9893Lg6On37uqVpGc7YkJPa3hz2nydpsoCRVWyN7pGzDVfK2AFS5kJBOxpGh1xPYua5L53bZ7NwezFMVOogtB51iFkKvZUjLf9Y7fDM8Btxrh88SG0T7WgNrKtX1nT43JRibiaL6rzaDbFs0ioAPxFj1FDzscHV6aUA4Ry0xEEMnDxCY5XTpoMtRpJ8TpR8b3fZoNOyF25+29j9EhCKSOrSx0b1YPACjLak8is4lONq0VldxsjmaaRuImbXkJhmceogYlbTqOJXT9yVC2pxwbeFD3ARzQUcRZlAZEm8Vou8dZfptsDjmx58/0uiamfIzOG4JOF44cWWfevYhdOD+AWNDZkFTLO5LGGS1TmHr6CYcmRehWjjYq/eID4U4mcgzXCXgmccBMhdJoxoM9ec0906a6LHSrL6MgF4h00ahM2XdVFZA93mNEIEujxRGIw/irNsoyySJLApzoYSJsKtAk5+/UF84Rvx1QI6bVo6MJgoUwoyDFVHKBWTDOpZffZRFoMCOKk6ib6kvDliRCl2FmoiFg+qCJDQJPqoqBWBvbUUy80AgFMMzGST/5W5DZcdjwgtj5Ql+GZAUhduNXd/pGFbYvOYQlYqG8X8Vyqlu0r71ZdQN3gk3qUMFdJkd0M081kXK08RoajC4hD+rex0FsYztZ6WSGB/Xh3GIR08PYMjYdv81ljrfgmJlTqeo5r6aZ43vb7zUQaIKu+bZ+kpQTykMmaP/NwMQ3OHD+OLiYauC71t4q5seB91ufeCajZVIbJRqMCYCRjUOSw4svBZzggpeR4lUZGwvI7GSLjssRCSmMSGckJliksysIgbo42zzhxQxha9Ghzr6D07v9zuvfDVjN/m+bOVl3W1DCE1Ozk44+kF2r7H3iDHwtoroWku75c5iVCXdTTjgSpyAA9qyDtIMOI8PRU+18YsoTrI4vCuFsbdv6hh4nmHJMqkI5PLTfgbwa3GIWie3s2bWU6N2tRL1C2NIdm9crVhXjxlqIwI5wcfkGunDcEfLh8zWPJsc3HzSz1ZfTrbTQxyYc1NIgn56pLu6BRqMn18Z1CAX9Sc/FaHiToLtncYgBPZpjEpeGt/tAHsVbmYpRXsr2KaNP3oHkzJ3o1qcDhyuGycMuLLbRnNpFk3N/87Ie6ldPgLQAcYYRdXYA0jMAIQA0LVPdgb9QV7857Q92ZJF7p7ghBR9Kc0ZkAGQuPNp7RuBCkyRj6KBsCKMPjsNs2NJwq393JwcmR+cYdDDd7WvsabMdQHemBdACwxPuAOhWvHdx9V181Ulyx7q1u2/H2611zR1u3zgho3tOHMWhvTXOxjcmfZC6CcCmbBqtHTBEv9Ejfz9V51U9e0UR4ajO201xoy1ZBdRFbzkYcQVC2H68Ir1Ex+5djlSWudRCxoConsOCCOfuRcqzrCGzAy0Gqjle0EZsssCKqzJvLFTIKYWRHZUMBuFw89c7RGyLYlIqs7lShYwmiXWQLQ7ZkeMGD5yTnVg5e56BBvCk00i10UHDdwDtbJovfULYjsv59qONIHqQavQgcQEe69qgQPvqGXW3CLja2BpnHlLA5XKorKAfCJZfsUBf2KJXXtx9KuRE+IZTxcgI3NKNTNjdRmNENOO992fKY6JLgc4pBOGi9/amXdpRGY+9BfG6skq1tcK8EEUV4yEwbUJr9wRFZ2zKFrLosomlKqPlGMDe+4DNpQtAhaOHJjOaMdf3auakNLE+M+2aoFWNAU9dsfFpjdYfJ4YLQg3vVZ+XZG2DTIisUdZwAm5RrgjhBhwBBfaGMqlyyz9EmXfjXlodkIaJKqhqBf3xat5R9YiY1SzYJnVFVrfMj3UIuhBg9nAWmsDa8IuZD+Zrg4FPRzmquMwnyuWqSuy9whW8kUJQN2EWUUJWZuC+CyE4shzWTSe0DTgubwnKDjeoaK1Qk7EzcMdG9MzdJTJiKyK4K3pMoAgGuz5lqlvyMcHQ0UrodKV9lDqVBzOxFVKAE/9jCMBtvrAabweinOUeWKfbIZZsM8qo7Pi1BCOjueha1Sr0RQTycj1xFxKRWQ5Io3G5pKm1Zqem0XXIqFGmKu5YutIr6gmYrGBFPRCZjy0j6pms4I9XUyHCV4Rzy09Sn1wvsJDcfuCdhWBT2WGtpVafp1aWioWgHdqE4YgbYYkjE4zVVKWe2mtJyxGBN+u2TT8m8h4v+2YYC3AIjmUYS3gQW1tx8c19P6wiL1iMSCRqbRiVWC6LFjexWGSuWCqtVYpVqLx9RQqsGXyL5HIuWijL24/soms3cPtSiESLzrk6zwnB2HdYwfzCZ8EIrirTm1SGc8XH7Z37GQWnue51Y3Np5a3ErkzjqrwzGAy/FnbVw5nscURhoqL4Sl7Uw0KhnEwnigilEU7fQj4i4uZTJdP1coWvBcplyDsuhXumdStM96ls8oqosECWiKy1fD3TO4Qr82WI62au6r7UPGnv6RNuhUqGIzZXoG7fI8W1kEH7RZZEv9qyXa9EVJEOxQYsM8PZ2IN121eGFrzdApbhVUmAopaxk/RVBPMJ5cPih2/sjLqEbf91160/8RGOi8+PP288k7n8BVxK3FcZvOvxgv4NiStDjniQNB7OKxTb5ZQqCvCKxONpDjs3y0wnHUyUtEILgFYoIC69XrkiuWFJga6beFgwJ4LkcIXoZqEaRO7HQmi9fv1gOK6vy08t3FE7HvfGauwnu1DjBTgc09HWXQjZnTBXa8gnwdvsiJER5EfIMvRBAQ8iZTAqxKS4suoS7ltO9O6x0pYu40kGQtlG9KP8F26I6Qefqa3HM4mdGX9lfFFV1947f1l/KK54ORsm06L+6cejbr6IqPpB748U8qm9oKuKVmV9IamdhhxfuAxc2llRyN1xCSYU5wVGbJQjbYuJSLabj5P+jeluwKlbSRvnmhJCRn3SUD7rsyJ/xM+Hb8M/ee1wueTVPOZu6jJydVGnYQAjGvIhzFzBtdTDFRISoqI1UMFNXstZEOAMq+7YA4dXroydZe3bK8QrY0dRQSxxhwMBeDPrdeWFzLXimcAVS/QTDz/+SqyLWPuG9FTW+rHzr9fKT2UAUbWsdNyp/ZFO/VHpyJu+H899LVYUsBH1sV5RH7+C5H3x/iwg1r0CKAkiF+lu+7/TfOpSbenDX4jLxmZ2uwo11XvOXVhW0tWE/MADtQB8PZ4rDX7gPx4UArcevxbufOb9xwIYWaYjuEKIBdjQMEiCG3SFeVc6PsFbILisAhAxLWkYWMCInQpFl5K7vOTA9gLvq7xv4ZIRDF2blaEP4V5ejtfeeW8/InKX99b9qdArf7nykZEf9dOyGOaVm/H8SP5x+7XiVz214dBaft2vff0RNz8Rf0EfIPIiMxXrUmAvRjE/99J1U7zcFe8qbyAuraTBesmvva6IC/zivvkDjlc5lIuBbE5OdvWlVem65WETGfqDReW9f2wn+fxTP0Hf+QCxq564LyRXZsVbl7B/jYav4cYuREfBKwNAdu0aMQ1sDQc4iHALCVVPHJ0OcXY6WR3SXQpc2nvveCR2kDtrFdI4sgz4wCYeW/70ZYU26/WPxdq/QplYj5d+PYh6Rjz+y6+vLz/xxP2l1xUfn09t6s5fN8wvFfBc+cG7XHVja71ib369glcXkAD6jmDy9aKnMsetbDbUB/kzrKoH/syKx3L5ziuxFnbAitbuL3ehzQqAdVELgX1tPypy4ddHPK/K5yvvBOv5IsO0LqXihrgVS2j2v5dALDqI2gyqq450yq8uTWFH5IwBHNSmNbMC2WlP44LdFUpB4WIGC5c/lLt8IyIqkFDsvKOgJKJSd+3gY7/84mt97K9/+eLrv/onGZuujw3dembUtgIfeT+pv7yuD32mmFWveH4Qn1ir7ot63ZmsD3xdwaWP637tBzMrXmbpWoqq2jmsJAUKkWHDxTDulzN8v/al/Xp+PB/x+YmE3b0DVMHBFMPgDnshUdfWwy7E68OvK2TxfumJ2N5Oolbh9XRejBjGXMC7yxKroFpSrAg5Ekm/2ulUrMWihHRwFYs9CqxrqE3ohqJuzphrU2t67rl73oUuxB0StvMRSEj3qgAhlY1Y/iDief/1L4+euXThfuEf914Dr0PgveXn9S+QIu6PzFWi/NPbqmv78+UrHv/2QPLXH3E96rM+96Yr7UgUMvwVvvfrehUjKins8I0IRxYKq+JVq6lB+qo/mb+w8wNG8L4SeC21JsPuEsxVTi3wc5u36uGvZK143DsKN7Zuxr3Wj/yz7uet5YRRYXa0qqa8wWuA7GhfntldPEko02C67sGuupQ0imzEjK9bboXmkG1h9feFkKngZQNXsXIP/xQXHcZNMCUY24z4x7Vv3IEP8N8f93U/85m+/vz367ZeT+8fv/jEKx65P8IvocSK5XX/8mOtj7h2In1p+fZjmfdN5cddLahI5eftvVy58tlcmWBFGEBpB+JmPLEuYt/6lJ4R9XF/LETFw3yu6gY/0sZCeEGrTK9y3NfWR1AFvrCf1K0i9Mjw0q2fBZXi8yvw5xB1mpLoxkRAOU2gxHxGXOqxT+hhCNfIO4Si4q5kgN19DQaCMyMtGY7uCjA0zMKNoi/YkbjEGyFdYMla+2WWjfvevx71DwXLT9148HX/tf7t42fmP5M/CnG7wM/99Xr+sSCruDfij9gqPeKW8/mhr0/ckfxf96v0/Lg3ELJq38qLKAus54V4oSUoNrvdtxxABl6V4aXK4q8X0yVcTcvFpuVYG1hVuajr0vMhbPr+gBfXc++97KK+LNR+hO7PfMX9WTuqXMmbaC2dbJmuMxszVoTh2uuKukJfaQE3itjRqxkXuDNUZvBa1m5MT10q8RkOYrXyQOvhylNTip3O7SR3NKuLoBRZ8iZXfORtPOO6Pm4ktmM/H4v1L7ue+7rizycz4ofX13q8HnttXfWM/ccP4BlPfP7UvYv/QHy8bv2hJ3nn55+I8K7gywNGrFzad/l+GlG4LIeqmrosozYoCF8LddH7R8Xjs5Is3KiF5BUb3beO684A+NiBpRu+a5grMv24Vl563rci0ikzn27C2fT1GlCzNWUvM4xbYS1VBHkFYLmhGy5TidJdxFLqLu07jJVqqZTG9KDG37NddbP11BpH4bspeBt76RFDKdvAc60trnTq5/r6uD5+vH5eN+vHc98/whH4VRs/n5Fcf75+evmuKD/4Y8dP77ueCn+k+E9gxSPLf9T6j8zX0hWvp+mlEq9L/qFX5f00ir7Cq2DjNjci6MJChF/AxmZFxSMiSdOFDMXidrH2wwzhDuii+SEn6yt8ww/h8WO9Pk0mnn9RhNfr5gVxqWSvD2SXlnrYAcGOgtLuHrDbLMC6koqP0UB73P5h/EfG14K1rirw6jm/gHMBPfSdYA1v4ZAnh2NRCEbPU/LOOxBw1v4gCNTK+zN2Mn/9+4/nHRf/abiej5+shX1VbTz2/YF/D4W4sr74hVCRUjLuj6suhD+eWo/XXXjCeW+sxKpbw7ZCWVlibdwptuSXcdPVdfCFXbKJkHN/eq1PBa+dZpG8kQVdoBP7c+8kVdxbvxxx+856ecXzypfwWRkoL17MEFQXHhsvGWRlg5pdaTJA94yISbiRuGkvhfQDWXW9lMDX4/HXtZ93/PG61vZt+AKrdcobaWeaNWWfZHhGxYPzT0QEPwoKKuORrbFwbcvePzLxR2X56+uqvEJ1ZwQ34Efdrtjxsx7rE7aXmY/62lvLtbeJH7zykfd6eT+DL12fXhVlxtfW6wqkI2j6BdxWS88lUkP/KUYu8io7uslvPWJ9dJFl6jciXNhMXORHVd0Br3IBL/LzQuxfXuuGsVSsSGnHqgxug15cbuJRNPVyGGvkDOlY2THlWnfwkfGoV9UfN5bIf9z/JO6f+efzivIdeiEueU0/YayVDEv5wLCyRgpoevZRQSkqotWfUHgFVnY/4VV+4hYy+GNf/+HXL++tixAf9yUK+xlWlq7A01Y+Y9dnQb60fScIXSivgkrb5M3FNI0SKzPRXKkoXOLuKVithdUle3F6NnaY6SvyARJ4CXSCrp7HHje4n3x4X/oP7s+XF+P+oeenWch/uq4H7/XX/QzfuPTa/mMh7nLVgw8vO0E6xJ1NuJa9EG5kLvxxAcEXPx+uvO2V9Ye+LHz9+Ie0gJe2ER95PSRGbS0qI7OLTzaBrbACIalZpO4BXM3PSUDZHI7s+fWR4eINRDwej//y+uPfH3/dDseKYvkOr+VlayklW1jhyAhSfOTCVY9HmcnQlUmZjmQQl8MRmQGBvBfv4s10WplA917DYS6uQGBhuzsECFYASnZ7FwNW7l3bd6gEXXQuEwkTfzlfxfuSV9c+fl4P5+szzMr4zH2/+CzyEm0jilw4Zc017LLYWvfjygeYr5KufCBi+WeI6a07X1/Gw59JKb1Diyu6JfOD8erieoSU8IrwMNplcijBhocSXbDFAJedm5tdjP9gxPWDF+NVF9OZu8qvFYHgA1BKjrgiELGBG87KFdd6rB0vrowFaqUiVm5g7Z5yuRS0EaTFeGvDDh0pUpmGYyEW+EFFoocntK1OIG5AGYEMMpZBVTNR2PUCPhT1vNcD+cFf+qzMzCzosnGt170+lUQNZj3lMACr6c/UZZfACuF+xA5u7f96qzaet/xRWSV9Gq8Pvh6x7kgwMzN4FRA2KToWQkXc0zcCMKgSijQdxXAr9QXEuLs1SitolZzwxYQCWw8Lryw28dcfxq7coISl6sadSBK4BICLDpTDiXrYgUxWx8oLCcSCH6jpaWwOWaJbSKhUAayM4JrKf0NfM8TARjGA0AgRvDZWgLj3um/K4JPB1MqfqGTkJz/BfNUv8oVEMofi43U44AeMO4QslVcl5Pz8wK3Nr4+PV/3S4+dnievHXabxmXnVY/MRwsW0Yxvd1EREiS5SaYbQEjdwq1TGlbaxia2AnEkytcIoeRPctBa4g91Zl1EEgpK/wEJr3kDNzbkYkRHD+04rUYSzup9QAVLhl0DDlR4p3iakakhCPahVMrxAoBs6KiTgtFXYycyeSPbIHbGeQWUykdp8bO/WmzfsKDyyTL/WeuD5+MqvKwwuKRV3J9TDKGqtiCa4GI7LjxX1DGHpIfOpf73q36Nk8Wsx4/Pi5UfxqlwAK1xbqqSiQiaUdcKHCt2gk77cHchNF2x9+F00R6yStwRFYGdUlD+afpk9UBvqOFkmWhdQMUraw+6lOAOADLia+R6D+HYHDDtB8RBEMN0T9mhojVD76QQAWmD0LX8YbtHdVAG6WFcpoVDUci0sB4Jk7az6fIYf3CaKkcSFnnTSzV1U+HqX0qZR2y02LTA+BG0pPrlDd/3oGeMXV+Z6EIqX63GaXqiLfR7J2CKBIEpET/mBEIwIgJYlJHHZIDaNQmijFWlNEBkKoZTgalEmhJ1mVLh5dF0ArKESHGmY7hoDvsnRTXHH0dZq7ppjBPemoeZQnGO6tvoyWBDDTbIjSKqa1u4olAO8yEgbHmm2WhCNVDxA2b4cuwrS9eH9MCpZ1QzEZoGfX2s44d1BUaF9Le/94Yv34/7hWs/r37TyD2FZr0sVV+DDyVZeiaRNRWblusMbKwu7nFNoBqTGAwqosqVlhJgoukwmV8FlMJu4l2oWfjnU+g6IrNGfnLWbabPwqSuCw/XrQuFoWJPVNnAYye7Mq3nkZItfduLvbH2MidDnW6J7emx1C67Nm4xsncQ8VOmkrILhXK8V+EI44B11vZpNDGeOrFL35DeHqKmgU+uM7h0gvbkuvgK8S05+aNCjSl6+5L715DYUMnlTG7FbKGl3ujMLoW7Q72Y7uSqTQXdvm4wsW0kklWE3b8tgKJvG2RruXjpUkB4lydME17Tc4RqC57fusJtoB0MjdE9XKMZIfaq7REKHwng4pvNyo42Gpk+KKLOkPO87fDcU34z1iCRvaJGlvcB0QVI+4Lupkpzuk+OE4UN7D3rvIOgH8hm7Ph6sz8DrEdmkBrbW42GAudvfOlxLGTu520TAldozxoexYJeliE1f2ewuCmA44VDuRSCXMo0o7R5mgW5TRoUhMFtYyMMzHLLTIYDah+OJ5gCzOfz9V+oaRssfzOSyvkOzmEMiolrcJAA7VTX6gS0bQoTLhNKAR58xWyZI4h1YNiT+YP7CBn9Q8s34SMYmIHqEyjjq6R7yMnZA8oOxXlGf/Mr788nHvVqI6YFwyogBcyPMXcCC4URd4I37FeoqJzeolIicw9QdgN3GnQuYeXDX5awAE0TQCsiqZW2Ejewuo+xpBdLoxWWHDxNQTzvcISIbIEN6t0ygubYzJaGJ22jBGsJkNrMzNEPAOW25yWBE6Xji7nGfzuNm4OqoHDrKO6cBXZV5Af5S8ZMso+BYwf1mWAAGFubJRUbJcqZA60YrhcZaXIrWdjYdingfO1JCj5yHXOJtbzmKq6KF2Ji+uAk46Yi4AJs9haBjYFktb8nd+rbbu9vktXzEqVJBR+7mgpy4hq3ThiZIuQnKhwQdrZ0EGnp3CPZ+nPbecJCh6KM9PWpj/tsuAnGVS7EYG9VR3XQNI7t0+G6AIcgqIYglxDaX6qnt+HS+mq/MeGs0AGhy7nQUmPA2L4ZTV5l1CUYiRvYFDIpVeAfPoFDNvyozwIUof5rgxdVrm9WCPdzT/mBK3Fsumkmh4AjiAh9e7LkfVSjGw9MbQFAUy8RMDcDob3ezlXAkPro2CvIIgZJEtjEjTQY6sxNWuptLSEGs6H6ObkfypMrsTDAEhpkLFzejdugmq0LVgWyHUGI5WEDaeCkibD4Vf2KNi3hTq4dffTTjOjfvdU4LTLRzdqKbd9rrtRwbD7UuAmUVWSRWxI6HlaFafkYn4XT1OtNleScBh+RdwWj7Ii5X3pkt9rrV0nIWt5om9XISuQh2FRQIYpeVTCLCBdfZmGbqbbgVdNmaXnb08FdEx/m7mqMeuaxALSoXaMsxwvobpHN12tajW9z6eVc3ubTOS0OmEWBu7Zwu6i1fXmh57FnEXmjjzc5dw+ztKxDRRDkJyopAbsNyRivpDQV1Pij7vTcYoZVho8gQP6QsX/SLmyhbEM3Y7GhMEWnawTt4bUjaR+VqidZlkXjhVnJL3Y5JqgrZOuqRgqPGYhdBOkn3HSECJU0XNlho1ysliik4OQ1QZcYGmfa2K02aZWQbqjQikESBLSEl9GhqakdyR8tSqIcmJRDdqDDj7PFYPcKlzcjJOZqd3z7gNMAJ4Awo7JuMDGbz6jG6SaOKcNIdExYTWuGK0HpAvPIVH7Ve+CjZUKvEpAXB2ha4sapJYNjelRR5tB/BBQVEYXdzpZpJ91KBmwQVoWaqyScpRuzpOTsKbqAjEQWxGGhBFhq2ikw6HJcA1BnKxM2Wa4ccITPsHRD7onZjpoFbgsAyKmPZOdssoRvcebogiciVvtPkcrwIH3mqY4QWTvQwvfiUfbWYHpCMGKXJtmDj4Ey0FIw6Jodz+7o2hDs+nyrdu21283fLMyknWEKwsG4HXnRUOYLRkzt3KbayKmpVdwkk7pZK7F7J3czE1vJXt1c1MfZ7ulqLcdhmZaIn3dJmumPYbtdcYtTljkJdAL2b+akWBvVCx57V4JPBTGaoglzY4+oRoOWedEGu4N1/Qmv5ZGTkpOoj+UHjZMNc58Sf2Bqi7ZmvNQ3JJ3sfb4FzAcwRsVJETGewVrEUz+Qd9l5ZWYbKjtiBWi0GJ2UYBXAhU7hy3Und1r2jttQtXssssCpWUclIILoS7Z0Uki4eIKOH+QSTO0W3IiIJZksZsT0ayAo4sVIz7rWbt7y6RSmo6KzXcDVgh1yOmQPl3urVXSvkhqsSfYu7NTPRczcio03jmYnkI/x+fO96J5Cm2QBLazafhvzjowniPZt07k30xAaM0kSQtf2KijBrb+7tMJDV/KoCCmQear0dgaQiMsCLrqtaUiBKF1QEGNX0FzpFZygi5Ksz2wywg5dWfGSrfL7N2emD6JZwgdlD5HtVgy3r0geC5UEmEOoAwwSU0Ja9eSMjsVpUYQZWdPdls8yBQhnrCEsEw28NqKEV8vTTn4rMmiR42iq7pGgGRu1tJMV5XgE8LWl+/xMKKHxRkFTM3MR+fBXBF33brQ2NYAEr1DBXwTvAyLWAbu5Imum007tzQ2EtgG76yHKCFB+tkJgZPamvxzcwUcZW4iKapoToid5hTAwcESPhCYSFFvXk8pG47T3r4U+NiDqu2tCp4XsyXycbZbChMtBzmCgHFcyRorGZCbTI29GTsE8cujA8uU4mFZ2aTQOmOw7+xu6+T//cXFarIWy8XMrNlbU+vFlaseTHK5/bpVy8xRDyhR67iIKZydVhPCdGA7mBnWQ3D7rCmYQjCkBg0RGN4bha301QiN3Zy1j0jAuIyEYjWo1YiJC5nUbH2iFmI0Wce9M/x6YrzAIgdn5UkoEHdUkp7eCO7MCC0XOvgiQ2DCiREKunxGs7W3bYUA2AN43HBwsCOsrS39Q9Ti/ubwt/qmnHEHXqaesKC0/o88XrY/+67vtx/fnVie99xwrlg7hiqvUORoYu9miWHO0YAbyL6Wi19EKQqIniozKQUeAaUGJaV0ZIEMvBcq2NRKq7xEAgQ3b6qF0Hq9HmnvBgIOUC2ni3DBXYBIqgIw5QBCIcoYd56OLqiaXkleAWnHeWoHop8OAP3NdLvz4vYJV/Wq+FauWxjgdWI4rvQz7SR6N84VO3aVKF337Yb7+cldhfVsT1ERFx7X/74a+fl/7SZ9Jx/fI2+cmFHpQHhTMr3GKGPYAKBM7wwBVrb8FAhTr0FshseYeM7gu6ur+cBHDZUX1BOj8hNMhd/9+0gnaFrNvYe85RmW7FDtCkWhdH2fOQiJMwdZNf0wvbfYFGmMFd2UWhrkGZrwST4UTcH/z6a+36uHYFga37ZQt+vL3CagsjHD2iQQhnO47h78N+6hg4UK5jmRleUfrrEY//kv/6if94fAV+5F+fP7Bv/FWLeT0yjBRwo3EdpInMPgCBNhBgNhg8CuOTtTgRPcnesjuocUbPxAaj0YRuNGGCSL7LYdnQb09Uq9GmmdLXBOs9SiKjNS87SpTpCKe6GcyNAETDf20YOm4MIFtK3I4d61nr+aX1P/Rf88/H8//+l72/Kv5/j6i/8OkaVVaPjhCBVvDrDKwGqGiU0TA5g44b0eIxQgf6ZkMfdV3rDj35vB/6iOv6iX95/dqy9Yv7a+VaV/BTTEBNi2UseLrcPKHKHD7YrUYnO1qlvnVHam1EUWfOGgJskf9s69r8eiHRfXkwAkdHvnWeuwypM5HzHY60YmAQA59WP5HZC9FCW9kNlylIucMbO6VEqoer2FFXZqz6GdI/6h/Xjrz+sPTX40rW/arIlcwR6+7wZ51KxYlrfEAKtF9mXw+cSIi/4btd+uVD2B+v+w+yPv7654/r9WvVv/Hz3zL5P/+1fn7xv+7Xox5O7gkOydO5DZDxPUpqsEgkEGwyRdAh7ZmhQZsJyztwjSgqjK1VruW7i2ahQNw9kzWqkZxyoukBAkf9RKRZR82ktU7Ula5NdJkmSuhRWwHb3O67h1CC1WVud9V/X/x8/aGf1/9ajOcz188/H/e/88df+eN5//h6vf64Om75TmlX0/an1tqF1LEy82f7XVhqwcaWop7Tda3ntb5+fdKZ/0j/ywu0/8///V9f/8z79TP1eiw/8eNKZ7kVBbtdb1wKW3mfJzup1nRCEFqBHlREOVrhL5FiCrAlZLTCRZz7imu6pSlkj0oOTCsEWOjWUHpmdmLA1ClDNtOvqcXKgzl6kdwFunV7C6gii2vKuxPDK9f9x3VX/fETf/5B/+P5a/l//cc//sc/X38+tfXSjxdeeb14ZJ4BjVbE/M9Jk78dwBTpPPU3+tv/2kHbL/kOf107/+Xf/rj+4M8f9Ywy/KH8ejzwuH74+afv5X0TlQU7ysEZQtoD7GI1v7sj8C1oJVA980hG9TMkgAtaiM3mSdH0QiILgtD5Y20M6t5LFGptpt6PbublQDU2AozoDCmOQAdn61oKQBRE3gjDS+VyIzCsBUS2OcksrtfzB/Av+a8f//gv9395/rr/wr8+8TO/LK8fyZ8Xb7ymnAfzG44+QOk72Ow7MIn3d3A6fJZ2AgZ+PRM/f3wu4M//+J+Prz/ix+P/+5k//qr/Fhc/Puz9o+pxv3S95OUaHSWcWmJfMm1TZtCupi1U2dpAC6uadGVTF6Lly9wD7BPwiHVpBnrVJPo9A4XgqAC2bulwVjsSdhfCrR711SOtDq9CnvI5sVdbT6ecEiUhhVbD1nZ6E1+6cAfW/vzz3/Yf9z//+m/xf/0Z//cX/2si1v+283qUH3tnnSgG7YQbymOM1vicEfsdjAqwq/v0mJ1Sd794mIj18wrtF/jXeu2y0s9/x/7DH3B+5rLu++meoNrjtKqr7hptLHGBTMtFtZqE0DI2LYzK2mQ12qTqqXhHF0bQgpBq0QWAGQJac+1d6cYQftiafTAOKWgC4G+IZSgMpns+Is0ZW9MQP00wd48vLboQLaIcTyP+Gf+4oHz9T/76yEf89Y/n9dK//uNjPxeAFZk/TzVyypILmOlPc+y7iNeWJkauNIHCaH+jRxgfMtdnXPHa9dfH64/PB37Vo77+fN1lfe2PjEfdVfvCozo9P24XLV4csix5N4wihITaM5/EJ1cJbkTp2UmSEs017PJsI3poyRj5ZJiHeIXpmuLULGP4XL2ZIFr2oYdQNb2h/VMz0nt8S49D7GlX3Y17AXXuo4ECkxfX2rX/evzKz80v7af++/rn/sRfrfWxIvZVXBp2atvy1TBcgz449Wz0yQsLVmI5colelix275JtI9LLpW3kp/zx4yP+8PV//rr/L+SlSOIv7E+/Psu61V16cnbk3a5oKGJoMdUm7U55sXcgG+1TlFoAqT0WDLUYeEAlixEH45pPEa6OuJo/AKtwChoKxIyP56xG/9786jknLYWJDSO25SAdlsxSiohunCTBiA/EuvXzZ8R/+/jj0xf+9dcv18//uBj+Ix///lTtj/hATZLSnnXNuZ7G99GymRBRgSy45Eis8lWoB18RZzo6w2mtWJ+Eza/8Rwk3/pRx3+vjcjzEJGMxGBuYU9M4H4dUQNtEQiX3EJ4WRrKBsiFz0ZnSKFbCtIVyXDCtpHS17TjJK2BVF+97HA2P+exZBxxb0/Z30t0JiN66qyj0tJGwqRakZ/XUsyM93HQGJJGmFevD8fn14Y8/959r//UT/x71j4/lq/b2R2hBOqOUAGC9HeEYwJOdeEZ7RMtryyjuXBtVygTS3dNNI7PkS4GvqlufK1l/cn9dF/f6UcpWIQ3mpBmHVNAa1a1CAkCMngjjmTXkZm61SUD1kwWZQi7fEfvwIGC461oNpEwu0TRPjv5fZ3t97vwO7Bp/MjQeyu8IsEukaYtWImr19Qt2YxBNVxDBxphE6rFor/LHz1j312ft/8KPx/38weuVn7c/rd1dE23uOZP0hqlx8M/ZWWcYQdUVIqwrdsovrEnHtl3QQ+DwBC1v37Fq8XJE+fKCqjXdAJiFE+YSaLydSTjSYhjqAUfsFgJXQzsaEhyFSCucEYwP6EI076v8Wy7R/xJHHo69Bx4HJBJH8Zvxjv0mHz+cRLSLC4BJRUjKTUQWMUPJeh04qhEk0QOC6hJze++XH/hRnw8UlXc8KtDzMA4nm/6tJmwA3xIS73uA6FnCF8N6FRe9+VIFrlFDFEkGCyKtnl5SUcwiIxXMluFt0bUWX2ELLRwg2AyH0XLEQdJKC7xgC527w4RXRpq34laEBHCnyS53Z6s8e8Rf0YQhqEd/9N1+Q1qn1OQzFek9RKsLukO1It7TRTq+iujDivgGlWEeXcjo5+cNTHPuleULCKSytSmn5DA+cL1B5hPmzx9Ejp53FrXNywDkj+DWsqOHi3T5syPH6bia4nGEepj3FiJq0FQPcMLRNVTBZ3xaI4xFgus3/wibETZKtcxg7ptK2jM+MnsI3jEr7iaAse6YCjkHR2m706FGl/MHHm175POThxA6QuZETPj+/bgHmj/FkYknJsUeUjBCM/ur+tRjAuRZ83Vu5thIfP8zpbugvLSLlwB4r9zZtXWbRaQ1AyYQCioMaQko7IVRzd2FgBksZ7XsCEKHBEgeuIXl5huV3diQbQd6VJuxuyPTNOSVI4i7GlEFuwO6tQAwZDOCdDOiz2cNzNmawij7QM9RHLOFAeR0IpaRGe+gcVbQaBdy0oyDK/T+tPmbgB3fFXYNlkp4MuF+vXnziZq7FjRZZ8IQWbV8c6kcNYllC3o3fCbQrPLkWY3gZgihBJgRBNJRZXcQWC1cHtCp8PdYGw+rn/1ABHtY1p6mcHolFtiM74TDUDfU5dmJOZswu4MAQ48bIpUNn0m3Q47FqVUDb0m4zoa7YjbLedxmhwnnTfg9gKyvnub73j4VQ3rhOfIguc5m+tyOEwj0llhwXkk4b/FOX9y49jUE0yhCW8kGUegdcJFFGwWFfQugxepWC4o3ZWCVIWpwockG2POjur9spNcHvx9+LMzCCrAHgLpVAU8wG8P3H/cyOK/5XgrPoebJdY8ZaW86pvh4kMlUeJIjYNC6vlGHZOsxGeebOlHBAD6/bUqnl70bPfKw+bE47qT/fsxlhEM2WphaKxDBn5gZNbBSM3+wMujAjghF8rn6ireKStfTsQy5Rf+14PJNxDTST8AxmzgQbLNN+mM2Lo9ghoG1w0ZzJnsoIIxgj6qMbo1/L31XT3qDu7ji4zv7Vp+C3DnL7wN+YtIureN9Tudg8CR9fdp9UOV+2IEuzhfPS4zjnk22wTUXvc8ZZrB9h0YkkmmVXwKe2R2ZjTtilXEuGBSs1DAPlmXDRsS8TocaVk3sJ7ossOUmGmNt3jiMt+L/ZOs0PFOIGw5BLGGz2gPpfNSpXktdvmCMfW/V84n9m77QwefYbR+7faKT41yb+z6L1os67lt4s2UbMOrRBEfhuCHw39AdtyBQVx0bhOWpsqzZ9ji7cpaUQgMd5Qj46rF5oLd2Oh1kguoeZjk0gy5CfpRurKqy5GIAKlsoOq6pspteRFfkZZIyQ29qJHHGRc15VJ9XCKCCXYaywz2STAYjWoB4egLMLufD6N64cgA7Y7tTvGgsGm8TBXCaFzoCP/EN8YZuT4lqDFb3nMUJAXyiqN7c4+PBd6TpVk1/Xza7b0DnMBM1tIkSmC6TSLNgRQ/+E00kk9SxHGHAaxM9b/imHRW4QTnSHjZ+ctV7mM9iT3XpOwHETJDhGOKJFzjxdluyN02MPEGJ2igIrZXumDHbx+C0hBG8SVHJnsLXgasnE8MbF3/HlWOQuhI8bpeY8YRnjFZa7DPYJ1g+/mTg9mPYTmLXQQX9/TYcKGI2FtAhZBE9GTodM8KjCa3ngLIVbdT0+TS4GduRhaVd1P5Y2htmOEoSr1GQCANSnmUuCsEcbBmjB+UcckDXDVqGua1IG5QztT0bwslAY7SH0TfWyqCZpJL3g3Jk6QMG5S7wDc2sU+32Pp3FvOHJHlPuTcjMriSc6aoDob3fELP8b7dy/thdyT2/pq9ZX+nDC8Js8ly9mfYy/YapHl1JBJI5OHzHY+IM/+njLN4wWLsK5YLCkXJly/6byxsOeDFASlbPu8GcKw9CFjN4+lhSTlDxBs44KrYmmh0RPPH94EFQEFJaFU1ZRmyHdcNdMQu/UWGe0rj7uk003usZaGwa77Qkw1Yz13s0wLFXU2yY8OEYofcaT9UdkKgkGwvCpKETBswJMDwJQ66gsZod0v6sGOxB0QapUDPPvcteCCmGGmv1jO9+/bS3y4iEJ/Rvm9h30okGSWE1UI9RwOHxyOd2d6XaPTipWw0GhDOnSA6UugusrBBmREPOaPVo6YBzXuNAA0iffZ9UqoBmgQt0ZLi7hMIzp7lL5ranlNPbP4DAJLwHX+iGHTrp3W/7DkPnNLHCIlDkzGAKNRDJkGQ3PT/QE7Z6LEeesn0I3qauR2P6JtWHrYhCpZ1MVG5GWjPfNg5jssOLDsM6Iz4i80OvOjXSrjEG3BOCGpuMTlfnXsCEIykee9PAmRIAllr9wU1W4btqc/g6Y+66gsEJPXt0Xuv/JyreuTrmxvmdB/OUht65xcS+9mTos+aLk4QFDbeUGVrRVDMdtGMNAODuH84erBhDXTzvh0XvfTfFmm2ZmmpCTgdw8wiAUNdszROzTb9nHbNM4fAdoJ6YZ0zmpEFHZ9s9Bqprh/abFAuN9DnBKKpDLaS1+Y41OQ6gnTjCQPZi4iQCxY6T1fXx1JrMKwm7B+rGmVoFvAPoty+YjP6EFv3XHfSssXuT9y0bhJIWo8sAsGw5W0anz1007gdugAiHo5vXK5S7BwRRzOvkpl0hP0Ml+7BjohrTgFJnPQenPQuJd0r8tpVzxsEpXrJFUkA09gk20QE9oW96vGo5m8RFpzET6t6bMCfeOW6yLbinTSCbvlgMRMi67Iiym5HO7hIcYgFme94A4YnocHxy7z7pjoIaOu8a+ZjSdh0EZrpza2J003RX/s7KdcYiNcs4wq0vW4F0FdFcY8FwtSHBYcNxUlWcQNu9Rz5+dvzR3K/xcIzBAfpwQhlIeDOMWCeaOhYqwQQQoUCV+aqeHSBwsFzM5ZqfQRxXadsSTXfqH6OvDafk9N2jm1pWDmKPIjVxcJRTxhizxN989ZFP9NsHzH6ICDMkdO6GHjLnA+AiZiw5Z1nMwboMAUUZcoSPu+y31eT75+lAR0XfmOa/sxUlOo19+4Rzlo4xHepcD7Ngx6xNeFSE1VVPtIrF+UkKEoK1KDW79lz5mAmiPikNYbcceouXtO2QYdYMuT7ztXoSVTOu29B/w9n+Rpw7X4PcPPh3LDEVI77FOr7TtsmJ40RRARS3gTO6Y1ALnEr2eBPTXedJNM25P9m0ePSUvGG9jso6JhOaeonxVo3pJYrBczFv2ldkqrk9tc3Zk9tqsjlx8LWYoS0A4eykIRqVaLfVy+Z34D9RfXf9ujRLZQFqCpJ7NA2Cpl3ZMJR1zPckWSeRx4zbmvc4p2k21SfyiRN89r3zGw49si597iaePStO8zvSnUCsH4OtozYzIHsS53d2TyCaRzWaC2c/D67YD99dwIN/9nHpL3b3JMGkY86exXCkka2imR433gbV85qciaDlNBqkOHjx2FHOA5/ikVvZL3aEqajiBhlzdlMh6e42pl6zc9pPyHlc6zH7Z/Xf97s3YLajD0IQ6EBZB2o9tqxJ1U2uPEjGFHB6j9+wifE+U+ezwSNPEt26OpmsZ45HV/JyqqMwKfXh09iueQN1NSoqE2SaEdiBO6N6llwvJG2oGHcnezZO0OqeW2v0Zx35KAzO39c6qkerGXZPH+atkFf6pMqGUDXjJ924gQdA6Sm3J2I7S/U+z9+rTwBYHU74II8ED0rezS98U9XfC9peqi/UHN33jfLBrYI43fvvlgOy+rzTahCD+g0A9OzoVP0GT+tRx03hnepNEMburQ4jyhUzBo0Bda8WXrTtDGI6amlwWHIQkAJjsorBHgynxG114ENKis00mbw7j6Bl7gKjALsjVvebINragt2PeE7+QB1nkX77beFUPTg86Xba4uxmy5sOdV7f6Aa/X+39VxNVAHTjVmOAJgvqC+iwNQs+m9rF6rEB3XnNE5ONi+jtGIfYk7GdGwUrC3Mvu5l47OYhGPg0HXahUiEz4rbbG00W1DyMsGjZVkbPHIxNIp2uEazBBmUxRbvHhreOhuUe5wu3pfKpyrzz4O849Pz2XXWYu98m2acuMvnMcYvnFd7w1akxjBfp7Bfv5YoDAY5daqSlhg3v2SB9D/SY29SnJibMItHQ1Oya3BPTQXlVESW7IvuCbWCXsavJcxwELI6W7OB42Vn3MbOG2DVqie+kOao3X4OYyC64utoyXep97jAmw2LZhSH39cjeI07wvVC/uYFvsY4J69/uDrPU1DvWaZP0960822d+ZxqTW1nMZncdy8Ljad5M3Y4A432jYuouAHJS9rkHeMNj6rZK8j0FoC4WKkPIC95bZiB8R30oIN7hmyLYaU1rH6Cm7NkYZevNHumTUYkC45yInj9nRH+h4uAdbSj7Q2lKlq22wxjX0qEQETM2+h15+XcsiN9Xo6kA7KIhJ/I/qdlve4kzD5vH+04oxfDb6sX4ralDNQ176nw9SiaOH8cAFw07fO/Z7J9bjqCrUnRRV4hB3mVDSxCnfyWYKLYk2fhlFgFWmHDO3MiwZpQsG1yNfupQa2n3xOnBdQ465xDNHq+DA/qHYaShbs5WpJiGbBX72rfS/LBq+z5z9ILev76d6UGmzh3t73/bZY+9OElN7zAn8uZQLzSz1qcI1Cuh8QaDCgE+PTudXLmZfqa/pUP6D90nh26a72HB/kBV5wHXZlUJScTt+sh03Te1iEQ0Q8zZRbyRzKiJ3ju9sNEFG2f0qNO52uNXeVxbm4gT9LA1VQySwuKaJZjdEXbT13tqaa+tj+f8DY7uoAdvGPzgNj0p9MS6vRJx7A7e5byB0GGkM6ga73qiQMz1aFmUBuZGWSPYjH62AuWoUL6NoGcGNxFJgJCGVoflatYM75oSxq5CK52UJXhxs1bZQITo7kMwG9Us0hq56C7TBrq9nqDCJiFkt4gc7dDpeCIOmcNDfdTh3YRZVtcoqN2Jjt7e8reAiEcviMCAB3wf4v74TWMbTmpzomd3Zht9gMNOHhJ0dSzbWgFENe7VpWl1/RpCTh8FDiRGokcro2etdgo1lfPjxZVmGlWdZW2LyKTum75SK1AQzLpsZtsRrk6ryWJYalrqMtQZWpbEftaIlkTqMLtnkIMABNkMFyaIG79IA+FQwIuNurRNYzhHHkP8MrUGFvqGFGEvv6OkoX90Velky3O2+xIEUDHwns71G/pX9il1qgiKrmiVVIeCIy8NHV4fCUtdd2enZ0mmOhlFZ1v9rG0uJtguUt3eKLdiptpdI3pISzO2LeFasbJFZA20/EUHMLkdEFbY8sj29YOcsziB5UkjgXYbRreD0zFifR6VMxNCwhHeaAVR5c10QKjdyrNMEMthBljtaHuY52+hzQTGHT15wuv2njTcw1ybS+DJ1jhz2MU0IGo1ONb1ur49KI/ORQYjuyIPw4o3qaACYILR2ooj2ToZWJjQAohCaheqoowygsNiUwWDZIVZwHN07gqK1hZqZ8RRkR3toJZgHb5VwQCpwyTCQYtIMKXGOE+/tzQD7IJISXtEF0A59m3c4gciNhbN1p5F9pE+BIMj3m0ORop30Oq5XW3loKlatNdm1wMnMAjhLdyVrGC0IKq8ezqZgY14Y7+Kdls7z1AnOTYjWESf8Hkz1hxKu5l1iCjLxEpvBZ2wE+4GBDbR66pLEFKpBNyU56EbJE+iIR0V3R4jbrLzzWmq5NDUXGOQwN4Y8zvJR2kK7AoDd9jSKqSYq3y9YhMvAtzWTH7R7EH7gO/Yx5yr0IGl2Y0SRGsMucUEO0ofbMKEw+ySO6BrBskECHlTXj6UXaA3pkZ3uDBocpipvTJ3dt3haIN5mllyMjnc2bpaYeWEQzBaqjB5iisSYlIPseL04HWBzz2uHBgIOQTF4FJoDACmwx4tIqWMkKHu9UfHwEbrtLpQTSEQVHBBeJVUzRQIpOuh1/bHHXai+4M8fMGWq/l7CDqQqjx18aZbN8jSGsSzdx05UWbsaa2w65TS+LIjK42l7syOMld31rZEbDCgrIll756UNYMtIaoH7QqCK+nOzAqUWCo3eE0R0BpCYBt0qIHTRu4NYxE25FAw2mzSESZQjcdPSGGAkd0VJjqxk/AO+HKBUQpbqh4m0PH0/7+sd9uO5EiSBEXU3D0iAGSSVezt6t058/+fNWd3Z7ampsgiMxNAXNxMZR9U1TzYwz7VZCKBgLuZXkRFb9ZGzE/VkDlNseqRWAd3+A4NcNWylu0oSCnUpKe6gpCByfEjdTUtUREPAR49YJAbSTM3OAYHTD4s8A+opi43eBOGyU1UpzejRxnD4JBrZWtNGBgQOkSMHJInmUbrtNHC24lyW8ThUIwYE8w6FAV8TOoveDs0dgy6uBtNJKpn0hzgkFlpPIIGU/Jz5s4eB9K6sA+jdUHNBcYM2WiXjOlTCp8gmNGNvnijFrnJhyBn71iV2YgIplPljjignqMMe15RzPiN9HCkGZLSiYpHl6IgBzkmWEOGYVBfc48776sorcMbOFoLMNci3KZpcZqTxmEwD07eFmA0d5NkMlqTBiLXHLzaqk3DfIkxY1I0oIURKlZdTjRSZqMDzmiqQZEJQRREfqcBQRcxUvuV9lGnQzKN0V3Yd8WwQjTBxhLRWkRL3oxasAzDjdhJSusYxOhhX7KOCJBpbqfFMgFt+t7JFGU4VmW6Gbhm8b9lzQrTA8u6AAxCysUHw9FkMOMAdwAOg2ERmnrsllXNz3DPbYPmMluFJqOPmF6vXYIeDo4YPyg39gAuSyzsKEQ/064Zm2eVcoYUEd+wgnrN3FrKWYTxis2H0fnmTi0d3ofBh7kjs+5wQc5hTYBZz30z3QDC9uZcR/J/3mAxbTb52Mz5B+22lOkJmF3hZ0AvaFaAEkYMZeKs8mXImSdhLkzmtiotKYmao+mMhQ30xm6MVzE0GrvJG2KVQBPN6HIbZIMWugzuI+iCrtZlzbXEIDyzKFiTswdwQWZlszyXOZS+AsyinFQwP2kzpIhlywDcIp2HZoPaO2MVqhY0i0rojGZViStXfEdkYRsA67SlRVSkkUygCtolsiwNAItkmzRbsaxZOCJQAzn7nUDWoSZhDdHQhpJux1CjRTkkXGxGI2L0jziEhWYLNNS9C0YtkQkZkVHo7kQbYYtMsijstSZoiBo9JtrGKFJqdDPm0Bk0YQTPMQItCjFWz5S5UX+iFAUqGrajukcxNxpE4piHa29+ccY+aO/JiI7sQrBc+iAMko7WGRG1IGiY5Ga0leFsmipXmhEusBwhWDmAij8QlP/sMwnUplKZALIB90wKN8AaMhJBohusBYm1xJXL1Kw1WncMd1i0p5JqzQO9rDac8twHTEZ4F1CMQ6ZOwNACqLiaeRSYEVF1OCFdERhZJaBKGAPwaMtWvZo80oCZs4goJ/BDdEqbuWEfYh+rm4EeYUckgTIhG1gNBnqTm2r8TYzf8QlzMvmENEHxO5UmKG9I1fEQAYgyNCOnQc13FBBzNIlIm8x6GDBWsIdhCGbHRHYATlcTQDMX1OTEGBTNYrJSAwwDORcmixLFQVMlkZy9YbRILyYO9XLDymJOIAL3zLJx0t5BcyJtklUdCXwE32iN5GIYwIjVsc7Fmq/SiG6MUaQyZowqM6WcpTdljvaOyM4yGsQkJxeggq+CQwVLmTwnggnSAZPK02UBPaavy6KysMeRyohCLrcEpgaJHpP7AQXVmu09LSLMKAwLhlGx/SF+ZRyuQJkoZzTCikCPJePpfZXC74zhqS0tZXa2EDGaJgQxUk6Z/Hd4VMKRcNEagDa8bIYRah59UkBlHWN6e2xHDtYkNSwq+nMgWp7yZH0KLyxHFPCEgY4kSLVhshI55eyiFDkhKw/86kVqhaYlIs/xkJHtLB5daKEeyHERAiWzWG1lLo8NezBP6iRmvc1gJIpqiJjnhpgTl9Bgmvgk9JQpoPyLCT0ylZ1zA52wmk4Tm9uixkLmjYspGWOV/gpLlIcV/KqSmgj1HHX3QrHGU9rjARceZPIRf8VTRqFF5Wkj9D++gQzpRxJ3bllDH3mBWAEAhNwxKqHy5EJ4AudKQuVWUzhitwWjxwyAEr80ZwxbUaNpgWvABVmMaY4tb6zkDiumF8WAcxHDGwIBAfPjkckVZG1kjK6gFLO5c1LPcEtEmCcchxtVyPEyMdIjzyvqlnIOVHSI5i1MIwPV9HQmtFJSoZmYybZzIk+vlAOZfqHiI83IEaymleEyBriutB4UtsbqHlhuJ7TI6qaZKhcp7aQNUuGgGP7Y2JlrHhIOEBwGZdty0oQhW/mKCrZiKGsGSmifpjdFoSKRU0IsjwRPyq9Sv0qOhhHNIyFHFp1CrOqIkoN41PTzKSV/ygmXZCdCqn+lDmQdbYgtgKfEfc58iisKH9lieEJ+DJCTUudrlyRM4cnTCPIm+G9oZkVVxY5BTWcJX4L+iNkN6MXgT36fVaWRGp5worh+lixXAYlilUGKYxJmqkq9XOUyhbai1yqiQo5YiQmLUcwUo5eAGMv5VF8SNzFnxmH+ReqGCuUjuatiZMMfiSAHQXkOXrMip9MACEg6LzzJLLmd0YZYx1W6iWDfbZpFVPVd6hSI6k9nyQEPGJ2jvApnFFwL2+kFAJ+Tfmm8A0IgMw9KSxOP6E+4/dkISwg2XQEnInKFZ20WikEIfTQnW6HGUkzFAocq3KkLyKOJiosjf5wCycqzO2A0Niyg5rRbRUwAZsHHkQFLw0whgUZEGQJoORhIOIrjQr45HyweKPVnZqIhuVU3WRkS1ZHy6a2i34ZZE5PUYupk6BtJzGbMxFL5oSxzVVSfpumLK4xLz2wBk+qRCVZTR8xlwUKk+aXEIyMWtgaZDp26kOh4WudUiQz1op2PuXMThLGFrYklp9OrMIn0yiMTlanPmuvZGnYY9brzsiWWP824FR5imz/I+onpSJAEUP1vArOpiUXfhSaprqMk/jBlQJ1MMglJhWHaorgxATV7qTBfHniqb14OE/3M6emqZ6+nTON2mOc4DAMQzFdl0IhBckTrsJSVhcFmUHUCsuI3SrgTZ+FQsXhtj7DlCJTywFRfVKaOyunUaabZqRixhCIFihWChjJmk4iK9gJQhFKKQIGpsoWaGpM3zVSrSDkP1RlPTzdrISIhZDayN6VcI598QP0r4kSFSZgQYt4Alcu2kNt9WqR6wwBFe2QV5NZ9Jm1SkTXTAuRvU56ql8+xGWBGiUq90LTbacWnnUgfFbJYpCaCykLEAocbmfADwadSzL0WdcuBkYVpiowqPMGyOCUvZOT5GOmIAL7xSEivWBIUI3nys/P/R04DpW/zpGOsV6lPCnxap0AMJtjAcEac6WqUQ5bd8lSERc/XygIuqeHpneqGpuNHjutXxQp/gmI4CrVL6suYtJLfshvlbUvLrTStHD4kj/FOcTM2Q/6JQJBOkMfHiAFDk1smsjg4UYETriwehaDEn9NulkmJn1yOU3o2lqoXRvxogYXSSFZL4oAvUf6wpCehII7o3EW1+QcDnoqDErYM8iLkefL1+b7jiQfU/IEnjaybjafMEt+E5hYyztI5QVnnksBUyVfFMpMwhE4DYrBosijBcaGsNFFVOwnfjnK2qD/LclBZBOZZslgVt5Wt04EOlumnnhRA5WPrAFTqX9DAfFKh+YRSNibFATND67AOUqvzTZAV0WEUxed0r5JxJUOMsLsqYch4v8rVkWg/QcaU1RCPGYcXWg1+cYYdxW1pCmA6yBIxETGUIzbPxLnH/WYJ7lSyZPfKtOQNZ31lKMaEBCXG+agzI5bXVEJfOhe2ZxrvVHBS7jCYIbb5iYvMTcw9KQRQxRMZKaeEVxVdnsk0tNGqPjWzfhZp+CYKQP0F0hSh/DimozjgBoAwB3/2ZoIO1HyEKih3LIIuNCHgtBl8MMmYqIho0fw2wc8kWvKwo9cfUC5wd1mUwHk6sRmrLGnVSkrq8Z80HAUbygMWpyBEnU5v0BBHKAIZ9AljUu6kUct45XL4eoEYO8ModlLMN8CcG1B+o5zy1MGIkus9JGajd8rKYVYBAf40GyvVyKcszo8kkoFwUrIY2ulaxu7EYBal1fEwDH3eOBDdW9MKMprZUnUD+iS4qXw8KHAp0zMpiqkqeXjFwE3nkOBWiOxS1Zw6Ij/HsgKli3WNJZKyyJp4rmTxOaVVOHpwcpQGkmEJpzwBo6VcFIM4mf7YIxbSfGivYslk8kPJf3NeUt41Ih4jYaI71ETrkCTzR0y4d2PU1vkMSuIM8vajA8rKm4Y1k8zTuk5dziJbW5JrSf98PFLiOhSInZi+YgRVKIVpGyvLMeHONNSHMaFgskAdai42yDSquye498xWTYKljkrJAB493yysRA8RZ4lKXo+xjFTSh6mYhRfT1Km0G040pDUBRi6/8YVqTeo9gU3cJGieskKWHKQxK1ozf40DsQ+4/juOZSl8VfzTkwE6YN7zFwsBIFnEhLnJ+SFJrhS/J/qtuKtYomMknatT6EA0VbD8a7HF0wdPKJnXncanEnWq+SiTMw1W3qZ7zSCwCRhRP1OTHaZIEjH4JrS8s8FoBlMHlsiS7Y3qlMdWRrC1MUG1hfbOqKWE7pBZ2fyF9Xaqwa3xj0/aK78rWtjK3hZSOhCRFK+cw2U09UEZS00oSARtARDy5m7O5jJEWUNksQN6Zfdo9a0jZgRUvJzui/MZPDFITMQ20aoAO4eBoGQVxiHkyJ2cnXSA2kkVxPWOoD5a607pZE3yPoxtAwZkY4hgUxm1qVMoMJF+J8PnJ+CgCUoRTjhFvAxKYanIXMRVlZ0CoVy/k9DrgBaCsnU6x8xnYGKJheKnGbU2EEcnRJi0w0YH4ezVWxvPHQcfUyaRJi6QVIwbBSXSrdjfmI6nmOiGHpYM6dMoM6kpqXOI0SESipTWMi1H80J4hm7C6CvlbJDR98XdiAESrQBrchTzkIDpBY+GJKHiXybrr+fCrDTZwHGZ83RDi+MDPFH04fATCqfJ4dOFzk9OQzhk7rkHUuaDg0Z318NAtFZ3a0hPi5gVl84sMUsotnelmaJ2o3yUtwdAGlqLUbCWvX8Q0AfHvGVnLK6lGDOILMISOixKYHBfXS4bi0xow4L8djd4izkkSyLcUvlJpD1Btznvy8rhlv85EjJx8OlCmMi0zpI+zS8AOWrJR9ymU+1PgdyTDZzppuKqY7Pz6KB1RydsxBQAo/sEu5btWCr7gQRY4ShruF0CUhOSTCIAgzVjrBC1+DvNESSpVbmmZVS5R8CUbLpW1+4Wle7Rvc3bIu+DluvpqWwdarOuPbTU80lRopIHEdYu9jBl0in+b6lvKB3wKffTG4gzHM2wnDNsQvYqRPDiU7mBBNVh+5md/03OAe+RTO5UH1HBOrQYKY5R9mb+7jh9oobNpqm2UtnwBy0G/ZicHL2K1iwAi8eQA0hE1Gw5MMHIJKGQxY2xRY6LW4zDVpc6Gxb35o2gVrXm9Bnz5BqENJ4TZIatyZamBLrTCIWoL2X3D2PDKsaq889Ek2YSMg3C5G9csGh5KR1M0dXzNcJA2YD8NGSC0+lj9YHuDi1OCltNeE/6oXgOxmWzGgSVRxcfb7IYnNItMlpqCyjvKezIsVYYobDEKM7fcqI0Egfk6ECaIIc3OjF2xRZhBH3SKKscRGDaWSQy3ShjaFCaJx1BjPIrcXB+NGonVmHd46QtMC1Q2NwoP2DFBukPGMktFmWT1z9FovZzxSpkmjEHprjkLbBfzIZJ/kJ1cxCip75SuJhpSgONlA0aWksGSwwU0yDXiLBqxBIsdUuGj8HtSPWwWbZvuakEAgcFd2I0QFCDm9EBjQa1kC9P0xiWUipVT0UNcZ/ua17OFEwtKUQJd56V4ckNH0wZDs2AS42MuWkRWNUDsU4OZb7nbRgoNDZkVc/w2KVVVsajiSr9yxHlhSOdDi2EngTVuJOQLelBDG4jsiTIihFZTI4b8hHUlBj9nJovyYklQ5Cy/ESA1QRH5Cgqt6FmXERvOSkTFZhmHik+0eP3e35uHKUOn42cnFts1WFgUnRR2yNUH42cjAqm0Q+KKnMPw11mRTTFKyUOne9asQVpiHmLMZgntqKW6oV6T2xMFkSbHipFl9jDEjdvOaHBTDS3ZgD3qJZEowxmsEVyy51xM3kWwSMDsXsak1wY5LM8g3TnkOBoNDRgDjXBjCHyAWcBWjBCOQYh70lPR7xgnu+hCQcAEpBygaeQijHQy7ImNG2ogd6cyNgIgGD0KEsOPQeBqCBCFIbEXtvo0a41Gkg+NOimw5gdHG5mxCw2jgNqGcEucDPnQkkuX6Bo0AiPBSyAOxZVjdDh7Fk8fzmXtKaVCZMYF+NZR3rMbpuFmWFsmVCYlGLoURIFUZhVT6+8iqc4QFZjMkr+8jPn3SJZTBPoCkanh9eQ5KC70Wim2MGcDB3iEGLUHnNDgwwOj6Rg3O6o+a7FMj2huTqqg88GospBlGKSeyAOCugk3GDIEqIUJxX9HWGZ0jtV0v0g6w8riwj3SmZpMmd+rvnhdFJTFbkXKa1yyvyoYgiUpapvfNofUDa3goC8iTTDlrVXh82UbFDEaFG0RMU4+SFocIEpl83FyGivQgFUXNwoGJpXy6LVtZOIEmjE4cVY5ApebLKxcbJJUSTWiyEDomHBQBFPKgORN8qZaSszz4peD3Ny4HhNaeBMzwbdW7U0qUSqHtaQ8GFFsdZ3CLWgccbooQEz1zIdZhGRKPVJ/RflnBQWR6zuBZgVlh4zRB7prqZvL7vmM+2TZO5E9gcXK2Cg3lPVTT8BBLNgQEBgcGsEzEdI9KjonLk1rz45JtMjxTDvoK52OpvQiFxcXnE+ygKW+8mExCTxq9IgLAwVu7+jlSs1L8yXo0gDF4ag3CFTL6/plYj5UHlKBTkdc7K/FDnIVlfmCTAlDTcbtRJWkrMdx53GIFDvfDkekppIEACdSxqMtCXFmZJAzbo4DHF+Yq7FYyE3TvGef4jfUJRlIeh81/pf0kRlP548pTRT3pOHQ/SnOiYzLmG4NdGLIssuSY/Kx1zgUNaPU2bqdx1ygVKLJH2rvV/sDqPC2ftkX+Exztk98khReR+Dv9IOM6k9ogqVsnBG4Yg90j2KGotoNaiiMFX2J+KDAr8UwBjVUog1ZXXGhUf5lSb6O2BysHUZEpc/iG/Ljod0ochC0IlbSrWTNYjEXw9mNtxz9EqJbvJg0D3nBf0JhqbQaP5i5keONG7ZTBszBwHnYFe2KUWjQjiOGOGWqWVPgfJs1fUYsJr8ToKrOrHKZLCmjqaeP6mJ5dfigfInShZV2Ck1mrOAoX7lYfEm9pkAuegaPjOKqUJlj5KfLfoSBfAJAkMjp0lYEWaW6+o9wIo0gE7EfsR8loIbZXnqKyH1CGAVOQ25TLbQGnyBa/A+fLD70kWzvkhgi1FAcQdGk9DIOZQRuRwVzDxYJhkB5BBvlEs0TUkDigKweWepJRO4qFKihY2KC50fL1QTUVxn5vKm1E2jpcP80MtI5GfZFFuKHgl8pRUfaBgNNV7Ga50v0d27g2O4utoTCnoCYiFZfqBPgYgQZCx3t/twcPH1LGgArVkbZ8ilvam3fbQHuKivChaJgo20rpYxpoyM5KQXfFZhJFTAUAEdwruwniafOJU/v1Qjj2NHDhRF1lkPlUDxuZN4mo4yAX+6ASJXB1Xej2I2qFLT5YT8MLPzlTeRVu3tIQ7ZbstYIiz3hb7Jl31zWWxD6n3Jl8aMsgpw61neMCD3HbgLHW0/+/J686/fOsgd/nnCw9qyol3gsMfOO/2x3qDVEHR8onp6lA80xfaS0rKYgx7YMl6OLtECriJJ7URjaQRSN1QiqxkqH3jqqYhIU7Q0dV3ZJZxOrWxgMo3VbqjpC5RPMdFdXK1n3Ci5Q80f2h3YF/VN9vbAydmAu9l7X2iO8WA0/nmfO2TKvD+lEQ7DaHLJfBeu7cFz29Fwkn29fDv7exMeON3v9h38wLKvC9vJvQ3sjhuWRl+lVv2LyOriquVHtp4P0NKqGg05GiQHTomohrAJzzQJyDzhWQ5dYGeqS2K4Cb4V6p5a8WScJkpSkpf1K8r0H+YhoJcCbSjM/YDMd+wPjQd1NXDreBnjy8LzSRKvo33r44++m5utb3DN6uj5tBIrlZeMdiAWX4Z/duFdg+v96/i6fuD898X/OGO7LJf91227bSe171vz5XT2N4JX1xjDrdrYkqgjook0hzxa6Z4OXoW0mFzMZyOEnJU0QWFx0+HHy4bMw9IkHo9EQkIfOYswKGhTLjwNYvyikP+yhiqoFoKfO9QnFcExdH+oj/a4qXe3pfX9dX1/vdxOprHAP7cTThxj9eW2fozBOTVRx0XMGEyzRxKUPay5dB14XOyd118u6Gcbj0dvf/T7T3Z62faX1Vde3brGheRL7HbygAHMDkQwBqhzHkV64JTuzBdZQKWczkUgpk1EGJhAWwU0n3PiSvhdlr7U4RnSACA83cyE/uF0g77JEQZg8a8skjkp2anDCjfnkHPfNaT+GLfHvhCNDXcu76v9GK8kzvbO5Up/tF/X9tCy3VkZsTp+Vjx3BH4hXpTOaO/t/c63tu5b++2314+z/k/7599errxj3Unrb7j8NpZP3brWu0Gn1oOijFVMNQ8ds5cvAW1AINYxTKENJBSvqVLIsjKpM0el6xwxW67gyaKUpkwxC4owB6SGEqnS3uDc9ZxXky7jyKaQbjHDUg4NuLw7hj+6t9vjvoPrgr7fr9tHX3G3/ZcHu6+/nniGXx6/r1h0g16fl/g8+yqUdsaTu2n0S/984XpZ+bLa/dJ/f/nN18fyb/30x1fd/6r7YmAf2+XSaX1c79uL7JxzWx2ikdnumPUHqs77Y/tfLiU9MhwJ7o4QWsmEl+PNGEZFyuf3lJc+RL+41ClwedqUSs+QUVPdWkpGdWM++QjQmzQIUAaXa7hrdHb1rsdYuZ79p75+wRjfXn8dffiP19uie3vcbd/G9T7ay/1l/OkCJh4ryc+Xk3x09U/6fZNev37/5W4/7PZ2wX/7QvyXwW/28NsF5zctD/vL9fG/zv2xtYW3h52wYicXoLHEnPKYdxIIzBXEuzClOUxywR2Vx60cgOaxPsMGRT8xJnmNydZYxVqFQznfLkWtjn9GE9OVlPJw3sEsMMwcWD6TDwyNgZsPrWt7fbucbydd+b5uL8vt8vuPr78vY/vL+8v6+fu7LlxMy0dfMLHwFH2k2h+CMyT0de/Lzsf7Ol77+tsv4/tX5+XubejOb7/pj33/GTfr2Hnex8e6W7vK3vrWdpOjr2otm+ZZq1oO6Bfz8QROFvfwRVP8/+Sn4phVD08galNRP3rg86kCR7SLpxvCZKynhuiJC5i4M9yXpy2Mn3DFCHUMedfDd+y35crL+orrl/WH3v9Ffoz1y7/3++Z7e79/+YPbdXDnaVt+3O6tNGDyzDluJEnt4k3kA6f74A//fL/d7Cv+/uP+f7/p+tNYX1628+n2/63tH8uv33F5WAe9+9D9fR3GsS19eYi2ZBVbjNWXZVFn8jv1irFYx61KP0v4bbK+aSqnEYGpHvIZ8JRRN8TE6clAebXHpXoF9JrSJx2fL9QGyzRqyHgrufmEXiYNCD7kY+fDFl+HXbaPrf3Pff+V5+tb//Z2/dd/+De/9uXvP5ZfL28Y18u4v5+WZdoeVDASxtgPzC1D6wN+a1j68ss73l6un3/58f+c/nZbP729f7x8jNNlH3+MZbldl89HH/vt7B8UztxvbZwJs+FB/VtkQgYJymqCRBnckOT0DyogcGw2yrgx/HFKIQM4l13hIcucEPOw6dPHM5JImBQRqr7s8NRp2nRoZFA/VpsUJcWeq4HuPqTt2rCfd63bw97fX/d7Hw/zvuO6Gl6vfP98HwOk+o9uL6fTMbSv4iNNfVfdsUT60qTFH7fzoy+2bC+n0zYeuOz+pe+f/nrl19PoGHxs6+30+fvwwXV74djMRwumJD0aEb42Sg+Zqb/oosRE7oVidDzUYXkTFtb5K1pA+KwYExFVTF8LWJ//sYLBsQ26rFy56vigSuoAigxbrouQl3o63DEWtR26NtnpYdvZt2v/hf5OXPe+tI+fuz5+u+oTD53Q937iRpyWUt7jyepl6yli0CYXu45lbK/tu67/7P6X++narC9D/+qfX/R6vWw/wZcrPsbLx+cudt6X8Vg5OLSa3xUjsBlJK5C5ZDJTzixWMFCQiGrumKFvCfc0IIfdQLLR07FyqscMBBLDYvIZYDV2ZVn20+0czxC/uzhFnwEfvPj4ihabeF/HuNxO5/t42cbrC34677o/3r+/E+/4h/XfHvv7JvNPv+uxvp3XIuP0p99MVLM9ighZzGArfT8D/v4H/X/cX78uf31r/7ChG9tru7997mu7P96B//5D+9q+nDEejUOKiZUhf54GnzwSgyoJi7AoIymf3E4g2WdQNGMWZJyUFHOh+Pg4nzDieEnPl/TCSPnvegLkR2L2nEYaKzUA7vn1LIOKPJeoYW3IbdNlZ8Ndt9vWu93v49ujX39s8h/7uAoP4HFvvW2Di+n8mEP7OEVfnJHNFCnB1Sgtwkmn0dE/f/nL2vvpy8f2H98/35b9o7crLoseBr7fm93cv3Tb8TBodHdoBAMamx1zZHbVCR/ZwuM/puwHfEVlq1JTwpVW0cHkgZnXqIrrhJpOkPr0dOtMxSrXWw4iKZHgnwNmVVlthYchKnRixOj9Yd7H7ov2PvwyrF1bGzfuH5+39XPorN30oxPcfmvrqb2csT60LgsQ2QrMxgIWNJwwDIIavGHZT+N91e22jj/6qf14/fry2u3zc90fK1/3y+Vy3anrydfreL+eZK6ujX0HRszrDI9SNqWgd1RwlASrEnAlkGUviIrfFPOe0w4xAVtcy2SK8MRnTWoiOQvOF51MLTB/fcaEfC4NSxtVpFEYsLhHiM7oHN1Pl/3xVW8v7fL++n/cru/722ab8+OvPu7gld/6qV9fTz9tp7Z6W+/L/LX+n4yRKkwMalJwtCu5b2t7jNvnS/+6+i+fD9++Y9ev335wvIzT63Jb/f5X6Fe/aTFfb/DF0BfFnPkMe0wWvT1PsVVWOCn8QBwdMqSNDmsvUANrnr1HbhlWF5CZ8n2EBMm0M+spocjP2RBa8PuWFXvlcybinID3iFBtunaW41JOWxyt3xfSTi87F3tfxvWxY8e4/dx+/YXfP7b3f67fx5dt+8vpcr5tXM20VBQjPVlLFBCpflEOCmZYzPZ1v+N6XZtf2vb1D237yv/69XTe+1+/6Rc+Pof/x2Z/57L3Zd3a+nBQ69gs0UvuPM6Z9Ynl8sjqvXPCk81sSGFA5BrtI6ZCcfbB3qXwPrlTK1NjLlBeZVWk3Jxuntx/CDXSCUwgUg6krJTm4cQxhb66zPcx7uM2vu/by/fL9vXL/fvpPj5++0u7vX35x0/7N20rz4u+nM5n25ynsW6+LvUhYQYOfX/C5XlO3Hy93+T2w1/RT9a/th/n/3l7/ed4+3y8/eXjn3j887Rgd60n9c3GfT2d5c5lOZmtsVSHrHLl6GX3qjma1Sql4YjKhlzwWx4hP4IxmppMZBP9TymyR2IT02NE3FRbkyO4YVR1hI+NRc9xAMy/qj9y5uomHD7Szcjl6E0UbHnXy+fpF3/7ma/Qvr/s950/Tleo//S5vv447dfl8bbbti4bLs1ig0a64UIlT4HfDGKMavD21vdXt/O6vP2bflsv/9h+uf1yvdl4fLlh+X/x+YDd6Z+n6+Plx9b8DOwn4HyCDbZgGFFMzQx048Kz9L2Y6bJK8c5ZdR5UBgFTUsmxMDfNTgGlg0j4U/J8CE0qetvl5FK41mYUkaA/eZ4jhcmMeysRaYhN4+mvmq9LM1/7x5f7bz/32/njfdWjvd543eTjr5/W/nV+fL6e+bZfTrqc1/Wyqj2WqUxI3Z0z30KUREbygnuXt2ancT7d+9ttvL3qo/382/a388uyvLT7BqwY33/T+6+nP7A+lrYIWyRQhinFOPywhSugRhHOgGVHclboZ05wuuuJ1GP3T1Tahf4z9+/oyTjoQBNKuOSxeyxK5nzmWuptlRns+un5WRmVp2I8QeG8NDloTX3b+uva9p+/nF8/Pu+7L9ft535e3E6fQ5/L6/fLY9seX7aPU3Mb2A1mvvyJ/AhxEOtt5zuD4oD1x7buftbo27/6OvjC+/nTvPPt9O3Hl73zb9fzDW+3FdfzP+zyGNs4nW1d4Gs9N+q8M9kcYXGxmJYHeoRFTC3PP5vcYEKM6wIFtxY7HVE1VOVDS/hncXBeJ6FcHefALG1gexq5mR1MMxN2hIMIkKBwjGBQsJ3t1s7C11P7+rL81S6/rcv27/aidd0/71+wQ3Z+0fex//cHvv9z2exyOl1kp5yYlSYhfxGScseBjQWwsXHYfl/lNt5+vJ+x/+3Cb7+7Xu/n63V767J/+vkbP390jMvp8XZdz2ZnWjakymBzjFrYPct++FhDj6qwytYP5chIkaBhiBiuhiwZJ6EgWA1pn57C2bSgiW6zzjwWbKcF8WwEJZi5iiMsi8AuU/bR6BQlZ1HI6gANBnlMIfO2ubW+X3ijue4vH0v/TffR3i/tyi/X7eOjf3x7fL+eP/nW3rZT2xpbj5HOzOdV0dsz7ZEOP0SPBK2LavLNtL8u/Z+/3K//9fc/7nfY23r6XPT4wR/7R9ey67I+Vn01yTh0bdiqnDxykVndmrV9cUHMzpeMcwwaFsNs4DKXXFF6Gm2WrhjoySZTLIIsL+Lz+WelfWzta8HmZGY4ii1JKfrjPY0akdA+fHz4b1TreYHDOhliAANLA7b9/rn+evXLfrr/OH/Fy+Xby/LA4L+9c3zeTp/j/7qdfupNd2LVIstZEUzbOV8AVZwc9VM19CbKCBtXrXzrH+7+/vefPr//+LnL2W29fL795Xt78a1/4NVPL7wYmg1iLNFHEnpfJAdiqi9QwpjmXlnZi1kun2IaJe+xRcrBJggey+84ptv9E06M2CAfX6VpUbjMFuYJHECVyMx/agxOxaYzmqaehTaQQuu39XG1e9f17cf9jY/bz+92b299/2LepLat/v7Rfndcz8vSlrbd9nW0xu2JC0p7jKeg/ZlzSSac1gBp+GlrvzygT7fPf3w7/dD5NL4+rrytBvbbG/bt0i7gyTS0EZvFOJsCQbLQ4hkIWHEAKPo+pSwm73pEwGEdTMSIpgMNUINZRaSZYikvGhKlKFBlnaOn4w4FrFbAIyuQB1HJyqMqjlSUWSOpe8mA1mzf7I79QfN3YPmxvPa38XH9/bp9vp2u7XG/nf7Yfb9w/fqCE+4vn8u6n8e6LEfAkaYnOvyrfgnHLaABa4s+X/fWP2UDX09m8NN+vdruX294ubX7A3d8+cKXy/r6ENu5L4zmzkn7lKQSMee/ciKJhj2a7VP5Uy49bi3yswtkGi64hrx4gMpTpSlBBr8R4riI7BpO6yEQsJnjOvDxTHRGyQCR+xfI5JiyKR8xFJu2sDnkMFtOejndxjb+9f4KX97HIuuf27hhuf/bvn89j383rDi9LJu2U+xcS/KjHjyFRpjtvoBbluU08UTtUI8J5GqDX7btsmD3W9/3Hd7Pt8dir6ftZcHSrG/NFmclQtItslqrGJ2hiehS6K2ipyAacvR+xEa7xI4uuMfoas9hxa6SliMDGe21uSlSRpnoCPfaYmZTYeK0/GUhDUXm1UOlxCAdmeaxZROKOn1sWjYsS9suvX3pl6Wfhp/P1wXfjX05rV8u7e2CT219X2hmGEvBnynqB6X+zEsJZi6Z55eMw8MAchFX+XngAXTigctyxrIt+7oMbVpIj0HwYo2fmEOPszMuo64UxHCfnhKsCkYiIotqETrdo/WAjELrgYnlEkiU962Ev6U6kHBDXBuFY5sxM2c97XHdaZYBoQiRtD6VmXZAZn4yNcptfdjl4T/xMdqV909/fAwb9nLGeeNF1ws/9os3NbgxxlZW8JEPf4Dw+EXTpIaceu4AihlVHkPNKdu0GLAvMdXYCFtAMxtIe2IORh3chNYVwRYfH7u9mMXz0QIEgykLxKgafUgb6ZLRUVP3EuIWm5oKB49YKidGOOrgFKTSwZaqfv7IQOgpHj4IjozSJlAmV9DG6mMbaD7aY8i70/bLtp/Rzcd5UzsZrNnDFixtNFGmpTm2h1bDaccA1xWnmruHIkRSMZTukhKGs1gTUIJG7sprpLZygLlE2ZPwjjVJoBBzrWq8NQ4uv7Qwrt+j58DqD6JgbkHPrimalruYS16mtKD2M8dHJ6xPJkhm0dwQ24AjNoz3jFBF6UiOkt/5wg7M6Y/Z+ChhYexUgcYYbFgXXwGY4bQYFlqDgY+G0Ro3WqO0+oKl028Aejen7TfavdJ4IQHpsozu8kjhxlr3clwigOHsMUIjFy9RzF7bhPYkiVEzvMvnpV9OT5+0RyW4vGjJyelQpDU2jKyjzjtjfV/Kcdg7qWp2I29M5XIY2RxHSSHqJouMzDU4M5WsZGXiXmPrYUyBLgATnDQAl0xDLqkFjnHXALzlaDy6a73Lb/uNtLOaL6eLFlve1uXrrkfztfmmJVWrAAiJsoPiU3F2SYVIdmiNUw1lD69Grw0udURwZhY1eczDVNRxFv4Me1iPULN8ERnOMBCemKVY27KbT1aUVU7B/A0okHMIdjJUpYCTE9ChjjPb4ArNnka6mIKKX9OVoYGQZ18VWuwSsNZ4One73F1to/2x8Ndf7v3av1rrS+e4a2yPzNuVLmdcGqJf5xRpv2jicjKb1BGLkxWoDekk04QRrHwqknWol8jf8wR6+aT4SU5VeipMb97AERT9OY46/pl8Zn3hid4p/1cIVEBxMPkNR18Bjm9Pknvil8rppw8JZs9FmbsGLHd2O3oD/aF+2V4/ZX3lWF7WtiwnfBnn63b3h4GnXDOYmZOIwsXggPMRqJC+2I6dhZUR7OZArSx4mI+YJqhs2hSqeWoZCx23UDKdqcYkJJ/VUkkup8l/SsMo0Q6qcm7e8/Od/+nDpuPB8ZnpvDFTmvNSNRFEqWo8acZvGbk53NRgbDQKzgaLDa8r241717Ys9tmu7/xfJ8f+sMfCtj9qbtIToZIoIkYOzaMq42d6epNQXWafsOab8T+JeYW6CT7yCDUPax5C/Tie76vsXyGS//S3z//956+wfupP3/x8df/bn3ho35+/QbMjdJq8eOPQDnNouJNm5rHCyxeNbsPHbbcvHOT/D0hRc3QrwZoIAAAAAElFTkSuQmCC;fontSize=15;" parent="7GYGhVI0r9KvUz8mul4n-1" vertex="1">
          <mxGeometry x="80" y="148.5" width="40" height="80" as="geometry" />
        </mxCell>
        <mxCell id="7GYGhVI0r9KvUz8mul4n-18" value="ResNeSt_101" style="verticalLabelPosition=bottom;verticalAlign=top;html=1;shape=mxgraph.basic.layered_rect;dx=10;outlineConnect=0;fillColor=#ffe6cc;strokeColor=#d79b00;fontSize=15;" parent="7GYGhVI0r9KvUz8mul4n-1" vertex="1">
          <mxGeometry x="316" y="51.63" width="120" height="100" as="geometry" />
        </mxCell>
        <mxCell id="7GYGhVI0r9KvUz8mul4n-61" style="edgeStyle=none;shape=link;rounded=0;orthogonalLoop=1;jettySize=auto;html=1;exitX=0;exitY=0;exitDx=40;exitDy=100.39684963679537;exitPerimeter=0;entryX=0;entryY=0;entryDx=0;entryDy=51.39684963679536;entryPerimeter=0;fontSize=15;dashed=1;dashPattern=1 1;" parent="7GYGhVI0r9KvUz8mul4n-1" source="7GYGhVI0r9KvUz8mul4n-19" target="7GYGhVI0r9KvUz8mul4n-27" edge="1">
          <mxGeometry relative="1" as="geometry" />
        </mxCell>
        <mxCell id="7GYGhVI0r9KvUz8mul4n-19" value="" style="whiteSpace=wrap;html=1;shape=mxgraph.basic.isocube;isoAngle=15;rotation=0;fillColor=#dae8fc;strokeColor=#6c8ebf;fontSize=15;" parent="7GYGhVI0r9KvUz8mul4n-1" vertex="1">
          <mxGeometry x="453" y="113.97" width="40" height="110" as="geometry" />
        </mxCell>
        <mxCell id="7GYGhVI0r9KvUz8mul4n-26" value="&lt;font style=&quot;font-size: 15px; line-height: 1;&quot;&gt;Feature&lt;br style=&quot;font-size: 15px;&quot;&gt;maps&lt;br style=&quot;font-size: 15px;&quot;&gt;&lt;/font&gt;" style="text;html=1;align=center;verticalAlign=middle;whiteSpace=wrap;rounded=0;fontSize=15;" parent="7GYGhVI0r9KvUz8mul4n-1" vertex="1">
          <mxGeometry x="444" y="234.22" width="80" height="30" as="geometry" />
        </mxCell>
        <mxCell id="7GYGhVI0r9KvUz8mul4n-27" value="" style="whiteSpace=wrap;html=1;shape=mxgraph.basic.isocube;isoAngle=15;rotation=0;fontSize=15;" parent="7GYGhVI0r9KvUz8mul4n-1" vertex="1">
          <mxGeometry x="559" y="138.22" width="40" height="61" as="geometry" />
        </mxCell>
        <mxCell id="7GYGhVI0r9KvUz8mul4n-35" value="" style="group;fontSize=15;" parent="7GYGhVI0r9KvUz8mul4n-1" vertex="1" connectable="0">
          <mxGeometry x="783.45" y="116.72" width="52.836503147551056" height="83.28261682242987" as="geometry" />
        </mxCell>
        <mxCell id="7GYGhVI0r9KvUz8mul4n-58" value="" style="group;fontSize=15;" parent="7GYGhVI0r9KvUz8mul4n-35" vertex="1" connectable="0">
          <mxGeometry x="-0.0034968524489475614" y="0.45992990654205607" width="52.84" height="77.82014018691588" as="geometry" />
        </mxCell>
        <mxCell id="7GYGhVI0r9KvUz8mul4n-28" value="..." style="rounded=0;whiteSpace=wrap;html=1;fontSize=15;rotation=-90;" parent="7GYGhVI0r9KvUz8mul4n-58" vertex="1">
          <mxGeometry x="-35.09" y="29.92" width="87.93" height="23.65" as="geometry" />
        </mxCell>
        <mxCell id="7GYGhVI0r9KvUz8mul4n-30" value="" style="verticalLabelPosition=bottom;verticalAlign=top;html=1;shape=mxgraph.flowchart.on-page_reference;fontSize=15;fillColor=#fff2cc;strokeColor=#d6b656;" parent="7GYGhVI0r9KvUz8mul4n-58" vertex="1">
          <mxGeometry x="2.800978811607554" y="0.6439018691588784" width="11.539613081529252" height="11.038317757009343" as="geometry" />
        </mxCell>
        <mxCell id="7GYGhVI0r9KvUz8mul4n-31" value="" style="verticalLabelPosition=bottom;verticalAlign=top;html=1;shape=mxgraph.flowchart.on-page_reference;fontSize=15;fillColor=#fff2cc;strokeColor=#d6b656;" parent="7GYGhVI0r9KvUz8mul4n-58" vertex="1">
          <mxGeometry x="2.800978811607554" y="18.857126168224294" width="11.539613081529252" height="11.038317757009343" as="geometry" />
        </mxCell>
        <mxCell id="7GYGhVI0r9KvUz8mul4n-34" value="" style="verticalLabelPosition=bottom;verticalAlign=top;html=1;shape=mxgraph.flowchart.on-page_reference;fontSize=15;fillColor=#fff2cc;strokeColor=#d6b656;" parent="7GYGhVI0r9KvUz8mul4n-58" vertex="1">
          <mxGeometry x="2.800978811607554" y="53.57469626168223" width="11.539613081529252" height="11.038317757009343" as="geometry" />
        </mxCell>
        <mxCell id="7GYGhVI0r9KvUz8mul4n-32" value="" style="verticalLabelPosition=bottom;verticalAlign=top;html=1;shape=mxgraph.flowchart.on-page_reference;fontSize=15;fillColor=#fff2cc;strokeColor=#d6b656;" parent="7GYGhVI0r9KvUz8mul4n-35" vertex="1">
          <mxGeometry x="3.0974819591585923" y="72.24429906542053" width="11.539613081529252" height="11.038317757009343" as="geometry" />
        </mxCell>
        <mxCell id="7GYGhVI0r9KvUz8mul4n-36" value="CrossEntropyLoss" style="shape=tape;whiteSpace=wrap;html=1;fontSize=15;" parent="7GYGhVI0r9KvUz8mul4n-1" vertex="1">
          <mxGeometry x="1061.5" y="62.470000000000006" width="126" height="66" as="geometry" />
        </mxCell>
        <mxCell id="7GYGhVI0r9KvUz8mul4n-37" value="TripletLoss" style="shape=tape;whiteSpace=wrap;html=1;fontSize=15;" parent="7GYGhVI0r9KvUz8mul4n-1" vertex="1">
          <mxGeometry x="989" y="253.96" width="126" height="66" as="geometry" />
        </mxCell>
        <mxCell id="7GYGhVI0r9KvUz8mul4n-44" value="" style="html=1;shadow=0;dashed=0;align=center;verticalAlign=middle;shape=mxgraph.arrows2.arrow;dy=0.68;dx=19.45;notch=0;fontSize=15;" parent="7GYGhVI0r9KvUz8mul4n-1" vertex="1">
          <mxGeometry x="322" y="180.13" width="114" height="20" as="geometry" />
        </mxCell>
        <mxCell id="7GYGhVI0r9KvUz8mul4n-47" value="" style="html=1;shadow=0;dashed=0;align=center;verticalAlign=middle;shape=mxgraph.arrows2.arrow;dy=0.68;dx=19.45;notch=0;fontSize=15;" parent="7GYGhVI0r9KvUz8mul4n-1" vertex="1">
          <mxGeometry x="729" y="161.72" width="40" height="20" as="geometry" />
        </mxCell>
        <mxCell id="7GYGhVI0r9KvUz8mul4n-55" value="" style="html=1;shadow=0;dashed=0;align=center;verticalAlign=middle;shape=mxgraph.arrows2.arrow;dy=0.68;dx=19.45;notch=0;fontSize=15;rotation=30;" parent="7GYGhVI0r9KvUz8mul4n-1" vertex="1">
          <mxGeometry x="934" y="221.21999999999997" width="99.58" height="21.91" as="geometry" />
        </mxCell>
        <mxCell id="7GYGhVI0r9KvUz8mul4n-56" value="" style="html=1;shadow=0;dashed=0;align=center;verticalAlign=middle;shape=mxgraph.arrows2.arrow;dy=0.68;dx=19.45;notch=0;fontSize=15;" parent="7GYGhVI0r9KvUz8mul4n-1" vertex="1">
          <mxGeometry x="1011.0799999999999" y="85.47" width="40" height="20" as="geometry" />
        </mxCell>
        <mxCell id="7GYGhVI0r9KvUz8mul4n-57" value="&lt;font style=&quot;font-size: 15px; line-height: 1;&quot;&gt;ReID-Features&lt;br style=&quot;font-size: 15px;&quot;&gt;&lt;/font&gt;" style="text;html=1;align=center;verticalAlign=middle;whiteSpace=wrap;rounded=0;fontSize=15;" parent="7GYGhVI0r9KvUz8mul4n-1" vertex="1">
          <mxGeometry x="844" y="234.22" width="90" height="30" as="geometry" />
        </mxCell>
        <mxCell id="7GYGhVI0r9KvUz8mul4n-60" style="orthogonalLoop=1;jettySize=auto;html=1;exitX=0;exitY=0;exitDx=40;exitDy=9.60315036320464;exitPerimeter=0;fontSize=15;rounded=0;shape=link;entryX=0;entryY=0;entryDx=0;entryDy=9.60315036320464;entryPerimeter=0;dashed=1;dashPattern=1 1;" parent="7GYGhVI0r9KvUz8mul4n-1" source="7GYGhVI0r9KvUz8mul4n-19" target="7GYGhVI0r9KvUz8mul4n-27" edge="1">
          <mxGeometry relative="1" as="geometry">
            <mxPoint x="590" y="165.22" as="targetPoint" />
          </mxGeometry>
        </mxCell>
        <mxCell id="7GYGhVI0r9KvUz8mul4n-68" value="&lt;font style=&quot;font-size: 15px; line-height: 1;&quot;&gt;Conv1x1&lt;br style=&quot;font-size: 15px;&quot;&gt;&lt;/font&gt;" style="text;html=1;align=center;verticalAlign=middle;whiteSpace=wrap;rounded=0;fontSize=15;" parent="7GYGhVI0r9KvUz8mul4n-1" vertex="1">
          <mxGeometry x="503" y="157.47" width="50" height="28.5" as="geometry" />
        </mxCell>
        <mxCell id="7GYGhVI0r9KvUz8mul4n-69" value="&lt;font style=&quot;font-size: 15px; line-height: 1;&quot;&gt;Pool&lt;br style=&quot;font-size: 15px;&quot;&gt;&lt;/font&gt;" style="text;html=1;align=center;verticalAlign=middle;whiteSpace=wrap;rounded=0;fontSize=15;" parent="7GYGhVI0r9KvUz8mul4n-1" vertex="1">
          <mxGeometry x="724" y="135.73" width="50" height="28.5" as="geometry" />
        </mxCell>
        <mxCell id="7GYGhVI0r9KvUz8mul4n-71" value="" style="whiteSpace=wrap;html=1;shape=mxgraph.basic.isocube;isoAngle=15;rotation=0;fillColor=#dae8fc;strokeColor=#6c8ebf;fontSize=15;" parent="7GYGhVI0r9KvUz8mul4n-1" vertex="1">
          <mxGeometry x="674" y="140.72" width="40" height="61" as="geometry" />
        </mxCell>
        <mxCell id="7GYGhVI0r9KvUz8mul4n-72" value="" style="html=1;shadow=0;dashed=0;align=center;verticalAlign=middle;shape=mxgraph.arrows2.arrow;dy=0.68;dx=19.45;notch=0;fontSize=15;" parent="7GYGhVI0r9KvUz8mul4n-1" vertex="1">
          <mxGeometry x="619" y="170.97" width="40" height="20" as="geometry" />
        </mxCell>
        <mxCell id="7GYGhVI0r9KvUz8mul4n-73" value="Norm&lt;br style=&quot;font-size: 15px;&quot;&gt;&amp;amp;&lt;br style=&quot;font-size: 15px;&quot;&gt;Activation" style="text;html=1;align=center;verticalAlign=middle;whiteSpace=wrap;rounded=0;fontSize=15;" parent="7GYGhVI0r9KvUz8mul4n-1" vertex="1">
          <mxGeometry x="614" y="126" width="50" height="28.5" as="geometry" />
        </mxCell>
        <mxCell id="7GYGhVI0r9KvUz8mul4n-74" value="" style="html=1;shadow=0;dashed=0;align=center;verticalAlign=middle;shape=mxgraph.arrows2.arrow;dy=0.68;dx=19.45;notch=0;fontSize=15;" parent="7GYGhVI0r9KvUz8mul4n-1" vertex="1">
          <mxGeometry x="921.5" y="120.97" width="40" height="20" as="geometry" />
        </mxCell>
        <mxCell id="7GYGhVI0r9KvUz8mul4n-75" value="&lt;font style=&quot;font-size: 15px; line-height: 1;&quot;&gt;Dense&lt;br style=&quot;font-size: 15px;&quot;&gt;&amp;amp;&lt;br style=&quot;font-size: 15px;&quot;&gt;Softmax&lt;br style=&quot;font-size: 15px;&quot;&gt;&lt;/font&gt;" style="text;html=1;align=center;verticalAlign=middle;whiteSpace=wrap;rounded=0;fontSize=15;" parent="7GYGhVI0r9KvUz8mul4n-1" vertex="1">
          <mxGeometry x="914" y="73" width="50" height="28.5" as="geometry" />
        </mxCell>
        <mxCell id="7GYGhVI0r9KvUz8mul4n-76" value="" style="rounded=0;whiteSpace=wrap;html=1;fontSize=15;" parent="7GYGhVI0r9KvUz8mul4n-1" vertex="1">
          <mxGeometry x="976.5" y="67.72" width="14.58" height="94" as="geometry" />
        </mxCell>
        <mxCell id="7GYGhVI0r9KvUz8mul4n-79" value="" style="group;fontSize=15;" parent="7GYGhVI0r9KvUz8mul4n-1" vertex="1" connectable="0">
          <mxGeometry x="881.1600000000001" y="115.93999999999998" width="52.836503147551056" height="83.28261682242987" as="geometry" />
        </mxCell>
        <mxCell id="7GYGhVI0r9KvUz8mul4n-80" value="" style="group;fontSize=15;" parent="7GYGhVI0r9KvUz8mul4n-79" vertex="1" connectable="0">
          <mxGeometry x="-0.0034968524489475614" y="-0.00007009345794395383" width="52.84" height="77.82014018691588" as="geometry" />
        </mxCell>
        <mxCell id="7GYGhVI0r9KvUz8mul4n-81" value="..." style="rounded=0;whiteSpace=wrap;html=1;fontSize=15;rotation=-90;fillColor=#dae8fc;strokeColor=#6c8ebf;" parent="7GYGhVI0r9KvUz8mul4n-80" vertex="1">
          <mxGeometry x="-35.09" y="29.92" width="87.93" height="23.65" as="geometry" />
        </mxCell>
        <mxCell id="7GYGhVI0r9KvUz8mul4n-82" value="" style="verticalLabelPosition=bottom;verticalAlign=top;html=1;shape=mxgraph.flowchart.on-page_reference;fontSize=15;fillColor=#fff2cc;strokeColor=#d6b656;" parent="7GYGhVI0r9KvUz8mul4n-80" vertex="1">
          <mxGeometry x="2.800978811607554" y="0.6439018691588784" width="11.539613081529252" height="11.038317757009343" as="geometry" />
        </mxCell>
        <mxCell id="7GYGhVI0r9KvUz8mul4n-83" value="" style="verticalLabelPosition=bottom;verticalAlign=top;html=1;shape=mxgraph.flowchart.on-page_reference;fontSize=15;fillColor=#fff2cc;strokeColor=#d6b656;" parent="7GYGhVI0r9KvUz8mul4n-80" vertex="1">
          <mxGeometry x="2.800978811607554" y="18.857126168224294" width="11.539613081529252" height="11.038317757009343" as="geometry" />
        </mxCell>
        <mxCell id="7GYGhVI0r9KvUz8mul4n-84" value="" style="verticalLabelPosition=bottom;verticalAlign=top;html=1;shape=mxgraph.flowchart.on-page_reference;fontSize=15;fillColor=#fff2cc;strokeColor=#d6b656;" parent="7GYGhVI0r9KvUz8mul4n-80" vertex="1">
          <mxGeometry x="2.800978811607554" y="53.57469626168223" width="11.539613081529252" height="11.038317757009343" as="geometry" />
        </mxCell>
        <mxCell id="7GYGhVI0r9KvUz8mul4n-85" value="" style="verticalLabelPosition=bottom;verticalAlign=top;html=1;shape=mxgraph.flowchart.on-page_reference;fontSize=15;fillColor=#fff2cc;strokeColor=#d6b656;" parent="7GYGhVI0r9KvUz8mul4n-79" vertex="1">
          <mxGeometry x="3.0974819591585923" y="72.24429906542053" width="11.539613081529252" height="11.038317757009343" as="geometry" />
        </mxCell>
        <mxCell id="7GYGhVI0r9KvUz8mul4n-86" value="" style="html=1;shadow=0;dashed=0;align=center;verticalAlign=middle;shape=mxgraph.arrows2.arrow;dy=0.68;dx=19.45;notch=0;fontSize=15;" parent="7GYGhVI0r9KvUz8mul4n-1" vertex="1">
          <mxGeometry x="819" y="158.72" width="40" height="20" as="geometry" />
        </mxCell>
        <mxCell id="7GYGhVI0r9KvUz8mul4n-87" value="Norm" style="text;html=1;align=center;verticalAlign=middle;whiteSpace=wrap;rounded=0;fontSize=15;" parent="7GYGhVI0r9KvUz8mul4n-1" vertex="1">
          <mxGeometry x="814" y="133.22" width="50" height="28.5" as="geometry" />
        </mxCell>
        <mxCell id="H-Szcyi4-DQxbWJlFfca-59" value="data&lt;br style=&quot;font-size: 15px;&quot;&gt;augmentation" style="shape=step;perimeter=stepPerimeter;whiteSpace=wrap;html=1;fixedSize=1;fontSize=15;" vertex="1" parent="7GYGhVI0r9KvUz8mul4n-1">
          <mxGeometry x="151" y="169.9" width="125" height="42.63" as="geometry" />
        </mxCell>
      </root>
    </mxGraphModel>
  </diagram>
</mxfile>
